<svg version="1.1" viewBox="0 0 420 384" xmlns="http://www.w3.org/2000/svg"><title>1_auto</title><path d="m204 344h39v32c0 4.4183-3.5817 8-8 8h-23c-4.4183 0-8-3.5817-8-8z" fill="#fff" fill-opacity=".2" fill-rule="evenodd"/><path d="m0 256h262v88h-262zm50.5 65c9.665 0 17.5-7.835 17.5-17.5s-7.835-17.5-17.5-17.5-17.5 7.835-17.5 17.5 7.835 17.5 17.5 17.5zm160 0c9.665 0 17.5-7.835 17.5-17.5s-7.835-17.5-17.5-17.5-17.5 7.835-17.5 17.5 7.835 17.5 17.5 17.5z" fill="#fff" fill-opacity=".4" fill-rule="evenodd"/><path d="m234 256-23-73h-149l-32 73h-30l45.078-96h182.31l34.608 96z" fill="#fff" fill-opacity=".2" fill-rule="evenodd"/><path transform="scale(-1,1)" d="m-395.81 202.25a24.5 25.5 0 0 1-24.5 25.5 24.5 25.5 0 0 1-24.5-25.5 24.5 25.5 0 0 1 24.5-25.5 24.5 25.5 0 0 1 24.5 25.5z" fill="none" stroke="#fff" stroke-opacity=".3" stroke-width="7"/><path transform="scale(-1,1)" d="m-297.33 202.15a24.5 25.5 0 0 1-24.5 25.5 24.5 25.5 0 0 1-24.5-25.5 24.5 25.5 0 0 1 24.5-25.5 24.5 25.5 0 0 1 24.5 25.5z" fill="none" stroke="#fff" stroke-opacity=".3" stroke-width="7"/><path d="m20 344h39v32c0 4.4183-3.5817 8-8 8h-23c-4.4183 0-8-3.5817-8-8z" fill="#fff" fill-opacity=".2" fill-rule="evenodd"/><path d="m333 161h51l36 40h-50z" fill="none" stroke="#fff" stroke-linejoin="round" stroke-opacity=".3" stroke-width="7"/><path d="m378 180.5 11-36.5h-16" fill="none" stroke="#fff" stroke-linecap="round" stroke-linejoin="round" stroke-opacity=".3" stroke-width="7"/><path d="m321 201 21-74.244c-22.323 0-30.99 4.4148-26 13.244" fill="none" stroke="#fff" stroke-linecap="round" stroke-opacity=".3" stroke-width="7"/></svg>
