<svg version="1.1" viewBox="0 0 355 349" xmlns="http://www.w3.org/2000/svg"><title>4_kultur</title><path d="m-46-4h401v351h-401z" fill="none"/><path d="m162 40 158 104h-316zm.5 78c8.5604 0 15.5-7.6112 15.5-17 0-9.3888-6.9396-17-15.5-17s-15.5 7.6112-15.5 17c0 9.3888 6.9396 17 15.5 17z" fill="#fff" fill-opacity=".2" fill-rule="evenodd"/><path d="m183 101a21 21 0 0 1-21 21 21 21 0 0 1-21-21 21 21 0 0 1 21-21 21 21 0 0 1 21 21z" fill="none" stroke="#fff" stroke-opacity=".4" stroke-width="10"/><path transform="translate(-46,-4)" d="m349 143h-282l141-94z" fill="none" stroke="#fff" stroke-opacity=".2" stroke-width="10"/><path d="m10 316.5h306v31h-306z" fill="#fff" fill-opacity=".4" fill-rule="evenodd"/><path d="m47 208h7v78.049h-7z" fill="#fff" fill-opacity=".2" fill-rule="evenodd"/><path d="m58 208h7v78.049h-7z" fill="#fff" fill-opacity=".2" fill-rule="evenodd"/><path d="m69 208h7v78.049h-7z" fill="#fff" fill-opacity=".2" fill-rule="evenodd"/><path d="m47 202.77h29v88.455h-29z" fill="#fff" fill-opacity=".2" fill-rule="evenodd"/><path transform="scale(1,-1)" d="m31-192.77h62v9.4553h-62z" fill="#fff" fill-opacity=".4" fill-rule="evenodd"/><path transform="scale(1,-1)" d="m31-310.77h62v9.4553h-62z" fill="#fff" fill-opacity=".4" fill-rule="evenodd"/><path transform="translate(31,183)" d="m61.774 128h-61.548l8.4894-19.772h43.508z" fill="#fff" fill-opacity=".2" fill-rule="evenodd"/><path transform="translate(31,183)" d="m61.548 0-9.5506 19.772h-43.508l-8.4894-19.772z" fill="#fff" fill-opacity=".2" fill-rule="evenodd"/><path d="m147 208h7v78.049h-7z" fill="#fff" fill-opacity=".2" fill-rule="evenodd"/><path d="m158 208h7v78.049h-7z" fill="#fff" fill-opacity=".2" fill-rule="evenodd"/><path d="m169 208h7v78.049h-7z" fill="#fff" fill-opacity=".2" fill-rule="evenodd"/><path d="m147 202.77h29v88.455h-29z" fill="#fff" fill-opacity=".2" fill-rule="evenodd"/><path transform="scale(1,-1)" d="m131-192.77h62v9.4553h-62z" fill="#fff" fill-opacity=".4" fill-rule="evenodd"/><path transform="scale(1,-1)" d="m131-310.77h62v9.4553h-62z" fill="#fff" fill-opacity=".4" fill-rule="evenodd"/><path transform="translate(131,183)" d="m61.774 128h-61.548l8.4894-19.772h43.508z" fill="#fff" fill-opacity=".2" fill-rule="evenodd"/><path transform="translate(131,183)" d="m61.548 0-9.5506 19.772h-43.508l-8.4894-19.772z" fill="#fff" fill-opacity=".2" fill-rule="evenodd"/><path d="m247 208h7v78.049h-7z" fill="#fff" fill-opacity=".2" fill-rule="evenodd"/><path d="m258 208h7v78.049h-7z" fill="#fff" fill-opacity=".2" fill-rule="evenodd"/><path d="m269 208h7v78.049h-7z" fill="#fff" fill-opacity=".2" fill-rule="evenodd"/><path d="m247 202.77h29v88.455h-29z" fill="#fff" fill-opacity=".2" fill-rule="evenodd"/><path transform="scale(1,-1)" d="m231-192.77h62v9.4553h-62z" fill="#fff" fill-opacity=".4" fill-rule="evenodd"/><path transform="scale(1,-1)" d="m231-310.77h62v9.4553h-62z" fill="#fff" fill-opacity=".4" fill-rule="evenodd"/><path transform="translate(231,183)" d="m61.774 128h-61.548l8.4894-19.772h43.508z" fill="#fff" fill-opacity=".2" fill-rule="evenodd"/><path transform="translate(231,183)" d="m61.548 0-9.5506 19.772h-43.508l-8.4894-19.772z" fill="#fff" fill-opacity=".2" fill-rule="evenodd"/><path d="m10 149h306v29h-306z" fill="#fff" fill-opacity=".2" fill-rule="evenodd"/><path d="m20 149h285v14h-285z" fill="#fff" fill-opacity=".4" fill-rule="evenodd"/></svg>
