<svg width="157" height="116" viewBox="-10 -10 177 136" fill="none" xmlns="http://www.w3.org/2000/svg">
<g opacity="0.4">
<path d="M154 98.5925C153.48 98.8125 152.87 98.8925 152.31 98.9025C146.9 98.9325 141.49 98.9525 136.08 98.9325C133.98 98.9225 132.43 97.9525 131.66 95.9525C131.15 94.6225 131.22 93.2625 132 92.0125C134.37 88.1825 136.77 84.3525 139.14 80.5125C139.36 80.1625 139.51 79.7025 139.51 79.2825C139.53 66.7325 139.52 54.1725 139.52 41.6225C139.52 41.3825 139.46 41.1425 139.42 40.8025C138.18 41.3125 137.03 41.7825 135.88 42.2525C131.92 43.8825 127.96 45.4925 124.01 47.1225C120.95 48.3825 117.9 49.6625 114.85 50.9225C111.28 52.4025 107.71 53.8625 104.14 55.3325C100.44 56.8525 96.7402 58.3725 93.0403 59.8925C88.9103 61.5925 84.7803 63.2825 80.6503 64.9725C79.2203 65.5525 77.7803 66.1125 76.3402 66.6925C75.1602 67.1625 74.0103 67.0025 72.8903 66.5425C66.7503 64.0225 60.6103 61.4925 54.4803 58.9625C49.8003 57.0325 45.1203 55.0825 40.4403 53.1625C36.0602 51.3525 31.6703 49.5625 27.2803 47.7625C23.3303 46.1325 19.3803 44.4925 15.4203 42.8625C11.2703 41.1625 7.12025 39.4725 2.96025 37.7725C1.17025 37.0525 0.0102524 35.3925 0.00025244 33.5325C-0.0197476 31.6425 1.15025 29.9525 2.94025 29.2125C8.55025 26.9025 14.1503 24.6025 19.7503 22.2925C25.6503 19.8625 31.5503 17.4325 37.4603 15.0125C43.0802 12.6925 48.7003 10.3725 54.3303 8.06249C59.0303 6.13249 63.7402 4.21249 68.4502 2.29249C70.0802 1.63249 71.7103 0.972487 73.3303 0.302487C74.5803 -0.217513 75.8003 -0.00751257 76.9803 0.482487C81.7103 2.41249 86.4303 4.37249 91.1503 6.32249C95.9003 8.28249 100.64 10.2425 105.39 12.1925C110.09 14.1225 114.81 16.0325 119.51 17.9725C123.66 19.6725 127.8 21.4125 131.94 23.1125C135.58 24.6125 139.22 26.0725 142.86 27.5725C144.33 28.1725 145.82 28.7625 147.25 29.4625C149.57 30.6025 150.38 33.4425 149.15 35.7125C148.89 36.1925 148.73 36.7925 148.73 37.3325C148.71 51.2325 148.71 65.1325 148.73 79.0325C148.74 79.5725 148.92 80.1825 149.2 80.6425C151.49 84.3725 153.82 88.0725 156.14 91.7825C157.74 94.3525 156.8 97.4225 154 98.5925Z" fill="white"/>
<path opacity="0.8" d="M123.26 89.7325C123.27 91.4125 122.52 92.7625 121.66 94.0825C118.72 98.5525 114.83 102.052 110.37 104.952C106.38 107.542 102.08 109.522 97.5803 111.062C93.4503 112.482 89.2202 113.502 84.9202 114.212C82.1802 114.672 79.4102 115.072 76.6402 115.222C74.5702 115.332 72.4703 115.082 70.4103 114.832C67.8303 114.522 65.2502 114.152 62.7202 113.602C59.9202 112.992 57.1602 112.192 54.4102 111.402C51.2402 110.492 48.2203 109.202 45.2903 107.702C39.6103 104.812 34.5503 101.122 30.6203 96.0525C29.6703 94.8325 28.8503 93.5025 28.1203 92.1325C27.7603 91.4525 27.5902 90.5825 27.5902 89.8025C27.5602 77.7825 27.5702 65.7625 27.5702 53.7425C27.5702 52.9725 27.7802 52.8325 28.4902 53.1225C34.2102 55.4925 39.9303 57.8625 45.6602 60.2225C50.3703 62.1525 55.0802 64.0625 59.7802 65.9925C63.6302 67.5725 67.4702 69.1925 71.3202 70.7725C73.6802 71.7525 76.0602 71.7325 78.4202 70.7725C82.1202 69.2625 85.8302 67.7525 89.5302 66.2325C93.1202 64.7525 96.7003 63.2525 100.29 61.7725C103.61 60.4025 106.92 59.0525 110.24 57.6825C113.08 56.5125 115.92 55.3325 118.77 54.1625C120.19 53.5825 121.62 53.0025 123.15 52.3825C123.19 52.7325 123.24 53.0025 123.24 53.2625C123.25 65.4225 123.23 77.5825 123.26 89.7425V89.7325Z" fill="white"/>
</g>
</svg>
