<svg width="173" height="140" viewBox="-10 -10 193 160" fill="none" xmlns="http://www.w3.org/2000/svg">
<g opacity="0.4">
<path d="M171.551 58.4864C165.551 51.5964 158.831 45.5064 151.271 40.3564C147.601 37.8464 143.811 35.5064 139.791 33.6064C136.371 31.9964 132.911 30.4464 129.401 29.0564C126.811 28.0364 124.131 27.2264 121.451 26.4764C119.101 25.8164 116.721 25.2764 114.321 24.8464C111.341 24.3064 108.341 23.7764 105.331 23.5264C101.691 23.2164 98.041 23.2064 94.391 23.0864C93.881 23.0764 93.641 22.8764 93.571 22.4064C93.481 21.7964 93.411 21.1864 93.311 20.5764C92.881 17.8664 92.451 15.1564 92.011 12.4364C91.661 10.2864 91.311 8.13635 90.951 5.98635C90.831 5.22635 90.361 4.73635 89.651 4.54635C87.331 3.90635 85.021 3.17635 82.661 2.69635C78.781 1.91635 74.901 1.14635 70.981 0.666354C67.451 0.236354 63.881 0.0563537 60.331 0.00635373C52.821 -0.0736463 45.361 0.596354 38.031 2.32635C35.021 3.03635 32.001 3.75635 29.041 4.65635C24.671 5.98635 20.441 7.69635 16.321 9.65635C10.901 12.2464 5.79098 15.3364 0.940975 18.8664C0.230975 19.3864 -0.109025 20.0664 0.030975 20.9564C0.160975 21.8464 0.320975 22.7364 0.470975 23.6164C0.910975 26.3064 1.36098 28.9964 1.81097 31.6764C2.10098 33.4064 2.38098 35.1364 2.67097 36.8664C3.10098 39.4364 3.54097 42.0064 3.97097 44.5764C4.39097 47.0964 4.78097 49.6264 5.20097 52.1564C5.64097 54.8364 6.10098 57.5264 6.54098 60.2164C6.82098 61.8964 6.98098 63.6064 7.40098 65.2564C8.09097 67.9764 8.87097 70.6863 9.76097 73.3464C11.001 77.0863 12.741 80.6064 14.721 84.0064C19.511 92.2364 25.741 99.2064 33.331 104.946C37.711 108.256 42.411 111.026 47.421 113.256C50.011 114.406 52.611 115.536 55.461 115.966C59.581 116.596 63.481 115.976 67.191 114.136C68.141 113.666 69.041 113.096 70.031 112.536C70.121 112.706 70.191 112.806 70.231 112.916C70.741 114.156 71.211 115.416 71.751 116.656C73.541 120.786 75.701 124.706 78.161 128.486C80.631 132.276 83.521 135.576 87.741 137.496C90.531 138.766 93.451 139.416 96.501 139.306C98.461 139.246 100.431 139.066 102.371 138.766C105.201 138.326 108.051 137.916 110.801 137.156C113.801 136.326 116.731 135.216 119.611 134.036C124.601 131.976 129.151 129.116 133.411 125.806C138.471 121.876 142.941 117.356 146.941 112.366C151.141 107.126 154.421 101.336 157.091 95.1964C159.671 89.2264 162.271 83.2663 164.861 77.3164C167.221 71.9164 169.571 66.5264 171.951 61.1464C172.401 60.1264 172.271 59.3064 171.551 58.4764V58.4864ZM67.331 109.786C64.011 112.036 60.321 112.856 56.311 112.296C53.771 111.936 51.491 110.926 49.201 109.916C45.171 108.136 41.331 105.976 37.711 103.456C29.141 97.4763 22.281 89.9364 17.241 80.7764C15.181 77.0364 13.521 73.1364 12.291 69.0364C11.451 66.2564 10.941 63.4264 10.501 60.5664C10.101 58.0464 9.62097 55.5264 9.20097 53.0064C8.78097 50.4864 8.39097 47.9564 7.98098 45.4264C7.55098 42.8764 7.11097 40.3364 6.68097 37.7864C6.27098 35.3364 5.87098 32.8864 5.46098 30.4264C5.02098 27.7664 4.59098 25.0964 4.11098 22.4364C3.98098 21.7364 4.06098 21.2764 4.70097 20.8264C9.61098 17.3564 14.791 14.3764 20.291 11.9864C23.401 10.6264 26.591 9.40635 29.821 8.35635C32.741 7.39635 35.741 6.67635 38.741 5.99635C46.151 4.31635 52.111 3.77635 59.341 3.63635C62.941 3.84635 66.561 3.89635 70.131 4.32635C74.051 4.80635 77.931 5.61635 81.821 6.34635C83.461 6.65635 85.081 7.14635 86.711 7.53635C87.281 7.67635 87.541 7.97635 87.641 8.60635C88.031 11.3464 88.501 14.0764 88.931 16.8164C89.221 18.6164 89.491 20.4264 89.781 22.2264L90.741 28.2564C91.031 30.0864 91.311 31.9164 91.591 33.7364C91.921 35.7964 92.261 37.8564 92.561 39.9164C93.001 43.0164 93.501 46.1064 93.791 49.2164C94.041 51.9764 94.211 54.7664 94.101 57.5264C93.971 60.7164 93.621 63.9064 93.121 67.0664C92.641 70.1264 92.001 73.1764 91.171 76.1464C90.391 78.9164 89.371 81.6264 88.271 84.2964C86.441 88.7564 84.001 92.8864 81.081 96.7364C77.211 101.836 72.621 106.196 67.331 109.786ZM167.781 61.4564C166.351 64.6264 164.991 67.8164 163.601 71.0064C162.081 74.4864 160.551 77.9764 159.031 81.4664C157.651 84.6464 156.231 87.8164 154.881 91.0264C152.031 97.8363 148.681 104.356 144.001 110.136C140.281 114.736 136.181 118.956 131.511 122.616C128.021 125.346 124.341 127.806 120.301 129.656C117.811 130.786 115.291 131.906 112.691 132.736C110.011 133.596 107.251 134.226 104.491 134.716C101.931 135.176 99.321 135.356 96.721 135.566C94.201 135.766 91.791 135.256 89.461 134.226C85.901 132.656 83.551 129.846 81.471 126.706C78.981 122.956 76.821 119.016 75.051 114.886C74.491 113.576 74.011 112.236 73.491 110.916C73.261 110.336 73.401 109.926 73.911 109.516C79.891 104.646 84.761 98.8264 88.571 92.1264C90.371 88.9564 91.961 85.6764 93.101 82.2064C94.121 79.0863 95.001 75.9164 95.901 72.7564C95.961 72.5564 96.011 72.3364 96.061 72.0864C96.211 71.4364 96.301 70.7664 96.401 70.1064C96.411 70.0164 96.431 69.9364 96.461 69.8664C97.031 65.9664 97.441 60.0564 97.661 56.3964C97.671 56.1564 97.691 55.9264 97.701 55.7064C97.711 55.4464 97.731 55.2064 97.741 54.9664C97.761 54.5664 97.781 54.2164 97.801 53.9364C97.801 53.8464 97.801 53.7564 97.801 53.6764C97.811 53.5164 97.821 53.3964 97.821 53.2964C97.831 53.2564 97.831 53.2164 97.831 53.1864V53.1164C97.811 52.4264 97.791 51.7364 97.771 51.0464C97.751 50.5764 97.881 50.3464 98.381 50.3164C101.051 50.1264 103.701 50.2364 106.261 51.0364C107.541 51.4464 108.781 51.9764 110.021 52.4964C111.091 52.9464 112.261 52.6464 112.701 51.7464C113.181 50.7764 112.821 49.7664 111.771 49.1964C109.281 47.8464 106.631 46.9764 103.821 46.7364C101.891 46.5664 99.941 46.5764 98.001 46.5664C97.441 46.5564 97.301 46.2664 97.231 45.8464C97.061 44.7264 96.911 43.5964 96.741 42.4764C96.171 38.8664 95.581 35.2664 95.011 31.6664C94.781 30.2164 94.571 28.7664 94.331 27.3164C94.251 26.7764 94.601 26.7864 94.941 26.7864C96.271 26.7864 97.601 26.7564 98.931 26.8164C103.531 26.9964 108.111 27.4664 112.631 28.3164C117.101 29.1564 121.491 30.3064 125.801 31.7864C131.631 33.7764 137.221 36.3064 142.571 39.3564C151.991 44.7364 160.261 51.5364 167.531 59.5764C168.111 60.2164 168.111 60.7164 167.771 61.4564H167.781Z" fill="white" fill-opacity="0.9"/>
<path opacity="0.8" d="M93.791 49.2164C93.501 46.1064 93.001 43.0164 92.561 39.9164C92.261 37.8564 91.921 35.7964 91.591 33.7364C91.311 31.9164 91.031 30.0864 90.741 28.2564L89.781 22.2264C89.491 20.4264 89.221 18.6164 88.931 16.8164C88.501 14.0764 88.031 11.3464 87.641 8.60635C87.541 7.97635 87.281 7.67635 86.711 7.53635C85.081 7.14635 83.461 6.65635 81.821 6.34635C77.931 5.61635 74.051 4.80635 70.131 4.32635C66.561 3.89635 62.941 3.84635 59.341 3.63635C52.111 3.77635 46.151 4.31635 38.741 5.99635C35.741 6.67635 32.741 7.39635 29.821 8.35635C26.591 9.40635 23.401 10.6264 20.291 11.9864C14.791 14.3764 9.61097 17.3564 4.70097 20.8264C4.06097 21.2764 3.98097 21.7364 4.11097 22.4364C4.59097 25.0964 5.02097 27.7664 5.46097 30.4264C5.87097 32.8864 6.27097 35.3364 6.68097 37.7864C7.11097 40.3364 7.55097 42.8764 7.98097 45.4264C8.39097 47.9563 8.78097 50.4864 9.20097 53.0064C9.62097 55.5264 10.101 58.0464 10.501 60.5664C10.941 63.4264 11.451 66.2564 12.291 69.0364C13.521 73.1364 15.181 77.0364 17.241 80.7764C22.281 89.9364 29.141 97.4763 37.711 103.456C41.331 105.976 45.171 108.136 49.201 109.916C51.491 110.926 53.771 111.936 56.311 112.296C60.321 112.856 64.011 112.036 67.331 109.786C72.621 106.196 77.211 101.836 81.081 96.7364C84.001 92.8864 86.441 88.7564 88.271 84.2964C89.371 81.6264 90.391 78.9164 91.171 76.1464C92.001 73.1764 92.641 70.1264 93.121 67.0663C93.621 63.9064 93.971 60.7164 94.101 57.5264C94.211 54.7664 94.041 51.9763 93.791 49.2164ZM56.851 22.4264C58.411 21.6164 60.021 20.8364 61.701 20.2964C62.711 19.9664 63.741 19.7464 64.781 19.6064C64.911 19.5864 65.041 19.5764 65.181 19.5564C65.211 19.5464 65.241 19.5464 65.271 19.5464C65.721 19.4964 66.161 19.4564 66.611 19.4364C67.071 19.4064 67.521 19.3964 67.981 19.3964C68.311 19.3964 68.651 19.4064 68.991 19.4164C69.321 19.4264 69.651 19.4464 69.981 19.4764C70.421 19.5064 70.851 19.5564 71.271 19.6164C71.771 19.6864 72.271 19.7664 72.761 19.8764C73.001 19.9264 73.241 19.9864 73.491 20.0464C73.731 20.0964 73.971 20.1564 74.211 20.2364C74.451 20.2964 74.691 20.3664 74.921 20.4464C75.161 20.5164 75.401 20.5964 75.631 20.6864C76.341 20.9264 77.031 21.2064 77.711 21.5264C77.941 21.6264 78.161 21.7264 78.391 21.8464C79.071 22.1764 79.741 22.5364 80.401 22.9264C81.271 23.4464 82.151 23.9764 82.931 24.6164C83.361 24.9764 83.611 25.5664 83.941 26.0464C83.881 26.0864 83.811 26.1164 83.751 26.1564C83.751 26.3464 83.731 26.5164 83.701 26.6864C83.691 26.7664 83.661 26.8364 83.631 26.9064C83.581 27.0564 83.501 27.1864 83.411 27.3064C83.361 27.3664 83.311 27.4264 83.261 27.4764C83.151 27.5864 83.021 27.6764 82.871 27.7564C82.791 27.7964 82.721 27.8364 82.651 27.8664C82.541 27.9064 82.431 27.9464 82.321 27.9664C82.321 27.9664 82.311 27.9664 82.291 27.9664C82.181 27.9964 82.081 28.0064 81.971 28.0064C81.591 28.0064 81.221 27.8864 80.851 27.6564C80.391 27.3764 79.941 27.0964 79.491 26.8164C79.301 26.6964 79.121 26.5764 78.931 26.4564C78.181 25.9964 77.431 25.5464 76.651 25.1564C73.431 23.5764 70.061 22.8664 66.531 23.1764C65.991 23.2164 65.461 23.2864 64.921 23.3764C64.111 23.5164 63.311 23.6964 62.531 23.9364C62.211 24.0364 61.901 24.1364 61.591 24.2464C61.571 24.2564 61.541 24.2664 61.521 24.2764C61.241 24.3764 60.971 24.4864 60.691 24.5964C60.641 24.6164 60.601 24.6364 60.561 24.6564C60.381 24.7364 60.201 24.8164 60.021 24.9064C59.851 24.9764 59.691 25.0564 59.531 25.1464C59.291 25.2664 59.051 25.3964 58.811 25.5364C58.231 25.8664 57.501 25.8264 56.951 25.5164C56.711 25.3864 56.501 25.1964 56.351 24.9664C55.761 24.0464 55.881 22.9364 56.851 22.4264ZM13.341 34.4764C13.691 34.0964 14.051 33.7164 14.401 33.3364C14.761 32.9564 15.121 32.5764 15.491 32.2064C16.221 31.4664 16.971 30.7564 17.771 30.0964C18.371 29.6064 19.001 29.1464 19.651 28.7164C21.591 27.4464 23.721 26.4964 25.951 25.7864C26.341 25.6564 26.741 25.5464 27.131 25.4264C27.531 25.3164 27.931 25.2164 28.331 25.1264C28.731 25.0264 29.131 24.9364 29.521 24.8664C29.921 24.7864 30.321 24.7164 30.731 24.6464C31.171 24.5764 31.611 24.5164 32.061 24.4664C32.091 24.4664 32.121 24.4564 32.151 24.4564C32.481 24.4164 32.811 24.3864 33.151 24.3664C33.461 24.3364 33.781 24.3164 34.091 24.3064C34.251 24.2964 34.411 24.2864 34.571 24.2864C35.281 24.2664 35.991 24.2664 36.711 24.2864C37.071 24.2864 37.431 24.3064 37.801 24.3364C37.891 24.3464 37.991 24.3564 38.081 24.3764C38.301 24.4064 38.501 24.4564 38.691 24.5264C38.871 24.5964 39.031 24.6864 39.181 24.8164C39.331 24.9464 39.461 25.1164 39.561 25.3164C39.611 25.4064 39.651 25.4964 39.681 25.6064C39.921 26.3764 39.841 27.1464 39.161 27.5864C38.931 27.7464 38.651 27.8564 38.351 27.9264C38.051 28.0064 37.731 28.0464 37.441 28.0764C37.101 28.1164 36.761 28.0964 36.411 28.0664C36.371 28.0664 36.331 28.0664 36.301 28.0564C36.091 28.0464 35.871 28.0264 35.671 28.0164C35.391 28.0064 35.101 28.0164 34.821 28.0164C32.171 28.0864 29.571 28.5064 27.071 29.3664C26.541 29.5464 26.031 29.7464 25.521 29.9564C25.271 30.0564 25.021 30.1664 24.771 30.2764C24.271 30.4964 23.781 30.7364 23.301 30.9864C22.591 31.3664 21.891 31.7764 21.221 32.2264C21.001 32.3764 20.781 32.5264 20.561 32.6864C20.171 32.9564 19.791 33.2464 19.421 33.5664C19.351 33.6164 19.281 33.6764 19.211 33.7364C19.071 33.8564 18.931 33.9764 18.791 34.0964C18.551 34.3164 18.311 34.5364 18.071 34.7664C17.691 35.1463 17.311 35.5464 16.941 35.9564C16.761 36.1664 16.581 36.3863 16.401 36.6064C16.351 36.6764 16.291 36.7364 16.221 36.7964C16.131 36.8964 16.031 36.9864 15.921 37.0564C15.821 37.1364 15.711 37.2064 15.601 37.2564C15.451 37.3264 15.301 37.3864 15.151 37.4164C14.581 37.5564 13.981 37.4464 13.531 37.0364C12.811 36.3964 12.631 35.2464 13.341 34.4764ZM31.001 50.4564C28.441 50.6364 25.951 51.1664 23.521 52.0564C21.261 52.8764 19.181 54.0064 17.141 55.2664C16.261 55.7963 15.321 55.7464 14.711 55.1664C14.031 54.5064 13.921 53.6264 14.401 52.6964C17.241 47.2364 21.491 43.2263 27.001 40.5364C29.821 39.1664 32.771 38.1764 35.861 37.5964C37.111 37.3564 38.371 37.1163 39.231 36.9464C40.751 36.8863 41.541 37.5464 41.771 38.6864C42.481 42.1364 43.201 45.5964 43.921 49.0464C44.191 50.3264 43.921 51.1564 42.961 51.5864C42.551 51.7664 41.971 51.8264 41.541 51.6964C38.091 50.7464 34.581 50.2064 31.001 50.4564ZM76.431 73.6864C76.381 74.0664 76.311 74.4464 76.231 74.8164C75.781 76.9664 75.281 79.1264 74.521 81.1864C74.401 81.5064 74.271 81.8364 74.141 82.1464C74.051 82.3864 73.951 82.6264 73.841 82.8664C73.731 83.1164 73.621 83.3664 73.501 83.6064C73.261 84.1364 73.001 84.6464 72.721 85.1464C72.561 85.4464 72.391 85.7464 72.211 86.0264C72.041 86.3264 71.851 86.6064 71.661 86.8864C71.541 87.0764 71.411 87.2664 71.271 87.4564C71.081 87.7263 70.881 87.9864 70.681 88.2464C70.551 88.4164 70.411 88.5864 70.271 88.7464C70.141 88.9164 69.991 89.0864 69.841 89.2464C69.721 89.3864 69.601 89.5164 69.471 89.6464C69.221 89.9264 68.951 90.1964 68.681 90.4464C68.191 90.9064 67.681 91.3364 67.141 91.7564C66.931 91.9264 66.721 92.0864 66.491 92.2364C66.431 92.2864 66.371 92.3264 66.311 92.3564C65.741 92.7464 65.151 93.1064 64.521 93.4464C63.901 93.7864 63.261 94.0864 62.621 94.3564C62.311 94.4864 62.001 94.5964 61.681 94.7064C61.651 94.7164 61.621 94.7264 61.601 94.7264C61.351 94.8164 61.101 94.8964 60.851 94.9664C60.461 95.0764 60.071 95.1764 59.681 95.2464C59.351 95.3164 59.021 95.3764 58.691 95.4164C58.461 95.4564 58.221 95.4764 57.981 95.4964C57.831 95.5164 57.681 95.5264 57.541 95.5264C57.171 95.5564 56.791 95.5664 56.421 95.5564H56.201C55.861 95.5564 55.521 95.5464 55.191 95.5164C54.911 95.5064 54.651 95.4864 54.391 95.4564C54.191 95.4364 54.001 95.4164 53.801 95.3864C53.471 95.3464 53.151 95.2864 52.841 95.2264C52.541 95.1664 52.251 95.0964 51.961 95.0164C51.881 95.0064 51.801 94.9864 51.721 94.9564C51.471 94.8964 51.231 94.8264 50.991 94.7364C50.911 94.7164 50.831 94.6964 50.751 94.6664C50.451 94.5564 50.151 94.4464 49.861 94.3264C49.851 94.3264 49.841 94.3264 49.841 94.3164C49.591 94.2264 49.341 94.1164 49.101 93.9964C48.951 93.9264 48.801 93.8564 48.651 93.7764C48.421 93.6664 48.201 93.5464 47.971 93.4264C47.521 93.1764 47.091 92.9064 46.661 92.6264C46.231 92.3464 45.811 92.0464 45.401 91.7264C45.191 91.5664 44.991 91.3964 44.781 91.2264C43.911 90.5164 43.081 89.7664 42.301 88.9764C40.711 87.4064 39.291 85.7164 37.951 83.9364C37.271 83.0564 36.631 82.1464 35.991 81.2264C35.661 80.7464 35.341 80.2564 35.021 79.7564C34.691 79.2564 34.371 78.7664 34.051 78.2664C33.621 77.6064 33.591 76.9164 33.961 76.2464C34.051 76.0864 34.151 75.9464 34.271 75.8364C34.441 75.6764 34.641 75.5564 34.871 75.4864C34.941 75.4564 35.011 75.4364 35.091 75.4264C35.331 75.3764 35.581 75.3664 35.851 75.3864C37.481 75.4964 39.111 75.6364 40.741 75.7364C41.261 75.7664 41.781 75.7864 42.301 75.8064C42.521 75.8164 42.751 75.8164 42.971 75.8264C44.321 75.8664 45.671 75.8464 47.021 75.7664C48.941 75.6764 50.851 75.4664 52.761 75.1664C53.711 75.0264 54.651 74.8664 55.601 74.6764C60.051 73.8064 64.391 72.5664 68.591 70.8464C70.491 70.0764 72.371 69.2464 74.291 68.5064C75.511 68.0364 76.791 68.9264 76.731 70.2364C76.691 71.3864 76.611 72.5464 76.431 73.6864ZM87.591 43.3264C87.241 43.8664 86.281 44.2864 85.171 44.0164C80.751 42.9563 76.261 42.6864 71.781 43.5764C68.191 44.2864 64.841 45.6264 62.051 48.0964C60.801 49.2064 59.041 48.5464 58.781 47.0264C58.391 44.6964 57.871 42.3864 57.401 40.0664C57.141 38.7664 56.861 37.4664 56.641 36.1664C56.411 34.7864 56.991 33.9264 58.391 33.7464C61.201 33.3564 64.021 33.0564 66.841 32.7264C66.851 32.7864 66.861 32.8464 66.871 32.9064C71.371 32.8964 75.721 33.6764 79.851 35.5164C82.651 36.7564 85.131 38.4764 87.201 40.7464C88.021 41.6464 88.141 42.4864 87.591 43.3264Z" fill="white" fill-opacity="0.9"/>
<path opacity="0.8" d="M120.711 121.266C120.711 121.426 120.701 121.576 120.671 121.726C120.701 121.586 120.721 121.426 120.721 121.266V120.246C120.721 120.586 120.721 120.926 120.711 121.266ZM120.281 122.616C120.401 122.476 120.501 122.316 120.561 122.146C120.481 122.316 120.391 122.476 120.281 122.616ZM120.041 110.786C119.981 110.366 119.911 109.956 119.831 109.546C119.901 109.956 119.971 110.366 120.031 110.786C120.301 112.626 120.501 114.486 120.711 116.336C120.511 114.486 120.311 112.626 120.041 110.786ZM100.241 109.756C99.101 109.336 97.951 108.996 96.791 108.736C97.951 109.006 99.101 109.346 100.241 109.766C100.751 109.956 101.261 110.146 101.751 110.356C101.261 110.146 100.751 109.946 100.241 109.756ZM96.401 70.1064C96.301 70.7664 96.211 71.4364 96.061 72.0864C96.211 71.4664 96.341 70.7164 96.461 69.8664C96.431 69.9364 96.411 70.0164 96.401 70.1064ZM82.481 109.116C82.401 109.126 82.321 109.146 82.241 109.156C82.321 109.146 82.411 109.146 82.491 109.126C83.231 108.986 83.971 108.846 84.711 108.716C83.971 108.846 83.231 108.986 82.481 109.116Z" fill="white" fill-opacity="0.9"/>
<path opacity="0.8" d="M167.541 59.5764C160.271 51.5364 152.001 44.7364 142.581 39.3564C137.231 36.3064 131.641 33.7764 125.811 31.7864C121.501 30.3064 117.111 29.1564 112.641 28.3164C108.121 27.4664 103.541 26.9964 98.941 26.8164C97.611 26.7564 96.281 26.7864 94.951 26.7864C94.611 26.7864 94.261 26.7764 94.341 27.3164C94.581 28.7664 94.791 30.2164 95.021 31.6664C95.591 35.2664 96.181 38.8664 96.751 42.4764C96.921 43.5964 97.071 44.7264 97.241 45.8464C97.311 46.2664 97.451 46.5564 98.011 46.5664C99.951 46.5764 101.901 46.5664 103.831 46.7364C106.641 46.9764 109.291 47.8464 111.781 49.1964C112.831 49.7664 113.191 50.7764 112.711 51.7464C112.271 52.6464 111.101 52.9464 110.031 52.4964C108.791 51.9764 107.551 51.4464 106.271 51.0364C103.711 50.2364 101.061 50.1264 98.391 50.3164C97.891 50.3464 97.761 50.5764 97.781 51.0464C97.801 51.7364 97.821 52.4264 97.841 53.1164V53.1864C97.841 53.1864 97.841 53.2564 97.831 53.2964C97.831 53.4164 97.821 53.5464 97.811 53.6764C97.811 53.7564 97.811 53.8464 97.811 53.9364C97.791 54.2664 97.771 54.6064 97.751 54.9664C97.741 55.2064 97.721 55.4464 97.711 55.6964C97.701 55.9264 97.681 56.1564 97.671 56.3964C97.811 56.4364 98.111 56.4164 98.721 56.3264C100.441 56.0764 102.161 55.8864 103.881 55.8564C105.561 55.8364 107.241 56.0364 108.921 56.1664C110.481 56.2864 111.021 56.8564 111.041 58.4164C111.061 60.0764 111.041 61.7364 111.041 63.3964H111.051C111.051 64.8964 111.051 66.3864 111.041 67.8864C111.041 68.2864 111.041 68.6964 110.981 69.0864C110.831 70.1764 109.821 70.8764 108.761 70.6464C108.291 70.5464 107.831 70.4264 107.381 70.2864C104.091 69.3064 100.741 68.9864 97.321 69.2364C96.821 69.2764 96.581 69.4764 96.471 69.8664C96.351 70.7164 96.221 71.4664 96.071 72.0864C96.021 72.3364 95.971 72.5564 95.911 72.7564C95.011 75.9164 94.131 79.0864 93.111 82.2064C91.971 85.6764 90.381 88.9564 88.581 92.1264C84.771 98.8264 79.901 104.646 73.921 109.516C73.411 109.926 73.271 110.336 73.501 110.916C74.021 112.236 74.501 113.576 75.061 114.886C76.831 119.016 78.991 122.956 81.481 126.706C83.561 129.846 85.911 132.656 89.471 134.226C91.801 135.256 94.211 135.766 96.731 135.566C99.331 135.356 101.941 135.176 104.501 134.716C107.261 134.226 110.021 133.596 112.701 132.736C115.301 131.906 117.821 130.786 120.311 129.656C124.351 127.806 128.031 125.346 131.521 122.616C136.191 118.956 140.291 114.736 144.011 110.136C148.691 104.356 152.041 97.8363 154.891 91.0264C156.241 87.8164 157.661 84.6464 159.041 81.4664C160.561 77.9764 162.091 74.4864 163.611 71.0064C165.001 67.8164 166.361 64.6264 167.791 61.4564C168.131 60.7164 168.131 60.2164 167.551 59.5764H167.541ZM120.721 118.206V121.266C120.721 121.426 120.701 121.586 120.671 121.726C120.651 121.866 120.611 122.006 120.561 122.136C120.501 122.316 120.401 122.476 120.281 122.616C120.221 122.696 120.151 122.766 120.081 122.816C119.931 122.946 119.761 123.056 119.561 123.136C119.201 123.286 118.881 123.336 118.561 123.286C118.511 123.286 118.461 123.276 118.401 123.256C118.261 123.226 118.131 123.176 117.991 123.096C117.911 123.056 117.841 123.016 117.771 122.956C117.651 122.876 117.531 122.776 117.411 122.656C117.381 122.626 117.351 122.606 117.321 122.576C117.061 122.316 116.821 122.066 116.571 121.806C115.811 121.026 115.061 120.236 114.301 119.456C113.291 118.426 112.271 117.406 111.211 116.426C110.811 116.066 110.401 115.706 109.981 115.366C109.621 115.066 109.251 114.766 108.881 114.486C108.811 114.426 108.731 114.376 108.661 114.316C108.321 114.066 107.981 113.816 107.631 113.586C107.501 113.496 107.371 113.406 107.241 113.316C106.851 113.056 106.461 112.806 106.051 112.556C105.601 112.286 105.131 112.016 104.661 111.756C103.721 111.246 102.751 110.776 101.751 110.356C101.261 110.146 100.751 109.956 100.241 109.766C99.101 109.346 97.951 109.006 96.791 108.736C96.401 108.656 96.011 108.576 95.631 108.496C94.851 108.356 94.071 108.246 93.281 108.176C92.871 108.146 92.461 108.116 92.041 108.096C90.851 108.046 89.651 108.076 88.441 108.186C87.941 108.236 87.441 108.296 86.941 108.366C86.191 108.466 85.451 108.586 84.711 108.716C83.971 108.846 83.231 108.986 82.491 109.126C82.411 109.146 82.321 109.146 82.241 109.156C81.561 109.216 80.911 109.036 80.491 108.576C80.431 108.526 80.391 108.466 80.341 108.396C80.041 107.946 79.921 107.466 80.031 106.996C80.061 106.796 80.141 106.596 80.251 106.396C80.311 106.296 80.381 106.196 80.461 106.096C81.751 104.506 83.121 102.986 84.581 101.556C84.981 101.166 85.381 100.786 85.791 100.416C85.861 100.356 85.941 100.286 86.011 100.216C86.441 99.8364 86.871 99.4664 87.311 99.1064C89.751 97.0964 92.381 95.3864 95.321 94.1964C96.091 93.8864 96.871 93.6164 97.651 93.3864C97.871 93.3264 98.081 93.2664 98.301 93.2164C99.031 93.0264 99.771 92.8764 100.511 92.7864C100.691 92.7564 100.871 92.7364 101.051 92.7164C101.221 92.6964 101.401 92.6764 101.571 92.6764C101.981 92.6464 102.391 92.6264 102.801 92.6264C103.031 92.6264 103.251 92.6364 103.481 92.6464C103.711 92.6564 103.931 92.6664 104.161 92.6964C105.061 92.7764 105.961 92.9364 106.871 93.1864C107.071 93.2364 107.271 93.2964 107.471 93.3564C107.701 93.4264 107.921 93.5064 108.141 93.5864C108.151 93.5964 108.171 93.6064 108.201 93.6164C108.431 93.6864 108.651 93.7764 108.871 93.8764C108.871 93.8864 108.881 93.8864 108.891 93.8864C109.061 93.9564 109.231 94.0264 109.401 94.1164C111.251 94.9864 112.851 96.1964 114.211 97.6864C114.321 97.8064 114.431 97.9364 114.541 98.0564C114.671 98.2064 114.791 98.3564 114.911 98.5064C115.081 98.7164 115.241 98.9164 115.401 99.1364C115.521 99.2964 115.641 99.4564 115.751 99.6264C115.961 99.9164 116.151 100.216 116.341 100.516C117.321 102.096 118.111 103.746 118.721 105.456C118.831 105.746 118.931 106.036 119.011 106.336C119.101 106.586 119.171 106.836 119.241 107.086C119.301 107.276 119.351 107.456 119.391 107.646C119.461 107.876 119.521 108.096 119.561 108.326C119.671 108.726 119.751 109.136 119.831 109.546C119.911 109.956 119.981 110.366 120.041 110.786C120.311 112.626 120.511 114.486 120.711 116.336C120.781 116.946 120.851 117.566 120.921 118.186C120.851 118.196 120.791 118.196 120.721 118.206ZM144.651 94.0864C144.371 94.8664 143.581 95.3864 142.841 95.3664C142.071 95.3564 141.331 94.7864 141.061 93.9664C140.041 90.9164 138.691 88.0364 136.701 85.4864C133.571 81.4764 129.501 78.8464 124.701 77.2764C123.151 76.7664 122.521 75.9564 122.851 74.7364C122.941 74.3864 123.151 74.0464 123.391 73.7564C125.521 71.1264 127.671 68.5164 129.821 65.8964C130.901 64.5864 131.771 64.5164 133.161 65.5464C136.161 67.7764 138.911 70.2564 141.211 73.2164C143.191 75.7864 144.811 78.5564 145.511 81.7664C145.841 83.3064 146.051 84.8764 146.311 86.4364C146.141 89.1064 145.541 91.6264 144.651 94.0864ZM150.391 80.2364C150.131 80.2664 149.871 80.2464 149.641 80.1764C149.561 80.1664 149.491 80.1464 149.421 80.1164C149.371 80.1064 149.321 80.0764 149.271 80.0564C149.221 80.0364 149.171 80.0064 149.121 79.9664C149.061 79.9464 149.011 79.9064 148.961 79.8664C148.881 79.8064 148.801 79.7364 148.731 79.6564C148.601 79.5064 148.491 79.3264 148.421 79.1264C148.381 79.0264 148.351 78.9164 148.331 78.8064C148.291 78.5464 148.241 78.2964 148.191 78.0464C148.081 77.5564 147.951 77.0664 147.811 76.5864C147.741 76.3464 147.661 76.1164 147.571 75.8864C147.491 75.6464 147.401 75.4164 147.311 75.1964C147.221 74.9664 147.121 74.7364 147.021 74.5164C146.921 74.2964 146.811 74.0764 146.701 73.8564C146.591 73.6364 146.481 73.4164 146.361 73.2064C146.011 72.5664 145.611 71.9464 145.181 71.3464C145.091 71.2164 144.991 71.0764 144.891 70.9464C144.801 70.8264 144.711 70.6964 144.611 70.5764C144.501 70.4364 144.391 70.3064 144.281 70.1664C144.121 69.9764 143.961 69.7864 143.801 69.5964C143.671 69.4464 143.541 69.2964 143.401 69.1464C143.201 68.9164 142.991 68.6964 142.781 68.4764C141.811 67.4864 140.781 66.5664 139.701 65.7264C139.251 65.3764 138.791 65.0364 138.321 64.7164C137.911 64.4164 137.501 64.1464 137.081 63.8864C136.931 63.7864 136.781 63.6864 136.621 63.6064C136.321 63.4064 136.001 63.2164 135.691 63.0464C135.571 62.9664 135.451 62.8964 135.321 62.8364C134.851 62.5664 134.381 62.3164 133.901 62.0664C133.511 61.8664 133.201 61.5964 132.981 61.2864C132.621 60.7764 132.531 60.1664 132.801 59.6164C132.951 59.3164 133.151 59.0664 133.391 58.8864C133.441 58.8364 133.491 58.8064 133.541 58.7664C133.701 58.6664 133.881 58.5864 134.061 58.5264C134.151 58.4964 134.231 58.4764 134.311 58.4664C134.681 58.4164 135.071 58.4664 135.421 58.6464C141.841 61.8964 147.181 66.2864 150.411 72.8864C150.571 73.2064 150.711 73.5264 150.841 73.8564C150.981 74.1764 151.101 74.5064 151.211 74.8364C151.591 75.9364 151.851 77.0464 151.991 78.0964C151.991 79.3364 151.331 80.1464 150.391 80.2364Z" fill="white" fill-opacity="0.9"/>
<path d="M56.421 95.5464C51.801 95.5864 48.091 93.9364 44.781 91.2264C41.301 88.3764 38.531 84.8964 36.001 81.2264C35.331 80.2564 34.701 79.2464 34.051 78.2564C33.621 77.6064 33.591 76.9064 33.961 76.2364C34.361 75.5164 35.051 75.3164 35.851 75.3764C38.001 75.5264 40.151 75.7164 42.311 75.7964C46.791 75.9664 51.221 75.5164 55.611 74.6664C60.051 73.7964 64.391 72.5564 68.591 70.8364C70.491 70.0564 72.381 69.2364 74.301 68.4964C75.521 68.0264 76.801 68.9164 76.741 70.2164C76.671 71.7564 76.561 73.3064 76.241 74.8064C75.781 76.9564 75.281 79.1164 74.521 81.1664C72.591 86.3664 69.541 90.7264 64.531 93.4364C61.921 94.8464 59.131 95.5964 56.421 95.5364V95.5464Z" fill="white" fill-opacity="0.9"/>
<path d="M34.821 28.0164C32.171 28.0864 29.571 28.5164 27.071 29.3664C22.871 30.8064 19.221 33.1064 16.401 36.5964C15.621 37.5564 14.331 37.7564 13.531 37.0364C12.811 36.3864 12.631 35.2364 13.341 34.4764C14.751 32.9564 16.181 31.4164 17.771 30.0964C20.171 28.0964 22.981 26.7364 25.951 25.7864C29.801 24.5564 33.761 24.0564 37.811 24.3464C38.651 24.4064 39.391 24.6864 39.681 25.6064C39.921 26.3764 39.841 27.1464 39.161 27.5864C38.681 27.9064 38.031 28.0164 37.441 28.0764C36.861 28.1464 36.261 28.0364 35.671 28.0164C35.391 28.0064 35.101 28.0164 34.821 28.0164Z" fill="white" fill-opacity="0.9"/>
<path d="M83.761 26.1564C83.771 26.8564 83.471 27.4264 82.881 27.7564C82.211 28.1264 81.521 28.0564 80.861 27.6564C79.471 26.8064 78.121 25.8664 76.671 25.1564C72.961 23.3364 69.051 22.6764 64.941 23.3764C62.771 23.7464 60.731 24.4264 58.831 25.5364C58.001 26.0164 56.861 25.7164 56.371 24.9564C55.781 24.0364 55.901 22.9264 56.871 22.4264C58.431 21.6064 60.041 20.8364 61.711 20.2964C64.061 19.5364 66.521 19.3364 69.011 19.4164C73.141 19.5564 76.901 20.8364 80.411 22.9164C81.281 23.4364 82.161 23.9664 82.941 24.6064C83.381 24.9664 83.621 25.5464 83.951 26.0364C83.891 26.0764 83.831 26.1164 83.771 26.1564H83.761Z" fill="white" fill-opacity="0.9"/>
<path d="M120.921 118.186C120.851 118.196 120.791 118.196 120.721 118.206V121.266C120.721 121.426 120.701 121.586 120.671 121.726C120.651 121.866 120.611 122.006 120.561 122.136C120.501 122.316 120.401 122.476 120.281 122.616C120.221 122.696 120.151 122.766 120.081 122.816C119.931 122.936 119.761 123.046 119.561 123.136C119.201 123.286 118.881 123.336 118.561 123.286C118.511 123.286 118.461 123.276 118.401 123.256C118.261 123.226 118.131 123.176 117.991 123.096C117.921 123.056 117.851 123.006 117.771 122.956C117.651 122.866 117.531 122.766 117.411 122.656C117.381 122.626 117.351 122.606 117.321 122.576C117.061 122.316 116.821 122.066 116.571 121.806C115.811 121.026 115.061 120.236 114.301 119.456C113.291 118.426 112.271 117.406 111.211 116.426C110.811 116.066 110.401 115.706 109.981 115.366C109.621 115.066 109.251 114.766 108.881 114.486C108.811 114.426 108.731 114.376 108.661 114.316C108.321 114.066 107.981 113.816 107.631 113.586C107.501 113.496 107.371 113.406 107.241 113.316C106.851 113.056 106.461 112.806 106.051 112.556C105.601 112.286 105.131 112.016 104.661 111.756C103.721 111.246 102.751 110.776 101.751 110.356C101.261 110.146 100.751 109.956 100.241 109.766C99.101 109.346 97.951 109.006 96.791 108.736C96.401 108.656 96.011 108.576 95.631 108.496C94.851 108.356 94.071 108.246 93.281 108.176C92.871 108.146 92.461 108.116 92.041 108.096C90.851 108.046 89.651 108.076 88.441 108.186C87.941 108.236 87.441 108.296 86.941 108.366C86.191 108.466 85.451 108.586 84.711 108.716C83.971 108.846 83.231 108.986 82.491 109.126C82.411 109.146 82.321 109.146 82.241 109.156C81.561 109.216 80.911 109.036 80.491 108.576C80.441 108.526 80.3909 108.466 80.3409 108.396C80.0409 107.946 79.921 107.466 80.031 106.996C80.061 106.796 80.141 106.596 80.251 106.396C80.311 106.296 80.381 106.196 80.461 106.096C81.751 104.506 83.121 102.986 84.581 101.556C84.981 101.166 85.381 100.786 85.791 100.416C85.861 100.356 85.941 100.286 86.011 100.216C86.441 99.8364 86.871 99.4664 87.311 99.1064C89.751 97.0964 92.381 95.3864 95.321 94.1964C96.091 93.8864 96.871 93.6164 97.651 93.3864C97.871 93.3264 98.081 93.2664 98.301 93.2164C99.031 93.0264 99.771 92.8764 100.511 92.7864C100.691 92.7564 100.871 92.7364 101.051 92.7164C101.231 92.6964 101.401 92.6864 101.571 92.6764C101.981 92.6464 102.391 92.6264 102.801 92.6264C103.031 92.6264 103.251 92.6364 103.481 92.6464C103.711 92.6564 103.931 92.6664 104.161 92.6964C105.061 92.7764 105.961 92.9364 106.871 93.1864L107.471 93.3664C107.701 93.4364 107.921 93.5164 108.141 93.5864C108.151 93.5964 108.171 93.6064 108.201 93.6164C108.421 93.6964 108.651 93.7864 108.871 93.8764C108.871 93.8864 108.881 93.8864 108.891 93.8864C109.061 93.9564 109.231 94.0364 109.401 94.1164C111.251 94.9864 112.851 96.1964 114.211 97.6864C114.321 97.8064 114.431 97.9364 114.541 98.0564C114.671 98.2064 114.791 98.3564 114.911 98.5064C115.081 98.7064 115.241 98.9164 115.401 99.1364C115.521 99.2964 115.641 99.4564 115.751 99.6264C115.961 99.9164 116.151 100.216 116.341 100.516C117.321 102.096 118.111 103.746 118.721 105.456C118.821 105.746 118.921 106.046 119.011 106.336C119.091 106.586 119.171 106.836 119.241 107.086C119.301 107.276 119.351 107.456 119.391 107.646C119.451 107.866 119.511 108.096 119.561 108.326C119.661 108.726 119.751 109.136 119.831 109.546C119.911 109.956 119.981 110.366 120.041 110.786C120.311 112.626 120.511 114.486 120.711 116.336C120.781 116.946 120.851 117.566 120.921 118.186Z" fill="white" fill-opacity="0.9"/>
<path d="M151.991 78.0963C151.991 79.3363 151.331 80.1464 150.391 80.2364C150.131 80.2664 149.871 80.2464 149.641 80.1764C149.561 80.1664 149.491 80.1464 149.421 80.1164C149.371 80.1064 149.321 80.0764 149.271 80.0564C149.221 80.0364 149.171 80.0064 149.121 79.9664C149.061 79.9464 149.011 79.9064 148.961 79.8664C148.881 79.8064 148.801 79.7364 148.731 79.6564C148.601 79.5064 148.491 79.3264 148.421 79.1264C148.391 79.0264 148.361 78.9164 148.341 78.8064C148.301 78.5464 148.251 78.2964 148.191 78.0464C148.091 77.5564 147.961 77.0664 147.811 76.5864C147.741 76.3464 147.661 76.1164 147.571 75.8864C147.491 75.6464 147.401 75.4164 147.311 75.1964C147.221 74.9664 147.121 74.7364 147.021 74.5164C146.921 74.2964 146.811 74.0764 146.701 73.8564C146.591 73.6364 146.481 73.4164 146.361 73.2064C146.011 72.5664 145.611 71.9464 145.181 71.3464C145.091 71.2164 144.991 71.0764 144.891 70.9464C144.801 70.8264 144.711 70.6964 144.611 70.5764C144.501 70.4364 144.391 70.3064 144.281 70.1664C144.121 69.9764 143.961 69.7864 143.801 69.5964C143.671 69.4464 143.541 69.2964 143.401 69.1464C143.201 68.9164 142.991 68.6964 142.781 68.4764C141.811 67.4864 140.781 66.5664 139.701 65.7264C139.251 65.3764 138.791 65.0364 138.321 64.7164C137.911 64.4164 137.501 64.1464 137.081 63.8864C136.931 63.7864 136.781 63.6864 136.621 63.6064C136.321 63.4064 136.001 63.2164 135.691 63.0464C135.571 62.9664 135.451 62.8964 135.321 62.8364C134.851 62.5664 134.381 62.3164 133.901 62.0664C133.511 61.8664 133.201 61.5964 132.981 61.2864C132.621 60.7764 132.531 60.1664 132.801 59.6164C132.951 59.3164 133.151 59.0664 133.391 58.8864C133.441 58.8364 133.491 58.8064 133.541 58.7664C133.701 58.6664 133.881 58.5864 134.061 58.5264C134.151 58.4964 134.231 58.4764 134.311 58.4664C134.681 58.4164 135.071 58.4664 135.421 58.6464C141.841 61.8964 147.181 66.2864 150.411 72.8864C150.571 73.2064 150.711 73.5264 150.841 73.8564C150.981 74.1764 151.101 74.5064 151.211 74.8364C151.591 75.9364 151.851 77.0464 151.991 78.0963Z" fill="white" fill-opacity="0.9"/>
</g>
</svg>
