<svg width="153" height="145" viewBox="-10 -10 173 165" fill="none" xmlns="http://www.w3.org/2000/svg">
<g opacity="0.4">
<path d="M151.979 47.74C151.979 46.48 151.359 45.5 150.079 45.14C149.569 44.99 148.999 44.99 148.449 44.97C147.509 44.95 147.509 44.97 147.509 44.04C147.509 36.29 147.509 28.53 147.499 20.78C147.499 20.36 147.489 19.91 147.349 19.52C146.879 18.27 145.919 17.72 144.599 17.72H109.359C108.369 17.72 108.359 17.72 108.359 16.74C108.359 12.21 108.369 7.66 108.339 3.13C108.339 2.55 108.269 1.92 108.019 1.42C107.479 0.36 106.499 0 105.319 0C86.6989 0.01 68.0689 0 49.4389 0C48.3789 0 47.3289 0 46.2689 0.01C45.3789 0.04 44.5789 0.39 44.1589 1.16C43.8589 1.71 43.6789 2.41 43.6789 3.05C43.6289 7.57 43.6489 12.09 43.6489 16.61C43.6489 16.79 43.6389 16.98 43.6489 17.16C43.6689 17.55 43.4589 17.71 43.0889 17.72H42.4189C30.8189 17.72 19.2189 17.74 7.60894 17.7C5.81894 17.69 4.44894 18.85 4.46894 20.8C4.53894 28.36 4.49894 35.91 4.49894 43.46C4.49894 44.46 3.98894 44.9633 2.96894 44.97H2.90894C1.18894 44.98 0.0189443 46.11 0.00894427 47.84C-0.00105573 51.56 -0.0110557 55.29 0.0289443 59.01C0.0289443 59.55 0.218944 60.15 0.498944 60.61C1.16894 61.76 2.31894 61.91 3.52894 61.88C4.49894 61.85 4.49894 61.88 4.49894 62.85V140.76C4.49894 141.11 4.42894 141.48 4.51894 141.8C4.66894 142.35 4.83894 142.94 5.16894 143.39C5.76894 144.21 6.69894 144.35 7.66894 144.35H143.979C144.289 144.35 144.609 144.41 144.899 144.33C145.429 144.18 145.999 144.04 146.459 143.73C147.339 143.15 147.519 142.23 147.509 141.22C147.499 115.31 147.509 89.39 147.509 63.48C147.509 62.4267 148.042 61.89 149.109 61.87C150.769 61.84 151.969 60.74 151.989 59.1C152.029 55.32 152.029 51.53 151.979 47.74ZM108.369 23.96C108.369 23.03 108.379 23.02 109.329 23.02H141.329C141.909 23.02 142.199 23.3133 142.199 23.9C142.199 30.66 142.199 37.42 142.219 44.17C142.219 44.79 142.039 44.98 141.419 44.98C136.039 44.96 130.669 44.97 125.299 44.97H109.289C108.389 44.97 108.369 44.94 108.369 44.05C108.359 37.35 108.359 30.65 108.369 23.96ZM48.8989 6.28C48.8989 5.63333 49.2323 5.31 49.8989 5.31H102.109C102.776 5.31 103.109 5.63 103.109 6.27V43.96C103.109 44.96 103.109 44.97 102.089 44.97H49.9289C48.8989 44.97 48.8989 44.96 48.8989 43.96V6.28ZM9.79894 23.84C9.79894 23.2933 10.0689 23.02 10.6089 23.02H42.7189C43.6089 23.02 43.6489 23.05 43.6489 23.94V44.15C43.6489 44.9 43.5989 44.96 42.8689 44.96C32.0789 44.97 21.2889 44.96 10.4989 44.98C9.92894 44.98 9.77894 44.77 9.78894 44.23C9.79894 37.43 9.78894 30.63 9.79894 23.84ZM127.249 138.17C127.249 139.04 127.249 139.05 126.369 139.05H87.9589C87.0689 139.05 87.0689 139.04 87.0689 138.12V82.07C87.0689 81.39 87.4023 81.05 88.0689 81.05H126.239C126.912 81.05 127.249 81.3867 127.249 82.06V138.17ZM142.199 62.91V138.03C142.199 138.22 142.189 138.4 142.199 138.58C142.219 138.92 142.059 139.05 141.729 139.05H133.049C132.699 139.05 132.509 138.92 132.529 138.55V137.88C132.529 118.25 132.519 98.63 132.529 79C132.529 78.03 132.419 77.06 131.579 76.49C131.019 76.11 130.299 75.81 129.629 75.79C127.299 75.71 124.949 75.75 122.609 75.75C110.029 75.75 97.449 75.76 84.8689 75.75C83.7489 75.75 82.7789 76.07 82.2389 77.08C81.9589 77.59 81.8289 78.24 81.8189 78.82C81.7889 83.4 81.799 87.98 81.799 92.56V138.49C81.8189 138.86 81.6689 139.07 81.2689 139.05C81.0889 139.04 80.8989 139.05 80.7189 139.05H10.7289C10.1023 139.05 9.78894 138.74 9.78894 138.12V62.82C9.78894 62.1867 10.1189 61.87 10.7789 61.87H140.989C141.219 61.87 141.439 61.89 141.669 61.87C142.059 61.85 142.229 62.04 142.199 62.43C142.189 62.59 142.199 62.75 142.199 62.91ZM146.059 56.57C145.869 56.57 145.689 56.57 145.499 56.57H6.49894C5.11894 56.57 5.30894 56.6 5.29894 55.34C5.28894 53.87 5.30894 52.41 5.28894 50.95C5.28894 50.44 5.46894 50.23 5.95894 50.26C6.18894 50.28 6.40894 50.26 6.62894 50.26H145.449C146.919 50.26 146.699 50.2 146.709 51.56C146.729 53.01 146.699 54.45 146.729 55.9C146.739 56.4 146.549 56.62 146.059 56.57Z" fill="white"/>
<path opacity="0.35" d="M141.669 61.87C141.439 61.89 141.219 61.87 140.989 61.87H10.7789C10.1189 61.87 9.78894 62.1867 9.78894 62.82V138.12C9.78894 138.74 10.1023 139.05 10.7289 139.05H80.7189C80.8989 139.05 81.0889 139.04 81.2689 139.05C81.6689 139.07 81.8189 138.86 81.7989 138.49V92.56C81.7989 87.98 81.7889 83.4 81.8189 78.82C81.8289 78.24 81.9589 77.59 82.2389 77.08C82.7789 76.07 83.7489 75.75 84.8689 75.75C97.4489 75.76 110.029 75.75 122.609 75.75C124.949 75.75 127.299 75.71 129.629 75.79C130.299 75.81 131.019 76.11 131.579 76.49C132.419 77.06 132.529 78.03 132.529 79C132.519 98.63 132.529 118.25 132.529 137.88V138.55C132.509 138.92 132.699 139.05 133.049 139.05H141.729C142.059 139.05 142.219 138.92 142.199 138.58C142.189 138.4 142.199 138.22 142.199 138.03V62.91C142.199 62.75 142.189 62.59 142.199 62.43C142.229 62.04 142.059 61.85 141.669 61.87ZM72.8689 118.01C72.8689 118.84 72.7289 119.59 72.1189 120.18C71.5289 120.77 70.8089 121.01 69.9689 121.01C63.3989 121 56.8189 121.01 50.2389 121.01H46.1489C38.2989 121.01 30.4389 120.97 22.5789 121.03C20.6289 121.04 19.3589 119.77 19.3689 117.85C19.4089 104.88 19.4089 91.92 19.3689 78.95C19.3589 76.89 20.6989 75.74 22.5589 75.74C38.2989 75.77 54.0289 75.76 69.7689 75.74C71.0489 75.74 72.0989 76.14 72.6389 77.37C72.8189 77.78 72.8589 78.28 72.8589 78.73C72.8689 83.56 72.8689 88.38 72.8689 93.2C72.8689 101.47 72.8589 109.74 72.8689 118V118.01Z" fill="white"/>
<path opacity="0.85" d="M127.249 82.06V138.17C127.249 139.04 127.249 139.05 126.369 139.05H87.959C87.069 139.05 87.069 139.04 87.069 138.12V82.07C87.069 81.39 87.4023 81.05 88.069 81.05H126.239C126.912 81.05 127.249 81.3867 127.249 82.06Z" fill="white"/>
<path d="M72.859 78.74C72.859 78.29 72.819 77.79 72.639 77.38C72.099 76.15 71.049 75.75 69.769 75.75C54.029 75.76 38.299 75.77 22.559 75.75C20.699 75.75 19.359 76.9 19.369 78.96C19.409 91.93 19.409 104.89 19.369 117.86C19.359 119.78 20.629 121.05 22.579 121.04C30.439 120.98 38.299 121.02 46.149 121.02H50.239C56.819 121.02 63.399 121.01 69.969 121.02C70.809 121.02 71.529 120.78 72.119 120.19C72.729 119.6 72.869 118.85 72.869 118.02C72.859 109.76 72.869 101.49 72.869 93.22C72.869 88.4 72.869 83.58 72.859 78.75V78.74ZM67.569 114.86C67.569 115.7 67.559 115.7 66.709 115.7H25.609C24.699 115.7 24.689 115.7 24.689 114.81V82.02C24.689 81.05 24.699 81.05 25.649 81.05H66.639C67.559 81.05 67.569 81.05 67.569 82V114.86Z" fill="white"/>
<path opacity="0.85" d="M66.639 81.05H25.649C24.699 81.05 24.689 81.05 24.689 82.02V114.81C24.689 115.7 24.699 115.7 25.609 115.7H66.709C67.559 115.7 67.569 115.7 67.569 114.86V82C67.569 81.05 67.559 81.05 66.639 81.05ZM53.889 104.65C53.139 105.96 51.989 106.66 50.419 106.58C49.549 106.54 48.799 106.22 48.169 105.64C47.349 104.89 46.589 104.07 45.799 103.29C45.569 103.06 45.459 102.84 45.739 102.56C47.269 101.03 48.809 99.49 50.349 97.97C50.429 97.88 50.539 97.83 50.759 97.69C51.779 98.8 52.859 99.82 53.759 100.98C54.629 102.1 54.599 103.43 53.889 104.65ZM41.429 98.88C40.399 97.82 39.359 96.77 38.429 95.63C38.069 95.19 38.009 94.51 37.889 94.16C37.999 92.45 38.629 91.29 39.959 90.62C41.419 89.87 42.839 90.05 44.089 91.13C44.929 91.85 45.669 92.69 46.469 93.47C46.779 93.77 46.789 94.05 46.469 94.35C44.979 95.82 43.519 97.31 42.019 98.77C41.889 98.89 41.499 98.96 41.419 98.88H41.429Z" fill="white"/>
<path d="M123.339 113.84C123.299 115.3 121.969 116.46 120.569 116.36C119.259 116.27 118.019 115.2 118.069 113.65C118.109 112.45 118.069 111.25 118.069 110.05C118.069 108.85 118.099 107.65 118.069 106.45C118.029 104.9 119.259 103.81 120.639 103.74C122.009 103.67 123.299 104.84 123.339 106.27C123.399 108.79 123.399 111.31 123.339 113.83V113.84Z" fill="white"/>
<path d="M89.0289 17.2C87.6189 17.25 86.2189 17.21 84.8089 17.2C84.0989 17.2 83.9889 17.1 83.9789 16.4C83.9689 14.99 83.9889 13.59 83.9689 12.18C83.9389 10.33 82.8289 9.25 80.9789 9.25C77.6589 9.25 74.3389 9.25 71.0289 9.25C69.0989 9.25 67.9989 10.34 67.9889 12.26C67.9789 13.63 67.9889 14.99 67.9889 16.35C67.9889 17.1 67.8889 17.2 67.1489 17.2C65.7689 17.2 64.3789 17.25 62.9989 17.19C61.0589 17.11 60.0489 18.72 60.0789 20.13C60.1289 23.41 60.1389 26.68 60.0789 29.96C60.0389 31.95 61.2989 33.22 63.2789 33.16C64.5989 33.12 65.9189 33.17 67.2489 33.14C67.8089 33.13 68.0089 33.35 67.9989 33.9C67.9789 35.35 67.9689 36.79 67.9989 38.24C68.0289 39.92 69.1589 41.01 70.8289 41.02C72.5389 41.02 74.2489 41.02 75.9489 41.02C77.6489 41.02 79.2089 40.96 80.8389 41.04C82.6889 41.12 84.0589 39.93 83.9889 37.87C83.9489 36.55 83.9889 35.22 83.9689 33.9C83.9589 33.34 84.1789 33.14 84.7289 33.15C86.1389 33.18 87.5389 33.17 88.9489 33.15C90.7389 33.13 91.8789 31.99 91.8889 30.2C91.8989 26.82 91.8789 23.44 91.8989 20.06C91.8989 18.62 90.8689 17.13 89.0289 17.19V17.2ZM86.5989 27.2C86.5989 27.68 86.4489 27.9 85.9289 27.88C85.1389 27.85 84.3389 27.87 83.5489 27.87C82.8189 27.87 82.0889 27.86 81.3489 27.88C79.7789 27.92 78.7689 28.91 78.7389 30.49C78.7089 32 78.7089 33.5 78.7389 35.01C78.7489 35.54 78.5589 35.74 78.0389 35.73C76.6689 35.71 75.3089 35.71 73.9489 35.73C73.4289 35.74 73.2389 35.54 73.2489 35.01C73.2789 33.57 73.2089 32.12 73.2689 30.67C73.3289 29.04 72.0589 27.79 70.4489 27.86C68.9889 27.92 67.5189 27.86 66.0489 27.88C65.5789 27.88 65.3989 27.72 65.3989 27.25C65.4189 25.87 65.4189 24.48 65.3989 23.1C65.3989 22.62 65.5889 22.46 66.0589 22.47C67.4989 22.49 68.9489 22.47 70.3989 22.47C71.5389 22.47 72.4989 22.08 72.9889 21C73.1789 20.59 73.2389 20.1 73.2489 19.64C73.2889 18.21 73.2589 16.79 73.2689 15.36C73.2689 14.6 73.3289 14.55 74.0589 14.54C75.3789 14.54 76.6989 14.55 78.0289 14.54C78.5489 14.53 78.7589 14.74 78.7489 15.26C78.7289 16.72 78.7289 18.19 78.7489 19.66C78.7689 21.4 79.7489 22.42 81.4989 22.46C82.9489 22.49 84.3889 22.49 85.8389 22.46C86.4189 22.45 86.6289 22.65 86.6189 23.23C86.5789 24.55 86.5889 25.88 86.6189 27.2H86.5989Z" fill="white"/>
<path d="M57.059 96.63C54.099 93.54 51.029 90.55 47.989 87.53C46.509 86.05 44.699 85.2 42.649 84.97C38.419 84.51 34.269 87.11 33.099 91.27C32.159 94.63 32.809 97.66 35.249 100.17C38.229 103.25 41.279 106.27 44.329 109.27C46.069 110.99 48.199 111.84 50.679 111.97C51.649 111.77 52.659 111.7 53.579 111.37C56.289 110.38 58.209 108.55 59.109 105.77C60.209 102.33 59.539 99.23 57.059 96.63ZM42.029 98.77C41.899 98.89 41.509 98.96 41.429 98.88C40.399 97.82 39.359 96.77 38.429 95.63C38.069 95.19 38.009 94.51 37.889 94.16C37.999 92.45 38.629 91.29 39.959 90.62C41.419 89.87 42.839 90.05 44.089 91.13C44.929 91.85 45.669 92.69 46.469 93.47C46.779 93.77 46.789 94.05 46.469 94.35C44.979 95.82 43.519 97.31 42.019 98.77H42.029ZM53.889 104.65C53.139 105.96 51.989 106.66 50.419 106.58C49.549 106.54 48.799 106.22 48.169 105.64C47.349 104.89 46.589 104.07 45.799 103.29C45.569 103.06 45.459 102.84 45.739 102.56C47.269 101.03 48.809 99.49 50.349 97.97C50.429 97.88 50.539 97.83 50.759 97.69C51.779 98.8 52.859 99.82 53.759 100.98C54.629 102.1 54.599 103.43 53.889 104.65Z" fill="white"/>
<path opacity="0.35" d="M53.8889 104.65C53.1389 105.96 51.9889 106.66 50.4189 106.58C49.5489 106.54 48.7989 106.22 48.1689 105.64C47.3489 104.89 46.5889 104.07 45.7989 103.29C45.5689 103.06 45.4589 102.84 45.7389 102.56C47.2689 101.03 48.8089 99.49 50.3489 97.97C50.4289 97.88 50.5389 97.83 50.7589 97.69C51.7789 98.8 52.8589 99.82 53.7589 100.98C54.6289 102.1 54.5989 103.43 53.8889 104.65Z" fill="white"/>
<path opacity="0.35" d="M46.4789 94.35C44.9889 95.82 43.5289 97.31 42.0289 98.77C41.8989 98.89 41.5089 98.96 41.4289 98.88C40.3989 97.82 39.3589 96.77 38.4289 95.63C38.0689 95.19 38.0089 94.51 37.8889 94.16C37.9989 92.45 38.6289 91.29 39.9589 90.62C41.4189 89.87 42.8389 90.05 44.0889 91.13C44.9289 91.85 45.6689 92.69 46.4689 93.47C46.7789 93.77 46.7889 94.05 46.4689 94.35H46.4789Z" fill="white"/>
</g>
</svg>
