<svg version="1.1" viewBox="0 0 351 236" xmlns="http://www.w3.org/2000/svg" xmlns:xlink="http://www.w3.org/1999/xlink"><title>2_multimedia</title><defs><path id="d" d="m106 212c-58.542 0-106-47.458-106-106s47.458-106 106-106 106 47.458 106 106-47.458 106-106 106zm0-61.653c24.492 0 44.347-19.855 44.347-44.347s-19.855-44.347-44.347-44.347-44.347 19.855-44.347 44.347 19.855 44.347 44.347 44.347z"/><mask id="c" fill="white"><use width="100%" height="100%" xlink:href="#d"/></mask></defs><path d="m34 109.66v-51.311l54-11.354v67.055h-.0072c.0048.14766.0072.29592.0072.44474 0 7.4558-6.0442 13.5-13.5 13.5s-13.5-6.0442-13.5-13.5 6.0442-13.5 13.5-13.5c2.1553 0 4.1926.50506 6 1.4033l-1e-6-46.142-39 8.2003v6.6132l36.75-8.1628v7.521l-36.75 7.8489v43.718h-.50909c-.26303 7.2242-6.2025 13-13.491 13-7.4558 0-13.5-6.0442-13.5-13.5s6.0442-13.5 13.5-13.5c2.3564 0 4.5718.60374 6.5 1.665z" fill="#fff" fill-opacity=".4" fill-rule="evenodd"/><rect x="50" y="88" width="192" height="121" fill="#fff" fill-opacity=".2" fill-rule="evenodd"/><rect x="118" y="211" width="57" height="9" fill="#fff" fill-opacity=".2" fill-rule="evenodd"/><polygon transform="translate(50,88)" points="36.884 136 156.48 136 164 148 28 148" fill="#fff" fill-opacity=".4" fill-rule="evenodd"/><path d="m50 88h192v121h-192zm8.8826 9.1206v102.76h174.23v-102.76z" fill="#fff" fill-opacity=".4" fill-rule="evenodd"/><path d="m304 182c-65.17 0-118-52.83-118-118s52.83-118 118-118 118 52.83 118 118-52.83 118-118 118zm0-83.491c19.059 0 34.509-15.45 34.509-34.509s-15.45-34.509-34.509-34.509-34.509 15.45-34.509 34.509 15.45 34.509 34.509 34.509z" fill="#fff" fill-opacity=".2" fill-rule="evenodd"/><use transform="translate(199,-43)" width="100%" height="100%" fill="#ffffff" fill-opacity=".2" fill-rule="evenodd" xlink:href="#d"/><polygon transform="rotate(65,182.38,262.71)" points="98.347 193.46 -.082033 193.46 49.132 62.587" fill="#fff" fill-opacity=".2" fill-rule="evenodd" mask="url(#c)"/><polygon transform="rotate(248 251.72 -5.4895)" points="215.94 148.56 117.51 148.56 166.72 17.685" fill="#fff" fill-opacity=".2" fill-rule="evenodd" mask="url(#c)"/></svg>
