<?xml version="1.0" encoding="UTF-8"?>
<svg width="351px" height="236px" viewBox="0 0 351 236" version="1.1" xmlns="http://www.w3.org/2000/svg"
     xmlns:xlink="http://www.w3.org/1999/xlink">
    <title>2_multimedia</title>
    <defs>
        <path d="M106,212 C47.4578165,212 0,164.542183 0,106 C0,47.4578165 47.4578165,0 106,0 C164.542183,0 212,47.4578165 212,106 C212,164.542183 164.542183,212 106,212 Z M106,150.346939 C130.492138,150.346939 150.346939,130.492138 150.346939,106 C150.346939,81.507862 130.492138,61.6530612 106,61.6530612 C81.507862,61.6530612 61.6530612,81.507862 61.6530612,106 C61.6530612,130.492138 81.507862,150.346939 106,150.346939 Z"
              id="path-1"></path>
    </defs>
    <g id="Page-1" stroke="none" stroke-width="1" fill="none" fill-rule="evenodd">
        <g id="2_multimedia" transform="translate(14.000000, -54.000000)">
            <path d="M20,163.664973 L20,112.354316 L74,101 L74,168.055259 L73.9928125,168.055259 C73.9975919,168.202919 74,168.351178 74,168.5 C74,175.955844 67.9558441,182 60.5,182 C53.0441559,182 47,175.955844 47,168.5 C47,161.044156 53.0441559,155 60.5,155 C62.6552627,155 64.6925624,155.505059 66.5000011,156.40328 L66.5,110.261561 L27.5,118.461901 L27.5,125.075135 L64.25,116.912313 L64.25,124.433334 L27.5,132.282259 L27.5,176 L26.9909123,176 C26.7278863,183.2242 20.7884484,189 13.5,189 C6.04415588,189 0,182.955844 0,175.5 C0,168.044156 6.04415588,162 13.5,162 C15.8564262,162 18.0718415,162.60374 20,163.664973 Z"
                  id="Combined-Shape" fill-opacity="0.4" fill="#FFFFFF"></path>
            <g id="Group-6" transform="translate(36.000000, 142.000000)" fill="#FFFFFF">
                <rect id="Rectangle" fill-opacity="0.2" x="0" y="0" width="192" height="121"></rect>
                <rect id="Rectangle-Copy-15" fill-opacity="0.2" x="68" y="123" width="57" height="9"></rect>
                <polygon id="Rectangle-Copy-16" fill-opacity="0.4"
                         points="36.8844221 136 156.482412 136 164 148 28 148"></polygon>
                <path d="M0,0 L192,0 L192,121 L0,121 L0,0 Z M8.88256228,9.12060302 L8.88256228,111.879397 L183.117438,111.879397 L183.117438,9.12060302 L8.88256228,9.12060302 Z"
                      id="Combined-Shape" fill-opacity="0.4"></path>
            </g>
            <g id="2_cd" transform="translate(172.000000, 0.000000)">
                <path d="M118,236 C52.8303995,236 0,183.1696 0,118 C0,52.8303995 52.8303995,0 118,0 C183.1696,0 236,52.8303995 236,118 C236,183.1696 183.1696,236 118,236 Z M118,152.509434 C137.059034,152.509434 152.509434,137.059034 152.509434,118 C152.509434,98.9409659 137.059034,83.490566 118,83.490566 C98.9409659,83.490566 83.490566,98.9409659 83.490566,118 C83.490566,137.059034 98.9409659,152.509434 118,152.509434 Z"
                      id="Combined-Shape" fill-opacity="0.2" fill="#FFFFFF"></path>
                <g id="Triangle" transform="translate(13.000000, 11.000000)">
                    <mask id="mask-2" fill="white">
                        <use xlink:href="#path-1"></use>
                    </mask>
                    <use id="Mask" fill-opacity="0.2" fill="#FFFFFF" xlink:href="#path-1"></use>
                    <polygon fill-opacity="0.2" fill="#FFFFFF" mask="url(#mask-2)"
                             transform="translate(49.132253, 128.026151) rotate(65.000000) translate(-49.132253, -128.026151) "
                             points="49.132253 62.5873753 98.3465387 193.464926 -0.0820327281 193.464926"></polygon>
                    <polygon id="Triangle-Copy" fill-opacity="0.2" fill="#FFFFFF" mask="url(#mask-2)"
                             transform="translate(166.722017, 83.124080) rotate(-112.000000) translate(-166.722017, -83.124080) "
                             points="166.722017 17.6853042 215.936303 148.562855 117.507731 148.562855"></polygon>
                </g>
            </g>
        </g>
    </g>
</svg>