<svg version="1.1" viewBox="0 0 432 328" xmlns="http://www.w3.org/2000/svg"><title>3_sport</title><path d="m280.88 194.79h55.478c2.7249.0259 5.0942-1.8702 5.6757-4.542l8.4113-38.648 9.5516 96.195c.65465 6.593 10.054 7.0678 11.365.57411l11.88-58.845 4.9159 16.46c1.5555 5.2083 8.7671 5.5693 10.831.54223l6.7566-16.455 65.1.15405c-22.593 28.081-55.997 61.244-100.39 99.347-38.444-35.928-68.261-67.553-89.578-94.782zm-8.756-11.593c-31.005-42.684-39.063-73.437-24.738-91.843 25.041-32.174 64.265-27.217 119.98 17.147l3.2038 2.551 3.4367-2.2211c61.461-39.722 102.95-42.256 126.51-9.6586 12.288 17 5.554 43.545-20.627 79.29l-78.002.0589c-2.331 0-4.4316 1.4114-5.3198 3.5743l-2.0475 4.9863-6.853-22.946c-1.7188-5.7549-9.962-5.377-11.151.51123l-8.8596 43.883-9.3666-94.332c-.64966-6.5428-9.9487-7.0833-11.347-.65962l-15.16 69.657zm97.66 139.8c-131.52-120.28-179.76-202.72-144.73-247.31 35.028-44.594 83.538-43.56 145.53 3.1011 69.644-41.606 120.91-39.864 153.81 5.2268 32.894 45.09-18.64 124.75-154.6 238.98zm140-230.64c-27.552-38.117-74.372-35.952-138.52 4.5418-58.487-45.483-103.51-50.432-132.89-12.688-30.373 39.025 13.259 110.77 128.04 217.33l3.7187 3.4523 3.8598-3.2909c118.18-100.77 164.38-169.79 135.79-209.35z" fill="#fff" fill-opacity=".2" fill-rule="evenodd"/><path d="m73.5 180.5h17c4.432 0 8 3.568 8 8v92c0 4.432-3.568 8-8 8h-17c-4.432 0-8-3.568-8-8v-92c0-4.432 3.568-8 8-8z" fill="#fff" fill-opacity=".4" fill-rule="evenodd"/><path d="m98.5 223.5h122v23h-122z" fill="#fff" fill-opacity=".2" fill-rule="evenodd"/><path d="m9.5 222.5h18v23h-18z" fill="#fff" fill-opacity=".2" fill-rule="evenodd"/><path d="m291.5 223.5h18v23h-18z" fill="#fff" fill-opacity=".2" fill-rule="evenodd"/><path d="m228.5 181.5h17c4.432 0 8 3.568 8 8v92c0 4.432-3.568 8-8 8h-17c-4.432 0-8-3.568-8-8v-92c0-4.432 3.568-8 8-8z" fill="#fff" fill-opacity=".4" fill-rule="evenodd"/><path d="m266.5 199.5h17c4.432 0 8 3.568 8 8v56c0 4.432-3.568 8-8 8h-17c-4.432 0-8-3.568-8-8v-56c0-4.432 3.568-8 8-8z" fill="#fff" fill-opacity=".4" fill-rule="evenodd"/><path d="m35.5 198.5h17c4.432 0 8 3.568 8 8v56c0 4.432-3.568 8-8 8h-17c-4.432 0-8-3.568-8-8v-56c0-4.432 3.568-8 8-8z" fill="#fff" fill-opacity=".4" fill-rule="evenodd"/></svg>
