<?xml version="1.0" encoding="UTF-8"?>
<svg width="432px" height="328px" viewBox="0 0 432 328" version="1.1" xmlns="http://www.w3.org/2000/svg"
     xmlns:xlink="http://www.w3.org/1999/xlink">
    <title>3_sport</title>
    <g id="Page-1" stroke="none" stroke-width="1" fill="none" fill-rule="evenodd">
        <g id="3_sport" transform="translate(-329.000000, 43.000000)" fill="#FFFFFF">
            <path d="M609.881227,151.793038 L665.359613,151.793038 C668.084512,151.818905 670.453807,149.922854 671.035297,147.251014 L679.446621,108.602556 L688.998246,204.797531 C689.652897,211.390566 699.051845,211.865376 700.362872,205.371642 L712.24317,146.526562 L717.159114,162.986592 C718.714622,168.194894 725.926187,168.555911 727.99042,163.528817 L734.746999,147.074296 L799.846567,147.228349 C777.253244,175.309007 743.849293,208.472075 699.45939,246.575235 C661.01561,210.647516 631.198528,179.022256 609.881227,151.793038 Z M601.125239,140.200153 C570.12008,97.5162028 562.062461,66.7632041 576.387547,48.357641 C601.428515,16.1837963 640.652518,21.1401808 696.371653,65.5047755 L699.575485,68.0557248 L703.012156,65.8346089 C764.472971,26.1125668 805.961171,23.5790356 829.523592,56.1759851 C841.811751,73.1757866 835.077575,99.7207846 808.896588,135.466416 L730.894922,135.525298 C728.563949,135.525298 726.463282,136.936727 725.575147,139.099629 L723.527649,144.085971 L716.674602,121.139948 C714.95585,115.385059 706.712646,115.762986 705.523873,121.651176 L696.664219,165.534508 L687.297591,71.2026355 C686.647932,64.6598817 677.348935,64.1193066 675.950898,70.5430224 L660.790948,140.200153 L601.125239,140.200153 Z M698.785267,280 C567.267437,159.719313 519.022595,77.2819273 554.050742,32.6878421 C589.078888,-11.9062431 637.588668,-10.8725282 699.580082,35.7889869 C769.224521,-5.81693545 820.493845,-4.07466139 853.388055,41.0158091 C886.282266,86.1062797 834.748003,165.767677 698.785267,280 Z M838.78289,49.3625767 C811.230457,11.2457263 764.410497,13.4103761 700.264556,53.9043605 C641.777388,8.42096128 596.750503,3.47229103 567.374224,41.2163535 C537.000756,80.2416518 580.632999,151.984216 695.418026,258.547664 L699.136717,262 L702.996478,258.709057 C821.180713,157.941783 867.372429,88.9141909 838.78289,49.3625767 Z"
                  id="Combined-Shape" fill-opacity="0.2"></path>
            <g id="Group-10" transform="translate(338.500000, 137.500000)">
                <rect id="Rectangle" fill-opacity="0.4" x="56" y="0" width="33" height="108" rx="8"></rect>
                <rect id="Rectangle-Copy-24" fill-opacity="0.2" x="89" y="43" width="122" height="23"></rect>
                <rect id="Rectangle-Copy-25" fill-opacity="0.2" x="0" y="42" width="18" height="23"></rect>
                <rect id="Rectangle-Copy-26" fill-opacity="0.2" x="282" y="43" width="18" height="23"></rect>
                <rect id="Rectangle-Copy-9" fill-opacity="0.4" x="211" y="1" width="33" height="108" rx="8"></rect>
                <rect id="Rectangle-Copy-22" fill-opacity="0.4" x="249" y="19" width="33" height="72" rx="8"></rect>
                <rect id="Rectangle-Copy-23" fill-opacity="0.4" x="18" y="18" width="33" height="72" rx="8"></rect>
            </g>
        </g>
    </g>
</svg>