<?xml version="1.0" encoding="UTF-8"?>
<svg width="355px" height="349px" viewBox="0 0 355 349" version="1.1" xmlns="http://www.w3.org/2000/svg"
     xmlns:xlink="http://www.w3.org/1999/xlink">
    <title>4_kultur</title>
    <g id="Page-1" stroke="none" stroke-width="1" fill="none" fill-rule="evenodd">
        <g id="4_kultur" transform="translate(-46.000000, -4.000000)">
            <rect id="Rectangle" x="0" y="0" width="401" height="351"></rect>
            <path d="M208,44 L366,148 L50,148 L208,44 Z M208.5,122 C217.060414,122 224,114.388841 224,105 C224,95.6111593 217.060414,88 208.5,88 C199.939586,88 193,95.6111593 193,105 C193,114.388841 199.939586,122 208.5,122 Z"
                  id="Combined-Shape" fill-opacity="0.2" fill="#FFFFFF"></path>
            <circle id="Oval-Copy-16" stroke-opacity="0.4" stroke="#FFFFFF" stroke-width="10" cx="208" cy="105"
                    r="21"></circle>
            <polygon id="Triangle" stroke-opacity="0.2" stroke="#FFFFFF" stroke-width="10"
                     points="208 49 349 143 67 143"></polygon>
            <rect id="Rectangle" fill-opacity="0.4" fill="#FFFFFF" x="56" y="320.5" width="306" height="31"></rect>
            <g id="Group-3" transform="translate(77.000000, 187.000000)" fill="#FFFFFF">
                <rect id="Rectangle-Copy-2" fill-opacity="0.2" x="16" y="25" width="7" height="78.0487805"></rect>
                <rect id="Rectangle-Copy-3" fill-opacity="0.2" x="27" y="25" width="7" height="78.0487805"></rect>
                <rect id="Rectangle-Copy-4" fill-opacity="0.2" x="38" y="25" width="7" height="78.0487805"></rect>
                <rect id="Rectangle-Copy-10" fill-opacity="0.2" x="16" y="19.7723577" width="29"
                      height="88.4552846"></rect>
                <rect id="Rectangle-Copy-11" fill-opacity="0.4"
                      transform="translate(31.000000, 5.044715) scale(1, -1) translate(-31.000000, -5.044715) " x="0"
                      y="0.317073171" width="62" height="9.45528455"></rect>
                <rect id="Rectangle-Copy-12" fill-opacity="0.4"
                      transform="translate(31.000000, 123.044715) scale(1, -1) translate(-31.000000, -123.044715) "
                      x="0" y="118.317073" width="62" height="9.45528455"></rect>
                <polygon id="Rectangle-Copy-5" fill-opacity="0.2"
                         points="8.71521625 108.227642 52.2236036 108.227642 61.7742252 128 0.225774816 128"></polygon>
                <polygon id="Rectangle-Copy-6" fill-opacity="0.2"
                         points="8.48944143 19.7723577 -2.84217094e-14 0 61.5484504 0 51.9978288 19.7723577"></polygon>
            </g>
            <g id="Group-3-Copy" transform="translate(177.000000, 187.000000)" fill="#FFFFFF">
                <rect id="Rectangle-Copy-2" fill-opacity="0.2" x="16" y="25" width="7" height="78.0487805"></rect>
                <rect id="Rectangle-Copy-3" fill-opacity="0.2" x="27" y="25" width="7" height="78.0487805"></rect>
                <rect id="Rectangle-Copy-4" fill-opacity="0.2" x="38" y="25" width="7" height="78.0487805"></rect>
                <rect id="Rectangle-Copy-10" fill-opacity="0.2" x="16" y="19.7723577" width="29"
                      height="88.4552846"></rect>
                <rect id="Rectangle-Copy-11" fill-opacity="0.4"
                      transform="translate(31.000000, 5.044715) scale(1, -1) translate(-31.000000, -5.044715) " x="0"
                      y="0.317073171" width="62" height="9.45528455"></rect>
                <rect id="Rectangle-Copy-12" fill-opacity="0.4"
                      transform="translate(31.000000, 123.044715) scale(1, -1) translate(-31.000000, -123.044715) "
                      x="0" y="118.317073" width="62" height="9.45528455"></rect>
                <polygon id="Rectangle-Copy-5" fill-opacity="0.2"
                         points="8.71521625 108.227642 52.2236036 108.227642 61.7742252 128 0.225774816 128"></polygon>
                <polygon id="Rectangle-Copy-6" fill-opacity="0.2"
                         points="8.48944143 19.7723577 -2.84217094e-14 0 61.5484504 0 51.9978288 19.7723577"></polygon>
            </g>
            <g id="Group-3-Copy-2" transform="translate(277.000000, 187.000000)" fill="#FFFFFF">
                <rect id="Rectangle-Copy-2" fill-opacity="0.2" x="16" y="25" width="7" height="78.0487805"></rect>
                <rect id="Rectangle-Copy-3" fill-opacity="0.2" x="27" y="25" width="7" height="78.0487805"></rect>
                <rect id="Rectangle-Copy-4" fill-opacity="0.2" x="38" y="25" width="7" height="78.0487805"></rect>
                <rect id="Rectangle-Copy-10" fill-opacity="0.2" x="16" y="19.7723577" width="29"
                      height="88.4552846"></rect>
                <rect id="Rectangle-Copy-11" fill-opacity="0.4"
                      transform="translate(31.000000, 5.044715) scale(1, -1) translate(-31.000000, -5.044715) " x="0"
                      y="0.317073171" width="62" height="9.45528455"></rect>
                <rect id="Rectangle-Copy-12" fill-opacity="0.4"
                      transform="translate(31.000000, 123.044715) scale(1, -1) translate(-31.000000, -123.044715) "
                      x="0" y="118.317073" width="62" height="9.45528455"></rect>
                <polygon id="Rectangle-Copy-5" fill-opacity="0.2"
                         points="8.71521625 108.227642 52.2236036 108.227642 61.7742252 128 0.225774816 128"></polygon>
                <polygon id="Rectangle-Copy-6" fill-opacity="0.2"
                         points="8.48944143 19.7723577 -2.84217094e-14 0 61.5484504 0 51.9978288 19.7723577"></polygon>
            </g>
            <rect id="Rectangle-Copy" fill-opacity="0.2" fill="#FFFFFF" x="56" y="153" width="306" height="29"></rect>
            <rect id="Rectangle-Copy-7" fill-opacity="0.4" fill="#FFFFFF" x="66" y="153" width="285" height="14"></rect>
        </g>
    </g>
</svg>