<svg version="1.1" viewBox="0 0 391 374" xmlns="http://www.w3.org/2000/svg"><title>5_finanzen</title><path d="M 458,167.5 A 139.5,140.5 0 0 1 318.5,308 139.5,140.5 0 0 1 179,167.5 139.5,140.5 0 0 1 318.5,27 139.5,140.5 0 0 1 458,167.5 Z" fill="#fff" fill-opacity=".1" fill-rule="evenodd" stroke="#fff" stroke-opacity=".2" stroke-width="10"/><path d="m274.15 156.3c-.1.7 0 4.15.3 10.35h76.35v9.9h-74.85c2.4 9.3 7.825 16.95 16.275 22.95s18.125 9 29.025 9c15.2 0 27.85-5.8999 37.95-17.7l8.4 6.45c-5.3 7-12 12.325-20.1 15.975s-17.05 5.475-26.85 5.475c-14.2 0-26.475-3.9-36.825-11.7s-16.825-17.95-19.425-30.45h-10.2v-9.9h9c-.1-.6-.3-4.05-.6-10.35h-8.85v-9.9h10.2c3-11.6 9.75-21.3 20.25-29.1s22.6-11.7 36.3-11.7c9.8 0 18.8 1.95 27 5.85s14.9 9.5 20.1 16.8l-8.4 6.45c-10-12.4-22.85-18.6-38.55-18.6-10 0-19.2 2.95-27.6 8.85s-14.1 13.05-17.1 21.45h74.4v9.9z" fill="#fff" fill-rule="evenodd" opacity=".4"/><path d="m54 231h161c11.634 0 21 9.366 21 21v74c0 11.634-9.366 21-21 21h-161c-11.634 0-21-9.366-21-21v-74c0-11.634 9.366-21 21-21z" fill="#fff" fill-opacity=".1" fill-rule="evenodd" stroke="#fff" stroke-opacity=".2" stroke-width="10"/><path d="m150.42 292c.37501-.92643.58152-1.9391.58152-3 0-4.4183-3.5817-8-8-8h-16c-4.4183 0-8 3.5817-8 8 0 1.0609.20651 2.0736.58152 3h-70.582c-11.598 0-21-9.402-21-21v-24c0-11.598 9.402-21 21-21h171c11.598 0 21 9.402 21 21v24c0 11.598-9.402 21-21 21z" fill="#fff" fill-opacity=".2" fill-rule="evenodd"/><path d="m125.5 277.5h19c5.54 0 10 4.46 10 10v3c0 5.54-4.46 10-10 10h-19c-5.54 0-10-4.46-10-10v-3c0-5.54 4.46-10 10-10z" fill="none" stroke="#fff" stroke-opacity=".2" stroke-width="7"/><path d="m180.2 225.48v-10.065c0-3.7056-3.0433-6.7097-6.7974-6.7097h-76.81c-3.7541 0-6.7974 3.004-6.7974 6.7097v10.065m-6.7974 0v-10.065c0-7.4113 6.0866-13.419 13.595-13.419h76.81c7.5082 0 13.595 6.008 13.595 13.419v10.065" fill="#fff" fill-opacity=".4"/></svg>
