<?xml version="1.0" encoding="UTF-8"?>
<svg width="391px" height="374px" viewBox="0 0 391 374" version="1.1" xmlns="http://www.w3.org/2000/svg"
     xmlns:xlink="http://www.w3.org/1999/xlink">
    <title>5_finanzen</title>
    <g id="Page-1" stroke="none" stroke-width="1" fill="none" fill-rule="evenodd">
        <g id="5_finanzen" transform="translate(28.000000, 32.000000)">
            <ellipse id="Oval" stroke-opacity="0.2" stroke="#FFFFFF" stroke-width="10" fill-opacity="0.1" fill="#FFFFFF"
                     cx="290.5" cy="135.5" rx="139.5" ry="140.5"></ellipse>
            <path d="M246.15,124.3 C246.05,125.000004 246.149999,128.449969 246.45,134.65 L322.8,134.65 L322.8,144.55 L247.95,144.55 C250.350012,153.850046 255.774958,161.49997 264.225,167.5 C272.675042,173.50003 282.349945,176.5 293.25,176.5 C308.450076,176.5 321.099949,170.600059 331.2,158.8 L339.6,165.25 C334.299973,172.250035 327.60004,177.574982 319.5,181.225 C311.39996,184.875018 302.450049,186.7 292.65,186.7 C278.449929,186.7 266.175052,182.800039 255.825,175 C245.474948,167.199961 239.000013,157.050062 236.4,144.55 L226.2,144.55 L226.2,134.65 L235.2,134.65 C235.099999,134.049997 234.900002,130.600032 234.6,124.3 L225.75,124.3 L225.75,114.4 L235.95,114.4 C238.950015,102.799942 245.699948,93.100039 256.2,85.3 C266.700052,77.499961 278.799932,73.6 292.5,73.6 C302.300049,73.6 311.299959,75.5499805 319.5,79.45 C327.700041,83.3500195 334.399974,88.9499635 339.6,96.25 L331.2,102.7 C321.19995,90.299938 308.350078,84.1 292.65,84.1 C282.64995,84.1 273.450042,87.0499705 265.05,92.95 C256.649958,98.8500295 250.950015,105.999958 247.95,114.4 L322.35,114.4 L322.35,124.3 L246.15,124.3 Z"
                  id="€" fill="#FFFFFF" opacity="0.4"></path>
            <g id="Group-11" transform="translate(0.000000, 170.000000)">
                <rect id="Rectangle" stroke-opacity="0.2" stroke="#FFFFFF" stroke-width="10" fill-opacity="0.1"
                      fill="#FFFFFF" x="5" y="29" width="203" height="116" rx="21"></rect>
                <path d="M122.418483,90 C122.793493,89.0735686 123,88.0609004 123,87 C123,82.581722 119.418278,79 115,79 L99,79 C94.581722,79 91,82.581722 91,87 C91,88.0609004 91.2065071,89.0735686 91.581517,90 L21,90 C9.40202025,90 1.42034288e-15,80.5979797 0,69 L0,45 C-1.42034288e-15,33.4020203 9.40202025,24 21,24 L192,24 C203.59798,24 213,33.4020203 213,45 L213,69 C213,80.5979797 203.59798,90 192,90 L122.418483,90 Z"
                      id="Combined-Shape" fill-opacity="0.2" fill="#FFFFFF"></path>
                <rect id="Rectangle-Copy-29" stroke-opacity="0.2" stroke="#FFFFFF" stroke-width="7" x="87.5" y="75.5"
                      width="39" height="23" rx="10"></rect>
                <path d="M152.202614,23.483871 C152.202614,21.2473118 152.202614,17.8924731 152.202614,13.4193548 C152.202614,9.71370232 149.159321,6.70967742 145.405229,6.70967742 L68.5947712,6.70967742 C64.8406788,6.70967742 61.7973856,9.71370232 61.7973856,13.4193548 C61.7973856,17.8924731 61.7973856,21.2473118 61.7973856,23.483871 M55,23.483871 C55,21.2473118 55,17.8924731 55,13.4193548 C55,6.00804981 61.0865864,0 68.5947712,0 L145.405229,0 C152.913414,0 159,6.00804981 159,13.4193548 C159,17.8924731 159,21.2473118 159,23.483871"
                      id="Rectangle-Copy-30" fill-opacity="0.4" fill="#FFFFFF" fill-rule="nonzero"></path>
            </g>
        </g>
    </g>
</svg>