<?xml version="1.0" encoding="UTF-8"?>
<svg width="346px" height="328px" viewBox="0 0 346 328" version="1.1" xmlns="http://www.w3.org/2000/svg"
     xmlns:xlink="http://www.w3.org/1999/xlink">
    <title>6_mode</title>
    <defs>
        <path d="M57.102502,0.476690692 C58.6725857,9.46540414 67.1834812,16.3338335 77.4471924,16.3338335 C87.7109036,16.3338335 96.2217992,9.46540414 97.7918829,0.476690692 L99.6831924,0.476690692 L119.675192,0.476690692 L153.131192,37.762405 L132.323192,56.3255297 L119.675192,41.6195478 L119.675192,126.476691 L33.9951924,126.226184 L33.9951924,41.6195478 L19.7151924,54.6526144 L0.131192428,32.1909764 L33.9951924,0.476690692 L49.4991924,0.476690692 L57.102502,0.476690692 Z"
              id="path-1"></path>
    </defs>
    <g id="Page-1" stroke="none" stroke-width="1" fill="none" fill-rule="evenodd">
        <g id="6_mode" transform="translate(15.000000, 47.000000)">
            <g id="Rectangle-+-Rectangle-Copy-17-Mask"
               transform="translate(263.241381, 87.969356) rotate(5.000000) translate(-263.241381, -87.969356) translate(186.241381, 24.469356)">
                <mask id="mask-2" fill="white">
                    <use xlink:href="#path-1"></use>
                </mask>
                <use id="Combined-Shape" fill-opacity="0.2" fill="#FFFFFF" xlink:href="#path-1"></use>
                <ellipse id="Oval-Copy-19" stroke-opacity="0.2" stroke="#FFFFFF" stroke-width="30" mask="url(#mask-2)"
                         cx="77.7651206" cy="-3.87844428" rx="20.5" ry="19"></ellipse>
                <polygon id="Rectangle" fill-opacity="0.2" fill="#FFFFFF" mask="url(#mask-2)"
                         transform="translate(11.741110, 41.845005) rotate(48.000000) translate(-11.741110, -41.845005) "
                         points="-5.35041301 37.050005 28.617817 37.8785838 28.8326337 46.6400057 -5.13559628 45.8114268"></polygon>
                <rect id="Rectangle-Copy-18" fill-opacity="0.2" fill="#FFFFFF" mask="url(#mask-2)" x="28.5198104"
                      y="119.896333" width="92" height="11"></rect>
                <polygon id="Rectangle-Copy-17" fill-opacity="0.2" fill="#FFFFFF" mask="url(#mask-2)"
                         transform="translate(141.761378, 45.640646) rotate(139.000000) translate(-141.761378, -45.640646) "
                         points="124.985731 41.6461329 158.750923 40.8210982 158.537025 49.6351596 124.771833 50.4601943"></polygon>
            </g>
            <g id="Group-8">
                <g id="Group-7" fill="#FFFFFF" fill-opacity="0.2">
                    <path d="M67.8327626,107.869938 L84.5135135,101.042891 L97.0322469,101.042891 C96.2932266,73.4551273 97.3102687,51.4872853 100.402239,35.1754088 C94.753971,20.7223413 88.9055209,14.3406593 83.7384267,14.3406593 C79.0085766,14.3406593 74.5807599,20.3332375 71.3966794,34.8771713 C67.8675705,50.9970921 66.6541016,75.3859057 67.8327626,107.869938 Z M53.4830724,107.433089 C50.9610135,36.0013511 59.3624015,-7.10542736e-15 83.7384267,-7.10542736e-15 C92.5873464,-5.22115567e-15 100.103373,5.063086 106.522823,15.1858398 C111.438214,5.07201165 118.337066,8.97697665e-15 127.486486,7.10542736e-15 C151.124545,7.10542736e-15 159.740567,33.8545178 157.940726,101.042891 L177.103508,101.042891 L212,245.225275 L83.601686,261 L42.972973,255.263736 L1.42108547e-14,261 L34.3613083,100.384615 L53.4830724,107.433089 Z M115.20743,101.042891 C113.966718,92.1289809 112.639377,83.8784892 111.227455,76.2945371 C111.081632,83.8861204 111.126928,92.1369004 111.365102,101.042891 L115.20743,101.042891 Z M129.670085,101.042891 L143.607871,101.042891 C144.385933,71.9489648 143.105633,49.8473582 139.828234,34.8771713 C136.644153,20.3332375 132.216337,14.3406593 127.486486,14.3406593 C122.845285,14.3406593 118.494902,20.110712 115.325076,34.0684016 C121.1531,50.4726071 125.834972,72.7988806 129.670085,101.042891 Z"
                          id="Combined-Shape"></path>
                </g>
                <path d="M34.3613083,100 L61.5945946,110.0625 L84.5135135,100.659852 L177.103508,100.659852 L212,245.1875 L83.601686,261 L42.972973,255.25 L0,261 L34.3613083,100 Z M42.972973,110.0625 L10.027027,250.9375 L42.972973,242.550011 L77.3513514,250.9375 L77.3513514,110.0625 L60.1621622,118.6875 L42.972973,110.0625 Z"
                      id="Combined-Shape" fill-opacity="0.2" fill="#FFFFFF"></path>
                <path d="M90,105 L90,255.338854 L205.854744,240.914026 L173.795003,105 L90,105 Z" id="Path-14"
                      stroke-opacity="0.2" stroke="#FFFFFF" stroke-width="10"></path>
            </g>
        </g>
    </g>
</svg>