<svg version="1.1" viewBox="0 0 346 328" xmlns="http://www.w3.org/2000/svg" xmlns:xlink="http://www.w3.org/1999/xlink"><title>6_mode</title><defs><path id="b" d="m57.103.47669c1.5701 8.9887 10.081 15.857 20.345 15.857s18.775-6.8684 20.345-15.857h21.883l33.456 37.286-20.808 18.563-12.648-14.706v84.857l-85.68-.25051v-84.607l-14.28 13.033-19.584-22.462 33.864-31.714h23.107z"/><mask id="a" fill="white"><use width="100%" height="100%" xlink:href="#b"/></mask></defs><use transform="rotate(5 -640.84 2403.8)" width="100%" height="100%" fill="#ffffff" fill-opacity=".2" fill-rule="evenodd" xlink:href="#b"/><path transform="rotate(5 -640.84 2403.8)" d="m98.265-3.8784a20.5 19 0 0 1-20.5 19 20.5 19 0 0 1-20.5-19 20.5 19 0 0 1 20.5-19 20.5 19 0 0 1 20.5 19z" fill="none" mask="url(#a)" stroke="#fff" stroke-opacity=".2" stroke-width="30"/><path transform="rotate(53 47.378 278.73)" d="m-5.3504 37.05 33.968.82858.21482 8.7614-33.968-.82858z" fill="#fff" fill-opacity=".2" fill-rule="evenodd" mask="url(#a)"/><path transform="rotate(5 -640.84 2403.8)" d="m28.52 119.9h92v11h-92z" fill="#fff" fill-opacity=".2" fill-rule="evenodd" mask="url(#a)"/><path transform="rotate(144 230.5 117.14)" d="m124.99 41.646 33.765-.82504-.2139 8.8141-33.765.82503z" fill="#fff" fill-opacity=".2" fill-rule="evenodd" mask="url(#a)"/><path d="m82.833 154.87 16.681-6.827h12.519c-.73902-27.588.27802-49.556 3.37-65.867-5.6483-14.453-11.497-20.835-16.664-20.835-4.7298 0-9.1577 5.9926-12.342 20.537-3.5291 16.12-4.7426 40.509-3.5639 72.993zm-14.35-.43685c-2.5221-71.432 5.8793-107.43 30.255-107.43 8.8489 0 16.365 5.0631 22.784 15.186 4.9154-10.114 11.814-15.186 20.964-15.186 23.638 0 32.254 33.855 30.454 101.04h19.163l34.896 144.18-128.4 15.775-40.629-5.7363-42.973 5.7363 34.361-160.62zm61.724-6.3902c-1.2407-8.9139-2.568-17.164-3.98-24.748-.14583 7.5916-.10053 15.842.13764 24.748zm14.463 0h13.938c.77806-29.094-.50224-51.196-3.7796-66.166-3.1841-14.544-7.6119-20.537-12.342-20.537-4.6412 0-8.9916 5.7701-12.161 19.728 5.828 16.404 10.51 38.73 14.345 66.974z" fill="#fff" fill-opacity=".2" fill-rule="evenodd"/><path d="m49.361 147 27.233 10.062 22.919-9.4026h92.59l34.896 144.53-128.4 15.812-40.629-5.75-42.973 5.75zm8.6117 10.062-32.946 140.88 32.946-8.3875 34.378 8.3875v-140.88l-17.189 8.625z" fill="#fff" fill-opacity=".2" fill-rule="evenodd"/><path d="m105 152v150.34l115.85-14.425-32.06-135.91z" fill="none" stroke="#fff" stroke-opacity=".2" stroke-width="10"/></svg>
