<svg version="1.1" viewBox="0 0 483 405" xmlns="http://www.w3.org/2000/svg"><title>7_haus</title><desc>Created with Sketch.</desc><path transform="translate(322,106)" d="m191 39.526-38.535-39.526h-86.285l-8.9843 11.634h-18.66l-11.728-11.634h-26.807v54.845h26.807l11.728-15.319h27.645v19.474h48.588v-19.474l13.404-9.6109h24.294z" fill="#fff" fill-opacity=".4" fill-rule="evenodd"/><path transform="translate(322,106)" d="m107 81h-30v-22h30z" fill="#fff" fill-opacity=".2" fill-rule="evenodd"/><path transform="translate(322,106)" d="m112 233h-40v-152h40z" fill="#fff" fill-opacity=".4" fill-rule="evenodd"/><path transform="translate(322,106)" d="m112 233h-40v-22h40z" fill="#fff" fill-opacity=".4" fill-rule="evenodd"/><path transform="translate(0,89)" d="m311.17 316v-174.38h32.83l-171.29-141.62-172.71 141.62h38.539v174.38z" fill="#fff" fill-opacity=".2" fill-rule="evenodd"/><path d="m311.17 231.61-137.17-112.65-135.96 111.66h-38.035l172.71-141.61 171.29 141.61h-32.83z" fill="#fff" fill-opacity=".4" fill-rule="evenodd"/><path d="m107 325h63v80h-63z" fill="#fff" fill-opacity=".4" fill-rule="evenodd"/></svg>
