<?xml version="1.0" encoding="UTF-8"?>
<svg width="500px" height="360px" viewBox="0 0 500 360" version="1.1" xmlns="http://www.w3.org/2000/svg"
     xmlns:xlink="http://www.w3.org/1999/xlink">
    <title>8_freizeit</title>
    <g id="Page-1" stroke="none" stroke-width="1" fill="none" fill-rule="evenodd">
        <g id="8_freizeit" transform="translate(0.000000, 32.000000)">
            <circle id="Oval-Copy-9" stroke-opacity="0.2" stroke="#FFFFFF" stroke-width="18" cx="311" cy="158"
                    r="130"></circle>
            <path d="M311.5,108.009607 C311.5,108.009607 311.5,108.009607 311.5,108.009607 L311.5,50 L311.5,108.009607 Z M266.881049,132.787181 L217.361036,104.25 L266.881049,132.787181 C266.881049,132.787181 266.881049,132.787181 266.881049,132.787181 Z M311.5,207.990393 L311.5,267 L311.5,207.990393 C311.5,207.990393 311.5,207.990393 311.5,207.990393 Z M354.186045,183.098932 L405.638964,212.75 L354.186045,183.098932 C354.186045,183.098932 354.186045,183.098932 354.186045,183.098932 Z M267.328381,183.955032 C267.328381,183.955032 267.328381,183.955032 267.328381,183.955032 L217.361036,212.75 L267.328381,183.955032 Z M354.618333,133.651951 L405.638964,104.25 L354.618333,133.651951 C354.618333,133.651951 354.618333,133.651951 354.618333,133.651951 Z"
                  id="Combined-Shape" stroke-opacity="0.2" stroke="#FFFFFF" stroke-width="18"
                  stroke-linecap="square"></path>
            <g id="Path-2" transform="translate(182.000000, 132.000000)" stroke="#FFFFFF" stroke-opacity="0.4"
               stroke-width="18">
                <polyline points="35 209 129.5 42 217 209"></polyline>
            </g>
            <circle id="Oval-Copy-2" stroke-opacity="0.2" stroke="#FFFFFF" stroke-width="18" stroke-linecap="square"
                    cx="311" cy="158" r="34"></circle>
            <circle id="Oval-Copy-10" fill-opacity="0.4" fill="#FFFFFF" cx="311" cy="158" r="18"></circle>
            <ellipse id="Oval" fill-opacity="0.4" fill="#FFFFFF" cx="438.5" cy="87" rx="14.5" ry="15"></ellipse>
            <ellipse id="Oval-Copy-3" fill-opacity="0.4" fill="#FFFFFF" cx="386.5" cy="35" rx="14.5" ry="15"></ellipse>
            <ellipse id="Oval-Copy-4" fill-opacity="0.4" fill="#FFFFFF" cx="311.5" cy="15" rx="14.5" ry="15"></ellipse>
            <ellipse id="Oval-Copy-5" fill-opacity="0.4" fill="#FFFFFF" cx="235.5" cy="34" rx="14.5" ry="15"></ellipse>
            <ellipse id="Oval-Copy-6" fill-opacity="0.4" fill="#FFFFFF" cx="182.5" cy="86" rx="14.5" ry="15"></ellipse>
            <ellipse id="Oval-Copy-7" fill-opacity="0.4" fill="#FFFFFF" cx="168.5" cy="157" rx="14.5" ry="15"></ellipse>
            <ellipse id="Oval-Copy-8" fill-opacity="0.4" fill="#FFFFFF" cx="187.585821" cy="228.9085" rx="14.7904968"
                     ry="14.5110155"></ellipse>
            <ellipse id="Oval-Copy-11" fill-opacity="0.4" fill="#FFFFFF" cx="438.5" cy="230" rx="14.5"
                     ry="15"></ellipse>
            <ellipse id="Oval-Copy-13" fill-opacity="0.4" fill="#FFFFFF" cx="314.5" cy="301" rx="14.5"
                     ry="15"></ellipse>
            <ellipse id="Oval-Copy-14" fill-opacity="0.4" fill="#FFFFFF" cx="234.5" cy="281" rx="14.5"
                     ry="15"></ellipse>
            <ellipse id="Oval-Copy-15" fill-opacity="0.4" fill="#FFFFFF" cx="387.5" cy="281" rx="14.5"
                     ry="15"></ellipse>
            <ellipse id="Oval-Copy-12" fill-opacity="0.4" fill="#FFFFFF" cx="455.5" cy="157" rx="14.5"
                     ry="15"></ellipse>
            <rect id="Rectangle" fill-opacity="0.1" fill="#FFFFFF" x="0.20346707" y="202.86784" width="144.591857"
                  height="125.13216" rx="10"></rect>
            <path d="M44.6311328,202.86784 L36.5533754,202.86784 L36.5533754,188.008396 C36.5533754,183.689109 40.1699105,180.187636 44.6311328,180.187636 L95.5210044,180.187636 C99.9822266,180.187636 103.598762,183.689109 103.598762,188.008396 L103.598762,202.86784 L95.5210044,202.86784 L95.5210044,188.008396 L44.6311328,188.008396 L44.6311328,202.86784 Z"
                  id="Combined-Shape" fill-opacity="0.2" fill="#FFFFFF"></path>
            <path d="M99.5598831,202.86784 L99.5598831,328 L43.0155813,328 L43.0155813,202.86784 L99.5598831,202.86784 Z M110.060968,202.86784 L134.795324,202.86784 C140.318172,202.86784 144.795324,207.344992 144.795324,212.86784 L144.795324,318 C144.795324,323.522847 140.318172,328 134.795324,328 L110.060968,328 L110.060968,202.86784 Z M32.5144967,202.86784 L32.5144967,328 L10.2034671,328 C4.68061957,328 0.20346707,323.522847 0.20346707,318 L0.20346707,212.86784 C0.20346707,207.344992 4.68061957,202.86784 10.2034671,202.86784 L32.5144967,202.86784 Z"
                  id="Combined-Shape" fill-opacity="0.3" fill="#FFFFFF"></path>
            <path d="M65.7002981,238.834585 L79.5392825,235.773283 C84.8767872,228.848381 87.7857322,222.832519 88.2661173,217.725697 C88.7465025,212.618874 86.8686891,207.673102 82.6326773,202.888381 L86.6354712,202.888381 C90.4581918,206.403202 92.0737433,211.35635 91.4821257,217.747825 C90.890508,224.1393 87.9406919,230.691826 82.6326773,237.405402 L89.3143736,249.013752 L75.5151899,279.021155 L51.9011144,268.841988 L65.7002981,238.834585 Z"
                  id="Rectangle" fill-opacity="0.2" fill="#FFFFFF"></path>
        </g>
    </g>
</svg>