<svg version="1.1" viewBox="0 0 500 360" xmlns="http://www.w3.org/2000/svg"><title>8_freizeit</title><path d="m441 190a130 130 0 0 1-130 130 130 130 0 0 1-130-130 130 130 0 0 1 130-130 130 130 0 0 1 130 130z" fill="none" stroke="#fff" stroke-opacity=".2" stroke-width="18"/><path d="m311.5 140.01v0-58.01zm-44.619 24.778-49.52-28.537 49.52 28.537v0zm44.619 75.203v59.01-59.01 0zm42.686-24.891 51.453 29.651-51.453-29.651v0zm-86.858.8561v0l-49.967 28.795zm87.29-50.303 51.021-29.402-51.021 29.402v0z" fill="none" stroke="#fff" stroke-linecap="square" stroke-opacity=".2" stroke-width="18"/><path transform="translate(182,164)" d="m35 209 94.5-167 87.5 167" fill="none" stroke="#fff" stroke-opacity=".4" stroke-width="18"/><path d="m345 190a34 34 0 0 1-34 34 34 34 0 0 1-34-34 34 34 0 0 1 34-34 34 34 0 0 1 34 34z" fill="none" stroke="#fff" stroke-linecap="square" stroke-opacity=".2" stroke-width="18"/><path d="m329 190a18 18 0 0 1-18 18 18 18 0 0 1-18-18 18 18 0 0 1 18-18 18 18 0 0 1 18 18z" fill="#fff" fill-opacity=".4" fill-rule="evenodd"/><path d="m453 119a14.5 15 0 0 1-14.5 15 14.5 15 0 0 1-14.5-15 14.5 15 0 0 1 14.5-15 14.5 15 0 0 1 14.5 15z" fill="#fff" fill-opacity=".4" fill-rule="evenodd"/><path d="m401 67a14.5 15 0 0 1-14.5 15 14.5 15 0 0 1-14.5-15 14.5 15 0 0 1 14.5-15 14.5 15 0 0 1 14.5 15z" fill="#fff" fill-opacity=".4" fill-rule="evenodd"/><path d="m326 47a14.5 15 0 0 1-14.5 15 14.5 15 0 0 1-14.5-15 14.5 15 0 0 1 14.5-15 14.5 15 0 0 1 14.5 15z" fill="#fff" fill-opacity=".4" fill-rule="evenodd"/><path d="m250 66a14.5 15 0 0 1-14.5 15 14.5 15 0 0 1-14.5-15 14.5 15 0 0 1 14.5-15 14.5 15 0 0 1 14.5 15z" fill="#fff" fill-opacity=".4" fill-rule="evenodd"/><path d="m197 118a14.5 15 0 0 1-14.5 15 14.5 15 0 0 1-14.5-15 14.5 15 0 0 1 14.5-15 14.5 15 0 0 1 14.5 15z" fill="#fff" fill-opacity=".4" fill-rule="evenodd"/><path d="m183 189a14.5 15 0 0 1-14.5 15 14.5 15 0 0 1-14.5-15 14.5 15 0 0 1 14.5-15 14.5 15 0 0 1 14.5 15z" fill="#fff" fill-opacity=".4" fill-rule="evenodd"/><path d="m202.38 260.91a14.79 14.511 0 0 1-14.79 14.511 14.79 14.511 0 0 1-14.79-14.511 14.79 14.511 0 0 1 14.79-14.511 14.79 14.511 0 0 1 14.79 14.511z" fill="#fff" fill-opacity=".4" fill-rule="evenodd"/><path d="m453 262a14.5 15 0 0 1-14.5 15 14.5 15 0 0 1-14.5-15 14.5 15 0 0 1 14.5-15 14.5 15 0 0 1 14.5 15z" fill="#fff" fill-opacity=".4" fill-rule="evenodd"/><path d="m329 333a14.5 15 0 0 1-14.5 15 14.5 15 0 0 1-14.5-15 14.5 15 0 0 1 14.5-15 14.5 15 0 0 1 14.5 15z" fill="#fff" fill-opacity=".4" fill-rule="evenodd"/><path d="m249 313a14.5 15 0 0 1-14.5 15 14.5 15 0 0 1-14.5-15 14.5 15 0 0 1 14.5-15 14.5 15 0 0 1 14.5 15z" fill="#fff" fill-opacity=".4" fill-rule="evenodd"/><path d="m402 313a14.5 15 0 0 1-14.5 15 14.5 15 0 0 1-14.5-15 14.5 15 0 0 1 14.5-15 14.5 15 0 0 1 14.5 15z" fill="#fff" fill-opacity=".4" fill-rule="evenodd"/><path d="m470 189a14.5 15 0 0 1-14.5 15 14.5 15 0 0 1-14.5-15 14.5 15 0 0 1 14.5-15 14.5 15 0 0 1 14.5 15z" fill="#fff" fill-opacity=".4" fill-rule="evenodd"/><path d="m10.203 234.87h124.59c5.54 0 10 4.46 10 10v105.13c0 5.54-4.46 10-10 10h-124.59c-5.54 0-10-4.46-10-10v-105.13c0-5.54 4.46-10 10-10z" fill="#fff" fill-opacity=".1" fill-rule="evenodd"/><path d="m44.631 234.87h-8.0778v-14.859c0-4.3193 3.6165-7.8208 8.0778-7.8208h50.89c4.4612 0 8.0778 3.5015 8.0778 7.8208v14.859h-8.0778v-14.859h-50.89z" fill="#fff" fill-opacity=".2" fill-rule="evenodd"/><path d="m99.56 234.87v125.13h-56.544v-125.13zm10.501 0h24.734c5.5228 0 10 4.4772 10 10v105.13c0 5.5228-4.4772 10-10 10h-24.734zm-77.546 0v125.13h-22.311c-5.5228 0-10-4.4772-10-10v-105.13c0-5.5228 4.4772-10 10-10z" fill="#fff" fill-opacity=".3" fill-rule="evenodd"/><path d="m65.7 270.83 13.839-3.0613c5.3375-6.9249 8.2464-12.941 8.7268-18.048.48039-5.1068-1.3974-10.053-5.6334-14.837h4.0028c3.8227 3.5148 5.4383 8.468 4.8467 14.859-.59162 6.3915-3.5414 12.944-8.8494 19.658l6.6817 11.608-13.799 30.007-23.614-10.179z" fill="#fff" fill-opacity=".2" fill-rule="evenodd"/></svg>
