<svg version="1.1" viewBox="0 0 432 420" xmlns="http://www.w3.org/2000/svg"><title>9_essen</title><path d="m525.77 236a157 157 0 0 1-157 157 157 157 0 0 1-157-157 157 157 0 0 1 157-157 157 157 0 0 1 157 157z" fill="#fff" fill-opacity=".2" fill-rule="evenodd"/><path d="m368.77 393c-86.709 0-157-70.291-157-157s70.291-157 157-157 157 70.291 157 157-70.291 157-157 157zm0-39c65.17 0 118-52.83 118-118s-52.83-118-118-118-118 52.83-118 118 52.83 118 118 118z" fill="#fff" fill-opacity=".2" fill-rule="evenodd"/><path d="m54.055 142h9.1614v-53.225c0-3.1892 2.5853-5.7745 5.7745-5.7745h.45098c3.1892 0 5.7745 2.5853 5.7745 5.7745v53.225h9.1614v-53.225c0-3.1892 2.5853-5.7745 5.7745-5.7745h.45098c3.1892 0 5.7745 2.5853 5.7745 5.7745v53.225c.75651 17.064.42317 27.73-1 32-3.3333 10-10.667 16-22 18v183c1.3333 13.333-3 20-13 20s-15-6.6667-15-20v-183c-12.667-3.3333-20.333-9.3333-23-18-1.3775-4.477-1.7219-15.144-1.0332-32v-53.225c0-3.1892 2.5853-5.7745 5.7745-5.7745 3.1892 0 5.7745 2.5853 5.7745 5.7745v53.225h9.1614v-53.225c0-3.1892 2.5853-5.7745 5.7745-5.7745h.45098c3.1892 0 5.7745 2.5853 5.7745 5.7745z" fill="#fff" fill-opacity=".4" fill-rule="evenodd"/><path d="m113.08 187.66c2.776 6.2397 10.443 11.819 23 16.736v170.15c0 12.397 5 18.596 15 18.596s14.333-6.1987 13-18.596v-312.41c-10.016-1.4564-19.349 8.4615-28 29.754-12.524 30.823-28.378 83.682-23 95.77z" fill="#fff" fill-opacity=".4" fill-rule="evenodd"/></svg>
