<?xml version="1.0" encoding="UTF-8"?>
<svg width="432px" height="420px" viewBox="0 0 432 420" version="1.1" xmlns="http://www.w3.org/2000/svg"
     xmlns:xlink="http://www.w3.org/1999/xlink">
    <title>9_essen</title>
    <g id="Page-1" stroke="none" stroke-width="1" fill="none" fill-rule="evenodd">
        <g id="9_essen" transform="translate(21.000000, 62.000000)" fill="#FFFFFF">
            <g id="Group-5" transform="translate(190.771388, 17.000000)" fill-opacity="0.2">
                <circle id="Oval" cx="157" cy="157" r="157"></circle>
                <path d="M157,314 C70.2912943,314 0,243.708706 0,157 C0,70.2912943 70.2912943,0 157,0 C243.708706,0 314,70.2912943 314,157 C314,243.708706 243.708706,314 157,314 Z M157,275 C222.1696,275 275,222.1696 275,157 C275,91.8303995 222.1696,39 157,39 C91.8303995,39 39,91.8303995 39,157 C39,222.1696 91.8303995,275 157,275 Z"
                      id="Combined-Shape"></path>
            </g>
            <path d="M33.054785,80 L42.2161645,80 L42.2161645,26.7745097 C42.2161645,23.585336 44.8015006,21 47.9906742,21 L48.4416549,21 C51.6308285,21 54.2161645,23.585336 54.2161645,26.7745097 L54.2161645,80 L63.3775441,80 L63.3775441,26.7745097 C63.3775441,23.585336 65.9628802,21 69.1520538,21 L69.6030345,21 C72.7922081,21 75.3775441,23.585336 75.3775441,26.7745097 L75.3775441,80 C76.1340502,97.0638151 75.8007169,107.730482 74.3775441,112 C71.0442108,122 63.7108775,128 52.3775441,130 L52.3775441,313 C53.7108775,326.333333 49.3775441,333 39.3775441,333 C29.3775441,333 24.3775441,326.333333 24.3775441,313 L24.3775441,130 C11.7108775,126.666667 4.0442108,120.666667 1.37754414,112 C-4.92939023e-14,107.522982 -0.344386034,96.8563149 0.344386034,80 L0.344386034,26.7745097 C0.344386034,23.585336 2.92972208,21 6.1188957,21 C9.30806933,21 11.8934054,23.585336 11.8934054,26.7745097 L11.8934054,80 L21.054785,80 L21.054785,26.7745097 C21.054785,23.585336 23.640121,21 26.8292946,21 L27.2802753,21 C30.4694489,21 33.054785,23.585336 33.054785,26.7745097 L33.054785,80 Z"
                  id="Combined-Shape" fill-opacity="0.4"></path>
            <path d="M92.0778601,125.663532 C94.8538234,131.90325 102.52049,137.48208 115.07786,142.400021 L115.07786,312.554326 C115.07786,324.951725 120.07786,331.150424 130.07786,331.150424 C140.07786,331.150424 144.411193,324.951725 143.07786,312.554326 L143.07786,142.400021 L143.07786,0.13986535 C133.062194,-1.31655785 123.728861,8.60136152 115.07786,29.8936235 C102.554362,60.7170641 86.700316,113.576068 92.0778601,125.663532 Z"
                  id="Path-7-Copy" fill-opacity="0.4"></path>
        </g>
    </g>
</svg>