<?xml version="1.0" encoding="UTF-8"?>
<svg width="300px" height="200px" viewBox="0 0 300 200" version="1.1" xmlns="http://www.w3.org/2000/svg"
     xmlns:xlink="http://www.w3.org/1999/xlink">
    <title>card</title>
    <g id="Page-1" stroke="none" stroke-width="1" fill="none" fill-rule="evenodd">
        <g id="card">
            <polygon id="Path" fill="#DCDCDC" points="0 0 300 0 300 200 0 200"></polygon>
            <polygon id="Path" fill="#6C99BD" points="0 48 256 48 256 200 0 200"></polygon>
            <path d="M158.16,32.6045 L153.983,32.6045 L153.983,37 L152.671,37 L152.671,27.0469 L158.837,27.0469 L158.837,28.127 L153.983,28.127 L153.983,31.5312 L158.16,31.5312 L158.16,32.6045 Z M163.858,30.7383 C163.667,30.7064 163.46,30.6904 163.236,30.6904 C162.407,30.6904 161.844,31.0436 161.548,31.75 L161.548,37 L160.283,37 L160.283,29.6035 L161.514,29.6035 L161.534,30.458 C161.949,29.7972 162.537,29.4668 163.298,29.4668 C163.544,29.4668 163.731,29.4987 163.858,29.5625 L163.858,30.7383 Z M168.21,37.1367 C167.207,37.1367 166.392,36.8086 165.763,36.1523 C165.134,35.4915 164.819,34.6097 164.819,33.5068 L164.819,33.2744 C164.819,32.5407 164.958,31.8867 165.236,31.3125 C165.519,30.7337 165.911,30.2826 166.412,29.959 C166.918,29.6309 167.465,29.4668 168.053,29.4668 C169.014,29.4668 169.762,29.7835 170.295,30.417 C170.828,31.0505 171.095,31.9574 171.095,33.1377 L171.095,33.6641 L166.084,33.6641 C166.102,34.3932 166.314,34.9834 166.72,35.4346 C167.13,35.8812 167.649,36.1045 168.278,36.1045 C168.725,36.1045 169.103,36.0133 169.413,35.8311 C169.723,35.6488 169.994,35.4072 170.227,35.1064 L170.999,35.708 C170.379,36.6605 169.45,37.1367 168.21,37.1367 Z M168.053,30.5059 C167.542,30.5059 167.114,30.6927 166.768,31.0664 C166.421,31.4355 166.207,31.9551 166.125,32.625 L169.83,32.625 L169.83,32.5293 C169.794,31.8867 169.62,31.39 169.311,31.0391 C169.001,30.6836 168.581,30.5059 168.053,30.5059 Z M174.188,37 L172.924,37 L172.924,29.6035 L174.188,29.6035 L174.188,37 Z M172.821,27.6416 C172.821,27.4365 172.883,27.2633 173.006,27.1221 C173.133,26.9808 173.32,26.9102 173.566,26.9102 C173.812,26.9102 173.999,26.9808 174.127,27.1221 C174.255,27.2633 174.318,27.4365 174.318,27.6416 C174.318,27.8467 174.255,28.0176 174.127,28.1543 C173.999,28.291 173.812,28.3594 173.566,28.3594 C173.32,28.3594 173.133,28.291 173.006,28.1543 C172.883,28.0176 172.821,27.8467 172.821,27.6416 Z M180.775,35.0381 C180.775,34.6963 180.646,34.432 180.386,34.2451 C180.131,34.0537 179.682,33.8896 179.039,33.7529 C178.401,33.6162 177.893,33.4521 177.515,33.2607 C177.141,33.0693 176.863,32.8415 176.681,32.5771 C176.503,32.3128 176.414,31.9984 176.414,31.6338 C176.414,31.0277 176.669,30.515 177.18,30.0957 C177.695,29.6764 178.351,29.4668 179.148,29.4668 C179.987,29.4668 180.666,29.6833 181.186,30.1162 C181.71,30.5492 181.972,31.1029 181.972,31.7773 L180.7,31.7773 C180.7,31.431 180.552,31.1325 180.256,30.8818 C179.964,30.6312 179.595,30.5059 179.148,30.5059 C178.688,30.5059 178.328,30.6061 178.068,30.8066 C177.809,31.0072 177.679,31.2692 177.679,31.5928 C177.679,31.8981 177.799,32.1283 178.041,32.2832 C178.283,32.4382 178.718,32.5863 179.347,32.7275 C179.98,32.8688 180.493,33.0374 180.885,33.2334 C181.277,33.4294 181.566,33.6663 181.753,33.9443 C181.944,34.2178 182.04,34.5527 182.04,34.9492 C182.04,35.61 181.776,36.141 181.247,36.542 C180.718,36.9385 180.033,37.1367 179.189,37.1367 C178.597,37.1367 178.073,37.0319 177.617,36.8223 C177.161,36.6126 176.804,36.321 176.544,35.9473 C176.289,35.569 176.161,35.1611 176.161,34.7236 L177.426,34.7236 C177.449,35.1475 177.617,35.4847 177.932,35.7354 C178.251,35.9814 178.67,36.1045 179.189,36.1045 C179.668,36.1045 180.051,36.0088 180.338,35.8174 C180.63,35.6214 180.775,35.3617 180.775,35.0381 Z M185.653,27.8125 L185.653,29.6035 L187.034,29.6035 L187.034,30.5811 L185.653,30.5811 L185.653,35.168 C185.653,35.4642 185.715,35.6875 185.838,35.8379 C185.961,35.9837 186.171,36.0566 186.467,36.0566 C186.613,36.0566 186.813,36.0293 187.068,35.9746 L187.068,37 C186.736,37.0911 186.412,37.1367 186.098,37.1367 C185.533,37.1367 185.106,36.9658 184.819,36.624 C184.532,36.2822 184.389,35.7969 184.389,35.168 L184.389,30.5811 L183.042,30.5811 L183.042,29.6035 L184.389,29.6035 L184.389,27.8125 L185.653,27.8125 Z M193.334,37 C193.261,36.8542 193.202,36.5944 193.156,36.2207 C192.568,36.8314 191.867,37.1367 191.051,37.1367 C190.322,37.1367 189.722,36.9316 189.253,36.5215 C188.788,36.1068 188.556,35.5827 188.556,34.9492 C188.556,34.179 188.847,33.582 189.431,33.1582 C190.019,32.7298 190.843,32.5156 191.905,32.5156 L193.136,32.5156 L193.136,31.9346 C193.136,31.4925 193.004,31.1416 192.739,30.8818 C192.475,30.6175 192.085,30.4854 191.57,30.4854 C191.119,30.4854 190.741,30.5993 190.436,30.8271 C190.13,31.055 189.978,31.3307 189.978,31.6543 L188.706,31.6543 C188.706,31.2852 188.836,30.9297 189.096,30.5879 C189.36,30.2415 189.715,29.9681 190.162,29.7676 C190.613,29.5671 191.108,29.4668 191.646,29.4668 C192.498,29.4668 193.165,29.681 193.648,30.1094 C194.132,30.5332 194.382,31.1188 194.4,31.8662 L194.4,35.2705 C194.4,35.9495 194.487,36.4896 194.66,36.8906 L194.66,37 L193.334,37 Z M191.235,36.0361 C191.632,36.0361 192.008,35.9336 192.363,35.7285 C192.719,35.5234 192.976,35.2568 193.136,34.9287 L193.136,33.4111 L192.145,33.4111 C190.595,33.4111 189.82,33.8646 189.82,34.7715 C189.82,35.168 189.952,35.4779 190.217,35.7012 C190.481,35.9245 190.821,36.0361 191.235,36.0361 Z M201.199,37 C201.126,36.8542 201.067,36.5944 201.021,36.2207 C200.434,36.8314 199.732,37.1367 198.916,37.1367 C198.187,37.1367 197.588,36.9316 197.118,36.5215 C196.653,36.1068 196.421,35.5827 196.421,34.9492 C196.421,34.179 196.713,33.582 197.296,33.1582 C197.884,32.7298 198.709,32.5156 199.771,32.5156 L201.001,32.5156 L201.001,31.9346 C201.001,31.4925 200.869,31.1416 200.604,30.8818 C200.34,30.6175 199.951,30.4854 199.436,30.4854 C198.984,30.4854 198.606,30.5993 198.301,30.8271 C197.995,31.055 197.843,31.3307 197.843,31.6543 L196.571,31.6543 C196.571,31.2852 196.701,30.9297 196.961,30.5879 C197.225,30.2415 197.581,29.9681 198.027,29.7676 C198.479,29.5671 198.973,29.4668 199.511,29.4668 C200.363,29.4668 201.031,29.681 201.514,30.1094 C201.997,30.5332 202.247,31.1188 202.266,31.8662 L202.266,35.2705 C202.266,35.9495 202.352,36.4896 202.525,36.8906 L202.525,37 L201.199,37 Z M199.101,36.0361 C199.497,36.0361 199.873,35.9336 200.229,35.7285 C200.584,35.5234 200.841,35.2568 201.001,34.9287 L201.001,33.4111 L200.01,33.4111 C198.46,33.4111 197.686,33.8646 197.686,34.7715 C197.686,35.168 197.818,35.4779 198.082,35.7012 C198.346,35.9245 198.686,36.0361 199.101,36.0361 Z M206.214,27.8125 L206.214,29.6035 L207.595,29.6035 L207.595,30.5811 L206.214,30.5811 L206.214,35.168 C206.214,35.4642 206.275,35.6875 206.398,35.8379 C206.521,35.9837 206.731,36.0566 207.027,36.0566 C207.173,36.0566 207.374,36.0293 207.629,35.9746 L207.629,37 C207.296,37.0911 206.973,37.1367 206.658,37.1367 C206.093,37.1367 205.667,36.9658 205.38,36.624 C205.093,36.2822 204.949,35.7969 204.949,35.168 L204.949,30.5811 L203.603,30.5811 L203.603,29.6035 L204.949,29.6035 L204.949,27.8125 L206.214,27.8125 Z M213.249,37 L213.249,27.0469 L216.503,27.0469 C217.583,27.0469 218.394,27.2702 218.937,27.7168 C219.483,28.1634 219.757,28.8242 219.757,29.6992 C219.757,30.1641 219.625,30.5765 219.36,30.9365 C219.096,31.292 218.736,31.5677 218.28,31.7637 C218.818,31.9141 219.242,32.2012 219.552,32.625 C219.866,33.0443 220.023,33.5456 220.023,34.1289 C220.023,35.0221 219.734,35.724 219.155,36.2344 C218.576,36.7448 217.758,37 216.701,37 L213.249,37 Z M214.562,32.3447 L214.562,35.9268 L216.729,35.9268 C217.339,35.9268 217.82,35.7695 218.171,35.4551 C218.526,35.1361 218.704,34.6986 218.704,34.1426 C218.704,32.944 218.052,32.3447 216.749,32.3447 L214.562,32.3447 Z M214.562,31.292 L216.544,31.292 C217.118,31.292 217.576,31.1484 217.918,30.8613 C218.264,30.5742 218.438,30.1846 218.438,29.6924 C218.438,29.1455 218.278,28.749 217.959,28.5029 C217.64,28.2523 217.155,28.127 216.503,28.127 L214.562,28.127 L214.562,31.292 Z M226.59,37 C226.517,36.8542 226.458,36.5944 226.412,36.2207 C225.824,36.8314 225.122,37.1367 224.307,37.1367 C223.577,37.1367 222.978,36.9316 222.509,36.5215 C222.044,36.1068 221.812,35.5827 221.812,34.9492 C221.812,34.179 222.103,33.582 222.687,33.1582 C223.274,32.7298 224.099,32.5156 225.161,32.5156 L226.392,32.5156 L226.392,31.9346 C226.392,31.4925 226.259,31.1416 225.995,30.8818 C225.731,30.6175 225.341,30.4854 224.826,30.4854 C224.375,30.4854 223.997,30.5993 223.691,30.8271 C223.386,31.055 223.233,31.3307 223.233,31.6543 L221.962,31.6543 C221.962,31.2852 222.092,30.9297 222.352,30.5879 C222.616,30.2415 222.971,29.9681 223.418,29.7676 C223.869,29.5671 224.364,29.4668 224.901,29.4668 C225.754,29.4668 226.421,29.681 226.904,30.1094 C227.387,30.5332 227.638,31.1188 227.656,31.8662 L227.656,35.2705 C227.656,35.9495 227.743,36.4896 227.916,36.8906 L227.916,37 L226.59,37 Z M224.491,36.0361 C224.888,36.0361 225.264,35.9336 225.619,35.7285 C225.975,35.5234 226.232,35.2568 226.392,34.9287 L226.392,33.4111 L225.4,33.4111 C223.851,33.4111 223.076,33.8646 223.076,34.7715 C223.076,35.168 223.208,35.4779 223.473,35.7012 C223.737,35.9245 224.076,36.0361 224.491,36.0361 Z M232.199,35.1475 L233.922,29.6035 L235.275,29.6035 L232.302,38.1416 C231.841,39.3721 231.11,39.9873 230.107,39.9873 L229.868,39.9668 L229.396,39.8779 L229.396,38.8525 L229.738,38.8799 C230.167,38.8799 230.499,38.7933 230.736,38.6201 C230.978,38.4469 231.176,38.1302 231.331,37.6699 L231.611,36.918 L228.973,29.6035 L230.354,29.6035 L232.199,35.1475 Z M239.634,37.1367 C238.631,37.1367 237.815,36.8086 237.187,36.1523 C236.558,35.4915 236.243,34.6097 236.243,33.5068 L236.243,33.2744 C236.243,32.5407 236.382,31.8867 236.66,31.3125 C236.943,30.7337 237.335,30.2826 237.836,29.959 C238.342,29.6309 238.889,29.4668 239.477,29.4668 C240.438,29.4668 241.186,29.7835 241.719,30.417 C242.252,31.0505 242.519,31.9574 242.519,33.1377 L242.519,33.6641 L237.508,33.6641 C237.526,34.3932 237.738,34.9834 238.144,35.4346 C238.554,35.8812 239.073,36.1045 239.702,36.1045 C240.149,36.1045 240.527,36.0133 240.837,35.8311 C241.147,35.6488 241.418,35.4072 241.65,35.1064 L242.423,35.708 C241.803,36.6605 240.873,37.1367 239.634,37.1367 Z M239.477,30.5059 C238.966,30.5059 238.538,30.6927 238.191,31.0664 C237.845,31.4355 237.631,31.9551 237.549,32.625 L241.254,32.625 L241.254,32.5293 C241.217,31.8867 241.044,31.39 240.734,31.0391 C240.424,30.6836 240.005,30.5059 239.477,30.5059 Z M247.813,30.7383 C247.622,30.7064 247.415,30.6904 247.191,30.6904 C246.362,30.6904 245.799,31.0436 245.503,31.75 L245.503,37 L244.238,37 L244.238,29.6035 L245.469,29.6035 L245.489,30.458 C245.904,29.7972 246.492,29.4668 247.253,29.4668 C247.499,29.4668 247.686,29.4987 247.813,29.5625 L247.813,30.7383 Z M250.429,29.6035 L250.47,30.5332 C251.035,29.8223 251.773,29.4668 252.685,29.4668 C254.248,29.4668 255.036,30.3486 255.05,32.1123 L255.05,37 L253.785,37 L253.785,32.1055 C253.781,31.5723 253.658,31.1781 253.416,30.9229 C253.179,30.6676 252.808,30.54 252.302,30.54 C251.892,30.54 251.532,30.6494 251.222,30.8682 C250.912,31.0869 250.67,31.374 250.497,31.7295 L250.497,37 L249.232,37 L249.232,29.6035 L250.429,29.6035 Z"
                  id="Shape" fill-opacity="0.67" fill="#000000" fill-rule="nonzero"></path>
            <path d="M15.9805,152 L15.9805,134.938 L21.5586,134.938 C23.4102,134.938 24.8008,135.32 25.7305,136.086 C26.668,136.852 27.1367,137.984 27.1367,139.484 C27.1367,140.281 26.9102,140.988 26.457,141.605 C26.0039,142.215 25.3867,142.688 24.6055,143.023 C25.5273,143.281 26.2539,143.773 26.7852,144.5 C27.3242,145.219 27.5938,146.078 27.5938,147.078 C27.5938,148.609 27.0977,149.812 26.1055,150.688 C25.1133,151.562 23.7109,152 21.8984,152 L15.9805,152 Z M18.2305,144.02 L18.2305,150.16 L21.9453,150.16 C22.9922,150.16 23.8164,149.891 24.418,149.352 C25.0273,148.805 25.332,148.055 25.332,147.102 C25.332,145.047 24.2148,144.02 21.9805,144.02 L18.2305,144.02 Z M18.2305,142.215 L21.6289,142.215 C22.6133,142.215 23.3984,141.969 23.9844,141.477 C24.5781,140.984 24.875,140.316 24.875,139.473 C24.875,138.535 24.6016,137.855 24.0547,137.434 C23.5078,137.004 22.6758,136.789 21.5586,136.789 L18.2305,136.789 L18.2305,142.215 Z M38.6719,152 C38.5469,151.75 38.4453,151.305 38.3672,150.664 C37.3594,151.711 36.1562,152.234 34.7578,152.234 C33.5078,152.234 32.4805,151.883 31.6758,151.18 C30.8789,150.469 30.4805,149.57 30.4805,148.484 C30.4805,147.164 30.9805,146.141 31.9805,145.414 C32.9883,144.68 34.4023,144.312 36.2227,144.312 L38.332,144.312 L38.332,143.316 C38.332,142.559 38.1055,141.957 37.6523,141.512 C37.1992,141.059 36.5312,140.832 35.6484,140.832 C34.875,140.832 34.2266,141.027 33.7031,141.418 C33.1797,141.809 32.918,142.281 32.918,142.836 L30.7383,142.836 C30.7383,142.203 30.9609,141.594 31.4062,141.008 C31.8594,140.414 32.4688,139.945 33.2344,139.602 C34.0078,139.258 34.8555,139.086 35.7773,139.086 C37.2383,139.086 38.3828,139.453 39.2109,140.188 C40.0391,140.914 40.4688,141.918 40.5,143.199 L40.5,149.035 C40.5,150.199 40.6484,151.125 40.9453,151.812 L40.9453,152 L38.6719,152 Z M35.0742,150.348 C35.7539,150.348 36.3984,150.172 37.0078,149.82 C37.6172,149.469 38.0586,149.012 38.332,148.449 L38.332,145.848 L36.6328,145.848 C33.9766,145.848 32.6484,146.625 32.6484,148.18 C32.6484,148.859 32.875,149.391 33.3281,149.773 C33.7812,150.156 34.3633,150.348 35.0742,150.348 Z M48.1094,148.824 L51.0625,139.32 L53.3828,139.32 L48.2852,153.957 C47.4961,156.066 46.2422,157.121 44.5234,157.121 L44.1133,157.086 L43.3047,156.934 L43.3047,155.176 L43.8906,155.223 C44.625,155.223 45.1953,155.074 45.6016,154.777 C46.0156,154.48 46.3555,153.938 46.6211,153.148 L47.1016,151.859 L42.5781,139.32 L44.9453,139.32 L48.1094,148.824 Z M60.6758,152.234 C58.957,152.234 57.5586,151.672 56.4805,150.547 C55.4023,149.414 54.8633,147.902 54.8633,146.012 L54.8633,145.613 C54.8633,144.355 55.1016,143.234 55.5781,142.25 C56.0625,141.258 56.7344,140.484 57.5938,139.93 C58.4609,139.367 59.3984,139.086 60.4062,139.086 C62.0547,139.086 63.3359,139.629 64.25,140.715 C65.1641,141.801 65.6211,143.355 65.6211,145.379 L65.6211,146.281 L57.0312,146.281 C57.0625,147.531 57.4258,148.543 58.1211,149.316 C58.8242,150.082 59.7148,150.465 60.793,150.465 C61.5586,150.465 62.207,150.309 62.7383,149.996 C63.2695,149.684 63.7344,149.27 64.1328,148.754 L65.457,149.785 C64.3945,151.418 62.8008,152.234 60.6758,152.234 Z M60.4062,140.867 C59.5312,140.867 58.7969,141.188 58.2031,141.828 C57.6094,142.461 57.2422,143.352 57.1016,144.5 L63.4531,144.5 L63.4531,144.336 C63.3906,143.234 63.0938,142.383 62.5625,141.781 C62.0312,141.172 61.3125,140.867 60.4062,140.867 Z M74.5195,141.266 C74.1914,141.211 73.8359,141.184 73.4531,141.184 C72.0312,141.184 71.0664,141.789 70.5586,143 L70.5586,152 L68.3906,152 L68.3906,139.32 L70.5,139.32 L70.5352,140.785 C71.2461,139.652 72.2539,139.086 73.5586,139.086 C73.9805,139.086 74.3008,139.141 74.5195,139.25 L74.5195,141.266 Z M79.1289,152 L76.9609,152 L76.9609,139.32 L79.1289,139.32 L79.1289,152 Z M76.7852,135.957 C76.7852,135.605 76.8906,135.309 77.1016,135.066 C77.3203,134.824 77.6406,134.703 78.0625,134.703 C78.4844,134.703 78.8047,134.824 79.0234,135.066 C79.2422,135.309 79.3516,135.605 79.3516,135.957 C79.3516,136.309 79.2422,136.602 79.0234,136.836 C78.8047,137.07 78.4844,137.188 78.0625,137.188 C77.6406,137.188 77.3203,137.07 77.1016,136.836 C76.8906,136.602 76.7852,136.309 76.7852,135.957 Z M90.2422,148.637 C90.2422,148.051 90.0195,147.598 89.5742,147.277 C89.1367,146.949 88.3672,146.668 87.2656,146.434 C86.1719,146.199 85.3008,145.918 84.6523,145.59 C84.0117,145.262 83.5352,144.871 83.2227,144.418 C82.918,143.965 82.7656,143.426 82.7656,142.801 C82.7656,141.762 83.2031,140.883 84.0781,140.164 C84.9609,139.445 86.0859,139.086 87.4531,139.086 C88.8906,139.086 90.0547,139.457 90.9453,140.199 C91.8438,140.941 92.293,141.891 92.293,143.047 L90.1133,143.047 C90.1133,142.453 89.8594,141.941 89.3516,141.512 C88.8516,141.082 88.2188,140.867 87.4531,140.867 C86.6641,140.867 86.0469,141.039 85.6016,141.383 C85.1562,141.727 84.9336,142.176 84.9336,142.73 C84.9336,143.254 85.1406,143.648 85.5547,143.914 C85.9688,144.18 86.7148,144.434 87.793,144.676 C88.8789,144.918 89.7578,145.207 90.4297,145.543 C91.1016,145.879 91.5977,146.285 91.918,146.762 C92.2461,147.23 92.4102,147.805 92.4102,148.484 C92.4102,149.617 91.957,150.527 91.0508,151.215 C90.1445,151.895 88.9688,152.234 87.5234,152.234 C86.5078,152.234 85.6094,152.055 84.8281,151.695 C84.0469,151.336 83.4336,150.836 82.9883,150.195 C82.5508,149.547 82.332,148.848 82.332,148.098 L84.5,148.098 C84.5391,148.824 84.8281,149.402 85.3672,149.832 C85.9141,150.254 86.6328,150.465 87.5234,150.465 C88.3438,150.465 89,150.301 89.4922,149.973 C89.9922,149.637 90.2422,149.191 90.2422,148.637 Z M100.57,150.465 C101.344,150.465 102.02,150.23 102.598,149.762 C103.176,149.293 103.496,148.707 103.559,148.004 L105.609,148.004 C105.57,148.73 105.32,149.422 104.859,150.078 C104.398,150.734 103.781,151.258 103.008,151.648 C102.242,152.039 101.43,152.234 100.57,152.234 C98.8438,152.234 97.4688,151.66 96.4453,150.512 C95.4297,149.355 94.9219,147.777 94.9219,145.777 L94.9219,145.414 C94.9219,144.18 95.1484,143.082 95.6016,142.121 C96.0547,141.16 96.7031,140.414 97.5469,139.883 C98.3984,139.352 99.4023,139.086 100.559,139.086 C101.98,139.086 103.16,139.512 104.098,140.363 C105.043,141.215 105.547,142.32 105.609,143.68 L103.559,143.68 C103.496,142.859 103.184,142.188 102.621,141.664 C102.066,141.133 101.379,140.867 100.559,140.867 C99.457,140.867 98.6016,141.266 97.9922,142.062 C97.3906,142.852 97.0898,143.996 97.0898,145.496 L97.0898,145.906 C97.0898,147.367 97.3906,148.492 97.9922,149.281 C98.5938,150.07 99.4531,150.465 100.57,150.465 Z M110.465,140.855 C111.426,139.676 112.676,139.086 114.215,139.086 C116.895,139.086 118.246,140.598 118.27,143.621 L118.27,152 L116.102,152 L116.102,143.609 C116.094,142.695 115.883,142.02 115.469,141.582 C115.062,141.145 114.426,140.926 113.559,140.926 C112.855,140.926 112.238,141.113 111.707,141.488 C111.176,141.863 110.762,142.355 110.465,142.965 L110.465,152 L108.297,152 L108.297,134 L110.465,134 L110.465,140.855 Z M127.027,152.234 C125.309,152.234 123.91,151.672 122.832,150.547 C121.754,149.414 121.215,147.902 121.215,146.012 L121.215,145.613 C121.215,144.355 121.453,143.234 121.93,142.25 C122.414,141.258 123.086,140.484 123.945,139.93 C124.812,139.367 125.75,139.086 126.758,139.086 C128.406,139.086 129.688,139.629 130.602,140.715 C131.516,141.801 131.973,143.355 131.973,145.379 L131.973,146.281 L123.383,146.281 C123.414,147.531 123.777,148.543 124.473,149.316 C125.176,150.082 126.066,150.465 127.145,150.465 C127.91,150.465 128.559,150.309 129.09,149.996 C129.621,149.684 130.086,149.27 130.484,148.754 L131.809,149.785 C130.746,151.418 129.152,152.234 127.027,152.234 Z M126.758,140.867 C125.883,140.867 125.148,141.188 124.555,141.828 C123.961,142.461 123.594,143.352 123.453,144.5 L129.805,144.5 L129.805,144.336 C129.742,143.234 129.445,142.383 128.914,141.781 C128.383,141.172 127.664,140.867 126.758,140.867 Z M25.625,172.113 L18.2305,172.113 L18.2305,178.16 L26.8203,178.16 L26.8203,180 L15.9805,180 L15.9805,162.938 L26.7031,162.938 L26.7031,164.789 L18.2305,164.789 L18.2305,170.273 L25.625,170.273 L25.625,172.113 Z M31.6992,168.855 C32.6602,167.676 33.9102,167.086 35.4492,167.086 C38.1289,167.086 39.4805,168.598 39.5039,171.621 L39.5039,180 L37.3359,180 L37.3359,171.609 C37.3281,170.695 37.1172,170.02 36.7031,169.582 C36.2969,169.145 35.6602,168.926 34.793,168.926 C34.0898,168.926 33.4727,169.113 32.9414,169.488 C32.4102,169.863 31.9961,170.355 31.6992,170.965 L31.6992,180 L29.5312,180 L29.5312,162 L31.6992,162 L31.6992,168.855 Z M49.1289,169.266 C48.8008,169.211 48.4453,169.184 48.0625,169.184 C46.6406,169.184 45.6758,169.789 45.168,171 L45.168,180 L43,180 L43,167.32 L45.1094,167.32 L45.1445,168.785 C45.8555,167.652 46.8633,167.086 48.168,167.086 C48.5898,167.086 48.9102,167.141 49.1289,167.25 L49.1289,169.266 Z M56.4102,180.234 C54.6914,180.234 53.293,179.672 52.2148,178.547 C51.1367,177.414 50.5977,175.902 50.5977,174.012 L50.5977,173.613 C50.5977,172.355 50.8359,171.234 51.3125,170.25 C51.7969,169.258 52.4688,168.484 53.3281,167.93 C54.1953,167.367 55.1328,167.086 56.1406,167.086 C57.7891,167.086 59.0703,167.629 59.9844,168.715 C60.8984,169.801 61.3555,171.355 61.3555,173.379 L61.3555,174.281 L52.7656,174.281 C52.7969,175.531 53.1602,176.543 53.8555,177.316 C54.5586,178.082 55.4492,178.465 56.5273,178.465 C57.293,178.465 57.9414,178.309 58.4727,177.996 C59.0039,177.684 59.4688,177.27 59.8672,176.754 L61.1914,177.785 C60.1289,179.418 58.5352,180.234 56.4102,180.234 Z M56.1406,168.867 C55.2656,168.867 54.5312,169.188 53.9375,169.828 C53.3438,170.461 52.9766,171.352 52.8359,172.5 L59.1875,172.5 L59.1875,172.336 C59.125,171.234 58.8281,170.383 58.2969,169.781 C57.7656,169.172 57.0469,168.867 56.1406,168.867 Z M66.1758,167.32 L66.2461,168.914 C67.2148,167.695 68.4805,167.086 70.043,167.086 C72.7227,167.086 74.0742,168.598 74.0977,171.621 L74.0977,180 L71.9297,180 L71.9297,171.609 C71.9219,170.695 71.7109,170.02 71.2969,169.582 C70.8906,169.145 70.2539,168.926 69.3867,168.926 C68.6836,168.926 68.0664,169.113 67.5352,169.488 C67.0039,169.863 66.5898,170.355 66.293,170.965 L66.293,180 L64.125,180 L64.125,167.32 L66.1758,167.32 Z M85.4453,180 C85.3203,179.75 85.2188,179.305 85.1406,178.664 C84.1328,179.711 82.9297,180.234 81.5312,180.234 C80.2812,180.234 79.2539,179.883 78.4492,179.18 C77.6523,178.469 77.2539,177.57 77.2539,176.484 C77.2539,175.164 77.7539,174.141 78.7539,173.414 C79.7617,172.68 81.1758,172.312 82.9961,172.312 L85.1055,172.312 L85.1055,171.316 C85.1055,170.559 84.8789,169.957 84.4258,169.512 C83.9727,169.059 83.3047,168.832 82.4219,168.832 C81.6484,168.832 81,169.027 80.4766,169.418 C79.9531,169.809 79.6914,170.281 79.6914,170.836 L77.5117,170.836 C77.5117,170.203 77.7344,169.594 78.1797,169.008 C78.6328,168.414 79.2422,167.945 80.0078,167.602 C80.7812,167.258 81.6289,167.086 82.5508,167.086 C84.0117,167.086 85.1562,167.453 85.9844,168.188 C86.8125,168.914 87.2422,169.918 87.2734,171.199 L87.2734,177.035 C87.2734,178.199 87.4219,179.125 87.7188,179.812 L87.7188,180 L85.4453,180 Z M81.8477,178.348 C82.5273,178.348 83.1719,178.172 83.7812,177.82 C84.3906,177.469 84.832,177.012 85.1055,176.449 L85.1055,173.848 L83.4062,173.848 C80.75,173.848 79.4219,174.625 79.4219,176.18 C79.4219,176.859 79.6484,177.391 80.1016,177.773 C80.5547,178.156 81.1367,178.348 81.8477,178.348 Z M92.9609,167.32 L93.0195,168.727 C93.9492,167.633 95.2031,167.086 96.7812,167.086 C98.5547,167.086 99.7617,167.766 100.402,169.125 C100.824,168.516 101.371,168.023 102.043,167.648 C102.723,167.273 103.523,167.086 104.445,167.086 C107.227,167.086 108.641,168.559 108.688,171.504 L108.688,180 L106.52,180 L106.52,171.633 C106.52,170.727 106.312,170.051 105.898,169.605 C105.484,169.152 104.789,168.926 103.812,168.926 C103.008,168.926 102.34,169.168 101.809,169.652 C101.277,170.129 100.969,170.773 100.883,171.586 L100.883,180 L98.7031,180 L98.7031,171.691 C98.7031,169.848 97.8008,168.926 95.9961,168.926 C94.5742,168.926 93.6016,169.531 93.0781,170.742 L93.0781,180 L90.9102,180 L90.9102,167.32 L92.9609,167.32 Z M115.16,164.25 L115.16,167.32 L117.527,167.32 L117.527,168.996 L115.16,168.996 L115.16,176.859 C115.16,177.367 115.266,177.75 115.477,178.008 C115.688,178.258 116.047,178.383 116.555,178.383 C116.805,178.383 117.148,178.336 117.586,178.242 L117.586,180 C117.016,180.156 116.461,180.234 115.922,180.234 C114.953,180.234 114.223,179.941 113.73,179.355 C113.238,178.77 112.992,177.938 112.992,176.859 L112.992,168.996 L110.684,168.996 L110.684,167.32 L112.992,167.32 L112.992,164.25 L115.16,164.25 Z M127.703,176.637 C127.703,176.051 127.48,175.598 127.035,175.277 C126.598,174.949 125.828,174.668 124.727,174.434 C123.633,174.199 122.762,173.918 122.113,173.59 C121.473,173.262 120.996,172.871 120.684,172.418 C120.379,171.965 120.227,171.426 120.227,170.801 C120.227,169.762 120.664,168.883 121.539,168.164 C122.422,167.445 123.547,167.086 124.914,167.086 C126.352,167.086 127.516,167.457 128.406,168.199 C129.305,168.941 129.754,169.891 129.754,171.047 L127.574,171.047 C127.574,170.453 127.32,169.941 126.812,169.512 C126.312,169.082 125.68,168.867 124.914,168.867 C124.125,168.867 123.508,169.039 123.062,169.383 C122.617,169.727 122.395,170.176 122.395,170.73 C122.395,171.254 122.602,171.648 123.016,171.914 C123.43,172.18 124.176,172.434 125.254,172.676 C126.34,172.918 127.219,173.207 127.891,173.543 C128.562,173.879 129.059,174.285 129.379,174.762 C129.707,175.23 129.871,175.805 129.871,176.484 C129.871,177.617 129.418,178.527 128.512,179.215 C127.605,179.895 126.43,180.234 124.984,180.234 C123.969,180.234 123.07,180.055 122.289,179.695 C121.508,179.336 120.895,178.836 120.449,178.195 C120.012,177.547 119.793,176.848 119.793,176.098 L121.961,176.098 C122,176.824 122.289,177.402 122.828,177.832 C123.375,178.254 124.094,178.465 124.984,178.465 C125.805,178.465 126.461,178.301 126.953,177.973 C127.453,177.637 127.703,177.191 127.703,176.637 Z M136.484,174.129 L135.125,175.547 L135.125,180 L132.957,180 L132.957,162 L135.125,162 L135.125,172.887 L136.285,171.492 L140.234,167.32 L142.871,167.32 L137.938,172.617 L143.445,180 L140.902,180 L136.484,174.129 Z M153.188,180 C153.062,179.75 152.961,179.305 152.883,178.664 C151.875,179.711 150.672,180.234 149.273,180.234 C148.023,180.234 146.996,179.883 146.191,179.18 C145.395,178.469 144.996,177.57 144.996,176.484 C144.996,175.164 145.496,174.141 146.496,173.414 C147.504,172.68 148.918,172.312 150.738,172.312 L152.848,172.312 L152.848,171.316 C152.848,170.559 152.621,169.957 152.168,169.512 C151.715,169.059 151.047,168.832 150.164,168.832 C149.391,168.832 148.742,169.027 148.219,169.418 C147.695,169.809 147.434,170.281 147.434,170.836 L145.254,170.836 C145.254,170.203 145.477,169.594 145.922,169.008 C146.375,168.414 146.984,167.945 147.75,167.602 C148.523,167.258 149.371,167.086 150.293,167.086 C151.754,167.086 152.898,167.453 153.727,168.188 C154.555,168.914 154.984,169.918 155.016,171.199 L155.016,177.035 C155.016,178.199 155.164,179.125 155.461,179.812 L155.461,180 L153.188,180 Z M149.59,178.348 C150.27,178.348 150.914,178.172 151.523,177.82 C152.133,177.469 152.574,177.012 152.848,176.449 L152.848,173.848 L151.148,173.848 C148.492,173.848 147.164,174.625 147.164,176.18 C147.164,176.859 147.391,177.391 147.844,177.773 C148.297,178.156 148.879,178.348 149.59,178.348 Z M164.793,169.266 C164.465,169.211 164.109,169.184 163.727,169.184 C162.305,169.184 161.34,169.789 160.832,171 L160.832,180 L158.664,180 L158.664,167.32 L160.773,167.32 L160.809,168.785 C161.52,167.652 162.527,167.086 163.832,167.086 C164.254,167.086 164.574,167.141 164.793,167.25 L164.793,169.266 Z M170.574,164.25 L170.574,167.32 L172.941,167.32 L172.941,168.996 L170.574,168.996 L170.574,176.859 C170.574,177.367 170.68,177.75 170.891,178.008 C171.102,178.258 171.461,178.383 171.969,178.383 C172.219,178.383 172.562,178.336 173,178.242 L173,180 C172.43,180.156 171.875,180.234 171.336,180.234 C170.367,180.234 169.637,179.941 169.145,179.355 C168.652,178.77 168.406,177.938 168.406,176.859 L168.406,168.996 L166.098,168.996 L166.098,167.32 L168.406,167.32 L168.406,164.25 L170.574,164.25 Z M180.996,180.234 C179.277,180.234 177.879,179.672 176.801,178.547 C175.723,177.414 175.184,175.902 175.184,174.012 L175.184,173.613 C175.184,172.355 175.422,171.234 175.898,170.25 C176.383,169.258 177.055,168.484 177.914,167.93 C178.781,167.367 179.719,167.086 180.727,167.086 C182.375,167.086 183.656,167.629 184.57,168.715 C185.484,169.801 185.941,171.355 185.941,173.379 L185.941,174.281 L177.352,174.281 C177.383,175.531 177.746,176.543 178.441,177.316 C179.145,178.082 180.035,178.465 181.113,178.465 C181.879,178.465 182.527,178.309 183.059,177.996 C183.59,177.684 184.055,177.27 184.453,176.754 L185.777,177.785 C184.715,179.418 183.121,180.234 180.996,180.234 Z M180.727,168.867 C179.852,168.867 179.117,169.188 178.523,169.828 C177.93,170.461 177.562,171.352 177.422,172.5 L183.773,172.5 L183.773,172.336 C183.711,171.234 183.414,170.383 182.883,169.781 C182.352,169.172 181.633,168.867 180.727,168.867 Z"
                  id="Shape" fill="#FFFFFF" fill-rule="nonzero"></path>
            <polygon id="Path" fill-opacity="0.539628623" fill="#FFFFE8"
                     points="184 81 189.388 97.584 206.825 97.584 192.719 107.833 198.107 124.416 184 114.167 169.893 124.416 175.281 107.833 161.175 97.584 178.612 97.584"></polygon>
            <polygon id="Path" fill-opacity="0.539628623" fill="#FFFFE8"
                     points="227 63 232.388 79.5836 249.825 79.5836 235.719 89.8328 241.107 106.416 227 96.167 212.893 106.416 218.281 89.8328 204.175 79.5836 221.612 79.5836"></polygon>
            <polygon id="Path" fill-opacity="0.539628623" fill="#FFFFE8"
                     points="251 106 256.388 122.584 273.825 122.584 259.719 132.833 265.107 149.416 251 139.167 236.893 149.416 242.281 132.833 228.175 122.584 245.612 122.584"></polygon>
        </g>
    </g>
</svg>