<svg version="1.1" viewBox="0 0 42.016 17.433" xmlns="http://www.w3.org/2000/svg"><path d="m31.222 9.1809c-.39324.062565-2.0278 3.377-2.5822 3.058-.55421-.31908.59334-5.1851.23574-5.5355-.35758-.35037-2.7639-.27188-2.858-.86888-.094134-.59701 2.0141-.72881 4.4996-1.1231 2.4704-.39195 4.3529-.89617 4.4468-.30023.09396.59594-2.5335 1.8285-2.7658 2.2727-.2323.44422 2.4387 4.6009 1.9471 4.6791-.49156.07821-2.5301-2.2446-2.9233-2.182z" fill="#cfb243" stroke-width=".015519"/><path transform="matrix(.98758 -.15712 .15575 .9878 0 0)" d="m30.466 7.3363a1.3937 1.4077 0 0 1-1.3937 1.4077 1.3937 1.4077 0 0 1-1.3937-1.4077 1.3937 1.4077 0 0 1 1.3937-1.4077 1.3937 1.4077 0 0 1 1.3937 1.4077z" fill="#cfb243" stroke-width=".015519"/><path d="m38.262 7.907c-.39372.06264-2.0309 3.3776-2.5856 3.0587-.55479-.31901.59495-5.1856.23702-5.5359-.35793-.35028-2.7671-.27138-2.8612-.86843-.094136-.59703 2.0167-.72924 4.5051-1.124 2.4734-.39241 4.3581-.89701 4.452-.30104s-2.5368 1.8291-2.7694 2.2733c-.23252.4442 2.4408 4.6008 1.9486 4.6791-.4922.078309-2.5328-2.2443-2.9264-2.1817z" fill="#8178a5" stroke-width=".015519"/><path transform="matrix(.98758 -.15712 .15575 .9878 0 0)" d="m37.619 7.1841a1.3954 1.4078 0 0 1-1.3954 1.4078 1.3954 1.4078 0 0 1-1.3954-1.4078 1.3954 1.4078 0 0 1 1.3954-1.4078 1.3954 1.4078 0 0 1 1.3954 1.4078z" fill="#8178a5" stroke-width=".015519"/><path d="m2.766 11.48q0 .95815-1.2347.95815h-1.5311v-.14323q.1531-.01.25188-.0148.0988-.005.14323-.0691.0494-.0692.0494-.23213v-2.4991q0-.16298-.0494-.22719-.0444-.0691-.14323-.0741-.0988-.005-.25188-.0148v-.14323h1.4273q.18274 0 .33091.0148.15311.0148.31609.0642.16792.0494.27658.13335.10865.084.18274.23212.0741.14323.0741.34079 0 .30621-.20743.50376-.20744.19262-.52847.25683v.01q.40993.0543.65194.28152.242.22719.242.6223zm-.67662-1.6446q0-.3309-.20744-.48401-.20743-.15804-.54821-.15804-.0938-.005-.16793 0-.0741 0-.12841.0197-.0494.0148-.079.0692-.0247.0543-.0247.15804v1.0717h.3309q.8248 0 .8248-.67663zm.14816 1.6792q0-.4198-.26176-.6223-.25682-.20743-.6865-.20743h-.3556v1.2002q0 .24694.0988.31609.10372.0642.37536.0642.82973 0 .82973-.75071z" fill="#172c82" stroke-width=".26458"/><path d="m5.606 12.35q-.29633.14816-.58278.14816-.12842 0-.19756-.0741-.0691-.079-.12347-.22225-.44944.29633-.7359.29633-.31609 0-.51364-.19261-.19756-.19262-.19756-.50871 0-.43956.45932-.58773.14323-.0346.52352-.15804.3803-.12841.4692-.21731v-.20744q0-.22225-.10372-.3556-.10372-.13829-.31609-.13829-.34572 0-.5087.48402-.0247.0741-.0543.10865-.0296.0296-.10372.0296-.0988 0-.18768-.0642-.0889-.0692-.0889-.16792 0-.13829.10866-.25189.11359-.11853.27658-.18274.16792-.0642.32596-.0938.16299-.0346.28646-.0346.39511 0 .60254.14323.20744.14323.20744.51365v1.1952q0 .13829.01.21731.0148.079.079.14816.0642.0692.18767.0692.0741 0 .14817-.0148zm-.89887-.61737v-.69638q-.0938.0593-.28152.12841-.18768.0642-.32103.1136t-.242.16792q-.10866.11359-.10866.28152 0 .22718.1136.37041.11853.13829.34078.13829.22719 0 .36054-.13829.13829-.13829.13829-.36548z" fill="#172c82" stroke-width=".26458"/><path d="m8.206 10.16q-.17286.01-.23707.0543-.0593.0395-.12841.19755-.15804.34572-.3309.79022-.16793.4445-.30128.82974-.12841.38029-.28151.80997-.0444.12842-.079.20744-.0296.084-.0988.20743-.0642.12347-.13335.19262-.0642.0741-.16792.12841-.10372.0543-.22225.0543-.11854 0-.23213-.0741-.1136-.0691-.1136-.18274 0-.0889.0642-.18273.0642-.0938.1531-.0938.0741 0 .16793.084.0938.0889.16298.0889.12841 0 .23213-.23707.10371-.23213.10371-.39017 0-.1136-.0395-.24201-.0148-.0445-.29633-.79022-.38029-.96308-.47907-1.1952-.0691-.16298-.13335-.20249-.0642-.0444-.24201-.0543v-.14323h1.131v.14323q-.005 0-.0543.005-.0494 0-.084.005-.0346 0-.079.01-.0395.01-.0642.0296-.0247.0148-.0247.0395 0 .10865.62724 1.7385h.01q.13829-.37042.34573-.98284.21237-.61736.21237-.73096 0-.079-.13335-.0988-.13335-.0247-.2025-.0148v-.14323h.94827z" fill="#172c82" stroke-width=".26458"/><path d="m10.476 10.95q0 .18768-.19756.18768h-1.4224v.0543q0 1.052.72602 1.052.46919 0 .71614-.52352l.14817.079q-.23707.69638-.98284.69638-1.1211 0-1.1211-1.2495 0-.57291.28645-.92851.28646-.36054.84949-.36054.47414 0 .7359.26176.26176.26177.26176.73096zm-.51365-.15804q0-.28152-.12347-.4692-.12347-.19262-.39017-.19262-.29633 0-.4445.25189-.14323.25188-.14323.56797h.93345q.16792 0 .16792-.15804z" fill="#172c82" stroke-width=".26458"/><path d="m12.546 10.2q0 .0988-.0642.18768-.0642.0889-.16298.0889-.0494 0-.18274-.0642-.13335-.0691-.22225-.0691-.14816 0-.21731.16792-.0642.16792-.0642.34078v1.1557q0 .15311.0593.21731t.16299.0642q.10865-.005.24694.005v.14323h-1.3039v-.14323q.10372-.005.17287-.01.0691-.005.11359-.0296.0444-.0247.0642-.079.0198-.0593.0198-.16792v-1.5558q0-.12347-.0395-.17286-.0395-.0494-.11853-.0543-.0741-.005-.18768-.0197v-.12347l.75071-.12348.0593.39511q.0543-.0543.13829-.12347.084-.0691.16298-.12841.079-.0593.17286-.0988.0938-.0444.1778-.0444.11359 0 .18768.0642.0741.0642.0741.1778z" fill="#172c82" stroke-width=".26458"/><path d="m13.536 8.99q.084.084.084.21731 0 .13335-.084.21731-.084.079-.21731.079-.13335 0-.21732-.079-.084-.084-.084-.21731 0-.13335.084-.21731.084-.0889.21732-.0889.13335 0 .21731.0889zm.39017 3.4424h-1.2051v-.14323q.10372-.005.17286-.01.0741-.005.1136-.0247.0444-.0247.0642-.079.0198-.0593.0198-.17286v-1.5558q0-.12347-.0395-.17286-.0395-.0494-.11854-.0543-.0741-.005-.18768-.0197v-.12347l.77541-.12348.0346.0296v2.02q0 .10866.0198.16792.0198.0543.0642.079t.1136.0296q.0691.005.17286.01z" fill="#172c82" stroke-width=".26458"/><path d="m15.976 11.76q0 .36054-.27164.54821-.27163.18274-.65193.18274-.49883 0-.77047-.23706l-.0494-.647h.14322q.16793.7112.72108.7112.19262 0 .32597-.10865.13335-.1136.13335-.30128 0-.19261-.13335-.31115-.12841-.11853-.31609-.18274-.18768-.0642-.3803-.13335-.18767-.0741-.32102-.22225-.12841-.1531-.12841-.38523 0-.36548.25682-.54328.26176-.1778.64205-.1778.40993 0 .63712.16793v.57785h-.14323q-.0296-.25189-.17286-.40993-.13829-.16299-.38029-.16299-.18768 0-.31609.10866-.12841.10372-.12841.29139 0 .13829.0938.23213.0988.0938.242.14323.14817.0445.31609.11359.16792.0642.31115.13829.14817.0741.24201.23213.0988.15311.0988.37536z" fill="#172c82" stroke-width=".26458"/><path d="m18.486 11.78q-.084.32597-.34572.51859-.26176.19261-.60255.19261-.57785 0-.8643-.32596-.28152-.33091-.28152-.91864 0-.59266.30621-.94333.30621-.35066.89394-.35066.15805 0 .34078.0444.18768.0395.35067.15311.16792.11359.16792.28152 0 .11359-.0889.18273-.0889.0692-.2025.0692-.0741 0-.13335-.084-.0543-.0889-.0938-.19262-.0395-.10865-.14322-.19262-.0988-.0889-.25189-.0889-.18767 0-.32102.10372-.12842.0988-.19262.2667-.0642.16298-.0938.32597-.0247.16298-.0247.33584 0 .19262.0296.37042.0346.17286.10865.34078.079.16792.22719.2667.15311.0988.36054.0988.2667 0 .42969-.12841.16792-.13335.28151-.39511z" fill="#172c82" stroke-width=".26458"/><path d="m21.526 12.43h-1.2051v-.14323q.0988-.005.16792-.01.0741-.01.11853-.0296.0445-.0247.0642-.079.0198-.0593.0198-.16792v-1.1656q0-.61736-.51859-.61736-.1778 0-.34572.10372-.16792.0988-.24694.25682-.0444.084-.0444.2667v1.1557q0 .084.01.13829.0148.0543.0444.084.0296.0247.0741.0395.0445.01.10371.0148.0593.005.13829.01v.14323h-1.2002v-.14323q.0988-.005.16792-.01.0692-.01.1136-.0296.0444-.0247.0642-.079.0198-.0593.0198-.16792v-2.7411q0-.12347-.0395-.17286-.0395-.0494-.11853-.0543-.0741-.005-.18768-.0198v-.12347l.77046-.12347.0346.0296v1.5311q.10371-.0741.21237-.13829.10865-.0691.20743-.11853.0988-.0543.22225-.084.12347-.0346.25189-.0346.3556 0 .54327.21238.18768.21237.18768.57291v1.2644q0 .084.01.13829.0148.0543.0444.084.0296.0247.0741.0395.0444.01.10372.0148.0593.005.13829.01z" fill="#172c82" stroke-width=".26458"/><path d="m23.976 10.95q0 .18768-.19756.18768h-1.4224v.0543q0 1.052.72602 1.052.4692 0 .71614-.52352l.14817.079q-.23707.69638-.98284.69638-1.1211 0-1.1211-1.2495 0-.57291.28646-.92851.28645-.36054.84948-.36054.47414 0 .7359.26176.26176.26177.26176.73096zm-.51364-.15804q0-.28152-.12348-.4692-.12347-.19262-.39017-.19262-.29633 0-.4445.25189-.14323.25188-.14323.56797h.93345q.16793 0 .16793-.15804z" fill="#172c82" stroke-width=".26458"/><path d="m2.676 16.52-.0593.85442h-2.6176v-.14322q.1531-.01.25188-.0148.0988-.005.14323-.0691.0494-.0692.0494-.23213v-2.4991q0-.16298-.0494-.22719-.0444-.0691-.14323-.0741-.0988-.005-.25188-.0148v-.14323h2.4941v.80998h-.14816q-.0494-.39511-.19756-.51364-.14323-.12348-.54821-.12348h-.48402q-.11853 0-.1531.0296-.0296.0296-.0296.14816v1.1952h.69144q.27658 0 .36054-.079.084-.079.12347-.34572h.14817v1.0421h-.14817q-.0395-.27164-.12347-.35066-.084-.079-.36054-.079h-.69144v1.0915q-.005.0444 0 .10371.005.0593.01.10866.005.0494.0346.0938.0296.0445.079.0642.11359.0494.51364.0494.24695 0 .38524-.0198.13828-.0198.26176-.084.12841-.0692.19755-.20744.0692-.13829.1136-.37041z" fill="#172c82" stroke-width=".26458"/><path d="m5.746 17.37h-1.2051v-.14322q.0988-.005.16793-.01.0741-.01.11853-.0296.0444-.0247.0642-.079.0198-.0593.0198-.16792v-1.1656q0-.61736-.51858-.61736-.1778 0-.34573.10372-.16792.0988-.24694.25682-.0445.084-.0445.2667v1.1557q0 .084.01.13829.0148.0543.0444.084.0296.0247.0741.0395.0444.01.10372.0148.0593.005.13829.01v.14322h-1.2002v-.14322q.0988-.005.16792-.01.0691-.01.11359-.0296.0445-.0247.0642-.079.0198-.0593.0198-.16792v-2.7411q0-.12347-.0395-.17286-.0395-.0494-.11853-.0543-.0741-.005-.18768-.0198v-.12347l.77047-.12347.0346.0296v1.5311q.10372-.0741.21237-.13829.10866-.0691.20744-.11853.0988-.0543.22225-.084.12347-.0346.25188-.0346.3556 0 .54328.21237.18768.21238.18768.57292v1.2644q0 .084.01.13829.0148.0543.0445.084.0296.0247.0741.0395.0444.01.10371.0148.0593.005.13829.01z" fill="#172c82" stroke-width=".26458"/><path d="m7.726 15.14q0 .0988-.0642.18768-.0642.0889-.16298.0889-.0494 0-.18274-.0642-.13335-.0691-.22225-.0691-.14816 0-.21731.16792-.0642.16792-.0642.34078v1.1557q0 .15311.0593.21731t.16299.0642q.10865-.005.24694.005v.14322h-1.3039v-.14322q.10372-.005.17286-.01.0692-.005.1136-.0296.0444-.0247.0642-.079.0198-.0593.0198-.16792v-1.5558q0-.12347-.0395-.17286-.0395-.0494-.11853-.0543-.0741-.005-.18768-.0198v-.12348l.75071-.12347.0593.39511q.0543-.0543.13828-.12347.084-.0691.16299-.12841.079-.0593.17286-.0988.0938-.0445.1778-.0445.11359 0 .18768.0642.0741.0642.0741.1778z" fill="#172c82" stroke-width=".26458"/><path d="m10.116 15.89q0 .18768-.19756.18768h-1.4224v.0543q0 1.052.72602 1.052.46919 0 .71614-.52352l.14817.079q-.23707.69638-.98284.69638-1.1211 0-1.1211-1.2495 0-.57291.28645-.92851.28646-.36054.84949-.36054.47414 0 .7359.26176t.26176.73096zm-.51365-.15805q0-.28151-.12347-.46919-.12347-.19262-.39017-.19262-.29633 0-.4445.25189-.14323.25188-.14323.56797h.93345q.16792 0 .16792-.15805z" fill="#172c82" stroke-width=".26458"/><path d="m13.266 17.37h-1.2051v-.14322q.10372-.005.17286-.01.0741-.005.1136-.0296.0445-.0247.0642-.079.0198-.0593.0198-.16792v-1.1656q0-.61736-.51859-.61736-.1778 0-.34572.0988-.16298.0988-.242.25682-.0494.0988-.0494.27164v1.1557q0 .10866.0198.16792.0198.0543.0642.079.0445.0247.11359.0296.0692.005.17286.01v.14322h-1.2051v-.14322q.10372-.005.17287-.01.0741-.005.11359-.0296.0444-.0247.0642-.079.0197-.0593.0197-.16792v-1.5558q0-.12347-.0395-.17286-.0395-.0494-.11853-.0543-.0741-.005-.18768-.0198v-.12348l.73589-.12347.0691.37536q.10371-.0692.21237-.13829.10866-.0691.20743-.11853.10372-.0543.22719-.084.12347-.0346.25189-.0346.3556 0 .53833.21237.18768.21238.18768.57292v1.2644q0 .10866.0198.16792.0198.0543.0642.079t.1136.0296q.0691.005.17286.01z" fill="#172c82" stroke-width=".26458"/><path d="m15.926 17.28q-.29633.14817-.58279.14817-.12841 0-.19756-.0741-.0691-.079-.12347-.22225-.44944.29633-.73589.29633-.31609 0-.51365-.19262-.19755-.19261-.19755-.5087 0-.43956.45931-.58773.14323-.0346.52353-.15804.38029-.12841.46919-.21731v-.20744q0-.22225-.10372-.3556-.10371-.13829-.31608-.13829-.34573 0-.50871.48401-.0247.0741-.0543.10866-.0296.0296-.10371.0296-.0988 0-.18768-.0642-.0889-.0692-.0889-.16792 0-.13829.10865-.25189.1136-.11853.27658-.18274.16792-.0642.32597-.0938.16298-.0346.28645-.0346.39511 0 .60255.14323.20743.14323.20743.51364v1.1952q0 .13828.01.21731.0148.079.079.14816.0642.0692.18768.0692.0741 0 .14817-.0148zm-.89888-.61736v-.69638q-.0938.0593-.28152.12841-.18767.0642-.32102.1136t-.24201.16792q-.10865.11359-.10865.28151 0 .22719.11359.37042.11853.13829.34078.13829.22719 0 .36054-.13829.13829-.13829.13829-.36548z" fill="#172c82" stroke-width=".26458"/><path d="m20.406 17.37h-1.2051v-.14322q.10372-.005.17287-.01.0741-.005.11359-.0296.0444-.0247.0642-.079.0198-.0593.0198-.16792v-1.1656q0-.61736-.49883-.61736-.28645 0-.4445.17286-.1531.16793-.1531.45438v1.1557q0 .10866.0198.16792.0198.0543.0642.079.0445.0247.11359.0296.0692.005.17286.01v.14322h-1.2051v-.14322q.10371-.005.17286-.01.0741-.005.11359-.0296.0444-.0247.0642-.079.0197-.0593.0197-.16792v-1.1656q0-.29633-.0988-.45437-.0988-.16299-.37535-.16299-.18274 0-.34572.10372-.15805.0988-.23707.26176-.0395.084-.0395.26176v1.1557q0 .10866.0198.16792.0198.0543.0642.079t.11359.0296q.0691.005.17287.01v.14322h-1.2051v-.14322q.10371-.005.17286-.01.0741-.005.11359-.0296.0444-.0247.0642-.079.0198-.0593.0198-.16792v-1.5558q0-.12347-.0395-.17286-.0395-.0494-.11853-.0543-.0741-.005-.18768-.0198v-.12348l.76553-.12347.0444.37536q.242-.1778.43956-.27658.19756-.0988.42474-.0988.45932 0 .65194.3803.0494-.0296.15804-.10372.1136-.079.16792-.10866.0593-.0346.15311-.079.0988-.0494.18768-.0691.0938-.0198.20249-.0198.36054 0 .54822.21237.18768.20744.18768.57292v1.2644q0 .10866.0198.16792.0198.0543.0642.079t.11359.0296q.0691.005.17286.01z" fill="#172c82" stroke-width=".26458"/><path d="m22.166 17.22q-.34573.21731-.63218.21731-.26176 0-.40499-.14817-.14323-.14816-.14323-.41486v-1.7187h-.3556v-.19755h.37536l.30127-.6223h.14323v.6223h.63711v.19755h-.63711v1.5311q0 .49389.32596.49389.18768 0 .35067-.0642z" fill="#172c82" stroke-width=".26458"/><path d="m24.156 16.7q0 .36053-.27164.54821-.27164.18274-.65193.18274-.49883 0-.77047-.23707l-.0494-.64699h.14323q.16792.7112.72108.7112.19261 0 .32596-.10866.13335-.11359.13335-.30127 0-.19261-.13335-.31115-.12841-.11853-.31608-.18274-.18768-.0642-.3803-.13335-.18768-.0741-.32103-.22225-.12841-.1531-.12841-.38523 0-.36548.25683-.54328.26176-.1778.64205-.1778.40993 0 .63712.16792v.57785h-.14323q-.0296-.25188-.17286-.40992-.13829-.16299-.3803-.16299-.18767 0-.31608.10866-.12842.10372-.12842.29139 0 .13829.0938.23213.0988.0938.24201.14323.14816.0444.31609.11359.16792.0642.31115.13829.14816.0741.242.23213.0988.15311.0988.37536z" fill="#172c82" stroke-width=".26458"/><path d="m26.986 17.4-.37042-.0148q-.28646-.0148-.5334-.25188-.43956-.42968-.80998-1.0125h-.01v.82479q0 .10866.0198.16792.0198.0543.0642.079t.11359.0296q.0691.005.17286.01v.14322h-1.2051v-.14322q.10372-.005.17286-.01.0741-.005.1136-.0296.0444-.0247.0642-.079.0198-.0593.0198-.16792v-2.7411q0-.12841-.0395-.1778-.0395-.0543-.11854-.0543-.0741 0-.18767-.0148v-.12347l.7754-.12347.0346.0296v2.3114h.01q.2667-.39017.74577-.9532.079-.0938.13335-.11854.0543-.0247.1778-.0247h.50871v.13829q-.33091.0346-.57785.21237-.28152.20743-.56303.53834-.0346.0444-.0346.0642 0 .0692.3803.51365.38029.43956.51858.57291.21237.21237.42475.2667z" fill="#172c82" stroke-width=".26458"/><path d="m29.506 17.28q-.29633.14817-.58279.14817-.12841 0-.19755-.0741-.0692-.079-.12347-.22225-.44944.29633-.7359.29633-.31609 0-.51364-.19262-.19756-.19261-.19756-.5087 0-.43956.45932-.58773.14323-.0346.52352-.15804.38029-.12841.46919-.21731v-.20744q0-.22225-.10371-.3556-.10372-.13829-.31609-.13829-.34572 0-.50871.48401-.0247.0741-.0543.10866-.0296.0296-.10372.0296-.0988 0-.18768-.0642-.0889-.0692-.0889-.16792 0-.13829.10866-.25189.11359-.11853.27657-.18274.16793-.0642.32597-.0938.16298-.0346.28646-.0346.39511 0 .60254.14323t.20743.51364v1.1952q0 .13828.01.21731.0148.079.079.14816.0642.0692.18768.0692.0741 0 .14817-.0148zm-.89888-.61736v-.69638q-.0938.0593-.28151.12841-.18768.0642-.32103.1136t-.24201.16792q-.10865.11359-.10865.28151 0 .22719.11359.37042.11854.13829.34079.13829.22719 0 .36054-.13829.13828-.13829.13828-.36548z" fill="#172c82" stroke-width=".26458"/><path d="m31.406 15.14q0 .0988-.0642.18768-.0642.0889-.16298.0889-.0494 0-.18274-.0642-.13335-.0691-.22225-.0691-.14817 0-.21731.16792-.0642.16792-.0642.34078v1.1557q0 .15311.0593.21731t.16298.0642q.10866-.005.24695.005v.14322h-1.3039v-.14322q.10372-.005.17286-.01.0692-.005.1136-.0296.0445-.0247.0642-.079.0198-.0593.0198-.16792v-1.5558q0-.12347-.0395-.17286-.0395-.0494-.11854-.0543-.0741-.005-.18768-.0198v-.12348l.75072-.12347.0593.39511q.0543-.0543.13829-.12347.084-.0691.16298-.12841.079-.0593.17287-.0988.0938-.0445.1778-.0445.11359 0 .18767.0642.0741.0642.0741.1778z" fill="#172c82" stroke-width=".26458"/><path d="m33.106 17.22q-.34572.21731-.63218.21731-.26176 0-.40499-.14817-.14322-.14816-.14322-.41486v-1.7187h-.3556v-.19755h.37535l.30127-.6223h.14323v.6223h.63712v.19755h-.63712v1.5311q0 .49389.32597.49389.18768 0 .35066-.0642z" fill="#172c82" stroke-width=".26458"/><path d="m35.496 15.89q0 .18768-.19755.18768h-1.4224v.0543q0 1.052.72602 1.052.46919 0 .71613-.52352l.14817.079q-.23707.69638-.98284.69638-1.1211 0-1.1211-1.2495 0-.57291.28646-.92851.28646-.36054.84949-.36054.47413 0 .73589.26176t.26176.73096zm-.51364-.15805q0-.28151-.12347-.46919-.12347-.19262-.39017-.19262-.29634 0-.4445.25189-.14323.25188-.14323.56797h.93345q.16792 0 .16792-.15805z" fill="#172c82" stroke-width=".26458"/></svg>
