<svg width="42.016mm" height="17.433mm" version="1.1" viewBox="0 0 42.016 17.433" xmlns="http://www.w3.org/2000/svg"><g transform="translate(-99.944 -122.73)"><g id="guy" transform="matrix(.015293 -.0024331 .0024222 .015362 125.32 124.53)"><g transform="translate(.35425 10.531)" fill="#cfb243"><path id="Star" d="m298.32 517.24c-25.714 0-163.32 193.96-195.47 168.1-32.143-25.862 90-323.27 70.714-349.14-19.286-25.862-173.57-45.189-173.57-84.051 0-38.863 135.81-25.932 298.32-25.862 161.53 0.06945 286.68-12.931 286.68 25.862s-180 90.517-199.29 116.38c-19.286 25.862 109.29 316.81 77.143 316.81-32.143 0-138.82-168.1-164.53-168.1z"/><ellipse id="Oval" cx="276.43" cy="90.517" rx="90" ry="90.517"/></g><g transform="translate(461.58 .71801)" fill="#8178a5"><path d="m298.98 517.28c-25.745 0-163.52 193.97-195.7 168.11-32.181-25.863 90.108-323.29 70.799-349.15s-173.78-45.19-173.78-84.055c0-38.864 135.98-25.933 298.68-25.863 161.72 0.0694 287.02-12.932 287.02 25.863 0 38.795-180.22 90.521-199.52 116.38s109.42 316.82 77.235 316.82-138.99-168.11-164.73-168.11z"/><ellipse cx="277.06" cy="90.543" rx="90.108" ry="90.521"/></g></g><g fill="#172c82" stroke-width=".26458" aria-label="Bayerische Ehrenamtskarte"><path d="m102.71 134.21q0 0.95815-1.2347 0.95815h-1.5311v-0.14323q0.1531-0.01 0.25188-0.0148 0.0988-5e-3 0.14323-0.0691 0.0494-0.0692 0.0494-0.23213v-2.4991q0-0.16298-0.0494-0.22719-0.0444-0.0691-0.14323-0.0741-0.0988-5e-3 -0.25188-0.0148v-0.14323h1.4273q0.18274 0 0.33091 0.0148 0.15311 0.0148 0.31609 0.0642 0.16792 0.0494 0.27658 0.13335 0.10865 0.084 0.18274 0.23212 0.0741 0.14323 0.0741 0.34079 0 0.30621-0.20743 0.50376-0.20744 0.19262-0.52847 0.25683v0.01q0.40993 0.0543 0.65194 0.28152 0.242 0.22719 0.242 0.6223zm-0.67662-1.6446q0-0.3309-0.20744-0.48401-0.20743-0.15804-0.54821-0.15804-0.0938-5e-3 -0.16793 0-0.0741 0-0.12841 0.0197-0.0494 0.0148-0.079 0.0692-0.0247 0.0543-0.0247 0.15804v1.0717h0.3309q0.8248 0 0.8248-0.67663zm0.14816 1.6792q0-0.4198-0.26176-0.6223-0.25682-0.20743-0.6865-0.20743h-0.3556v1.2002q0 0.24694 0.0988 0.31609 0.10372 0.0642 0.37536 0.0642 0.82973 0 0.82973-0.75071z"/><path d="m105.55 135.08q-0.29633 0.14816-0.58278 0.14816-0.12842 0-0.19756-0.0741-0.0691-0.079-0.12347-0.22225-0.44944 0.29633-0.7359 0.29633-0.31609 0-0.51364-0.19261-0.19756-0.19262-0.19756-0.50871 0-0.43956 0.45932-0.58773 0.14323-0.0346 0.52352-0.15804 0.3803-0.12841 0.4692-0.21731v-0.20744q0-0.22225-0.10372-0.3556-0.10372-0.13829-0.31609-0.13829-0.34572 0-0.5087 0.48402-0.0247 0.0741-0.0543 0.10865-0.0296 0.0296-0.10372 0.0296-0.0988 0-0.18768-0.0642-0.0889-0.0692-0.0889-0.16792 0-0.13829 0.10866-0.25189 0.11359-0.11853 0.27658-0.18274 0.16792-0.0642 0.32596-0.0938 0.16299-0.0346 0.28646-0.0346 0.39511 0 0.60254 0.14323 0.20744 0.14323 0.20744 0.51365v1.1952q0 0.13829 0.01 0.21731 0.0148 0.079 0.079 0.14816 0.0642 0.0692 0.18767 0.0692 0.0741 0 0.14817-0.0148zm-0.89887-0.61737v-0.69638q-0.0938 0.0593-0.28152 0.12841-0.18768 0.0642-0.32103 0.1136t-0.242 0.16792q-0.10866 0.11359-0.10866 0.28152 0 0.22718 0.1136 0.37041 0.11853 0.13829 0.34078 0.13829 0.22719 0 0.36054-0.13829 0.13829-0.13829 0.13829-0.36548z"/><path d="m108.15 132.89q-0.17286 0.01-0.23707 0.0543-0.0593 0.0395-0.12841 0.19755-0.15804 0.34572-0.3309 0.79022-0.16793 0.4445-0.30128 0.82974-0.12841 0.38029-0.28151 0.80997-0.0444 0.12842-0.079 0.20744-0.0296 0.084-0.0988 0.20743-0.0642 0.12347-0.13335 0.19262-0.0642 0.0741-0.16792 0.12841-0.10372 0.0543-0.22225 0.0543-0.11854 0-0.23213-0.0741-0.1136-0.0691-0.1136-0.18274 0-0.0889 0.0642-0.18273 0.0642-0.0938 0.1531-0.0938 0.0741 0 0.16793 0.084 0.0938 0.0889 0.16298 0.0889 0.12841 0 0.23213-0.23707 0.10371-0.23213 0.10371-0.39017 0-0.1136-0.0395-0.24201-0.0148-0.0445-0.29633-0.79022-0.38029-0.96308-0.47907-1.1952-0.0691-0.16298-0.13335-0.20249-0.0642-0.0444-0.24201-0.0543v-0.14323h1.131v0.14323q-5e-3 0-0.0543 5e-3 -0.0494 0-0.084 5e-3 -0.0346 0-0.079 0.01-0.0395 0.01-0.0642 0.0296-0.0247 0.0148-0.0247 0.0395 0 0.10865 0.62724 1.7385h0.01q0.13829-0.37042 0.34573-0.98284 0.21237-0.61736 0.21237-0.73096 0-0.079-0.13335-0.0988-0.13335-0.0247-0.2025-0.0148v-0.14323h0.94827z"/><path d="m110.42 133.68q0 0.18768-0.19756 0.18768h-1.4224v0.0543q0 1.052 0.72602 1.052 0.46919 0 0.71614-0.52352l0.14817 0.079q-0.23707 0.69638-0.98284 0.69638-1.1211 0-1.1211-1.2495 0-0.57291 0.28645-0.92851 0.28646-0.36054 0.84949-0.36054 0.47414 0 0.7359 0.26176 0.26176 0.26177 0.26176 0.73096zm-0.51365-0.15804q0-0.28152-0.12347-0.4692-0.12347-0.19262-0.39017-0.19262-0.29633 0-0.4445 0.25189-0.14323 0.25188-0.14323 0.56797h0.93345q0.16792 0 0.16792-0.15804z"/><path d="m112.49 132.93q0 0.0988-0.0642 0.18768-0.0642 0.0889-0.16298 0.0889-0.0494 0-0.18274-0.0642-0.13335-0.0691-0.22225-0.0691-0.14816 0-0.21731 0.16792-0.0642 0.16792-0.0642 0.34078v1.1557q0 0.15311 0.0593 0.21731t0.16299 0.0642q0.10865-5e-3 0.24694 5e-3v0.14323h-1.3039v-0.14323q0.10372-5e-3 0.17287-0.01 0.0691-5e-3 0.11359-0.0296 0.0444-0.0247 0.0642-0.079 0.0198-0.0593 0.0198-0.16792v-1.5558q0-0.12347-0.0395-0.17286-0.0395-0.0494-0.11853-0.0543-0.0741-5e-3 -0.18768-0.0197v-0.12347l0.75071-0.12348 0.0593 0.39511q0.0543-0.0543 0.13829-0.12347 0.084-0.0691 0.16298-0.12841 0.079-0.0593 0.17286-0.0988 0.0938-0.0444 0.1778-0.0444 0.11359 0 0.18768 0.0642 0.0741 0.0642 0.0741 0.1778z"/><path d="m113.48 131.72q0.084 0.084 0.084 0.21731 0 0.13335-0.084 0.21731-0.084 0.079-0.21731 0.079-0.13335 0-0.21732-0.079-0.084-0.084-0.084-0.21731 0-0.13335 0.084-0.21731 0.084-0.0889 0.21732-0.0889 0.13335 0 0.21731 0.0889zm0.39017 3.4424h-1.2051v-0.14323q0.10372-5e-3 0.17286-0.01 0.0741-5e-3 0.1136-0.0247 0.0444-0.0247 0.0642-0.079 0.0198-0.0593 0.0198-0.17286v-1.5558q0-0.12347-0.0395-0.17286-0.0395-0.0494-0.11854-0.0543-0.0741-5e-3 -0.18768-0.0197v-0.12347l0.77541-0.12348 0.0346 0.0296v2.02q0 0.10866 0.0198 0.16792 0.0198 0.0543 0.0642 0.079t0.1136 0.0296q0.0691 5e-3 0.17286 0.01z"/><path d="m115.92 134.49q0 0.36054-0.27164 0.54821-0.27163 0.18274-0.65193 0.18274-0.49883 0-0.77047-0.23706l-0.0494-0.647h0.14322q0.16793 0.7112 0.72108 0.7112 0.19262 0 0.32597-0.10865 0.13335-0.1136 0.13335-0.30128 0-0.19261-0.13335-0.31115-0.12841-0.11853-0.31609-0.18274-0.18768-0.0642-0.3803-0.13335-0.18767-0.0741-0.32102-0.22225-0.12841-0.1531-0.12841-0.38523 0-0.36548 0.25682-0.54328 0.26176-0.1778 0.64205-0.1778 0.40993 0 0.63712 0.16793v0.57785h-0.14323q-0.0296-0.25189-0.17286-0.40993-0.13829-0.16299-0.38029-0.16299-0.18768 0-0.31609 0.10866-0.12841 0.10372-0.12841 0.29139 0 0.13829 0.0938 0.23213 0.0988 0.0938 0.242 0.14323 0.14817 0.0445 0.31609 0.11359 0.16792 0.0642 0.31115 0.13829 0.14817 0.0741 0.24201 0.23213 0.0988 0.15311 0.0988 0.37536z"/><path d="m118.43 134.51q-0.084 0.32597-0.34572 0.51859-0.26176 0.19261-0.60255 0.19261-0.57785 0-0.8643-0.32596-0.28152-0.33091-0.28152-0.91864 0-0.59266 0.30621-0.94333 0.30621-0.35066 0.89394-0.35066 0.15805 0 0.34078 0.0444 0.18768 0.0395 0.35067 0.15311 0.16792 0.11359 0.16792 0.28152 0 0.11359-0.0889 0.18273-0.0889 0.0692-0.2025 0.0692-0.0741 0-0.13335-0.084-0.0543-0.0889-0.0938-0.19262-0.0395-0.10865-0.14322-0.19262-0.0988-0.0889-0.25189-0.0889-0.18767 0-0.32102 0.10372-0.12842 0.0988-0.19262 0.2667-0.0642 0.16298-0.0938 0.32597-0.0247 0.16298-0.0247 0.33584 0 0.19262 0.0296 0.37042 0.0346 0.17286 0.10865 0.34078 0.079 0.16792 0.22719 0.2667 0.15311 0.0988 0.36054 0.0988 0.2667 0 0.42969-0.12841 0.16792-0.13335 0.28151-0.39511z"/><path d="m121.47 135.16h-1.2051v-0.14323q0.0988-5e-3 0.16792-0.01 0.0741-0.01 0.11853-0.0296 0.0445-0.0247 0.0642-0.079 0.0198-0.0593 0.0198-0.16792v-1.1656q0-0.61736-0.51859-0.61736-0.1778 0-0.34572 0.10372-0.16792 0.0988-0.24694 0.25682-0.0444 0.084-0.0444 0.2667v1.1557q0 0.084 0.01 0.13829 0.0148 0.0543 0.0444 0.084 0.0296 0.0247 0.0741 0.0395 0.0445 0.01 0.10371 0.0148 0.0593 5e-3 0.13829 0.01v0.14323h-1.2002v-0.14323q0.0988-5e-3 0.16792-0.01 0.0692-0.01 0.1136-0.0296 0.0444-0.0247 0.0642-0.079 0.0198-0.0593 0.0198-0.16792v-2.7411q0-0.12347-0.0395-0.17286-0.0395-0.0494-0.11853-0.0543-0.0741-5e-3 -0.18768-0.0198v-0.12347l0.77046-0.12347 0.0346 0.0296v1.5311q0.10371-0.0741 0.21237-0.13829 0.10865-0.0691 0.20743-0.11853 0.0988-0.0543 0.22225-0.084 0.12347-0.0346 0.25189-0.0346 0.3556 0 0.54327 0.21238 0.18768 0.21237 0.18768 0.57291v1.2644q0 0.084 0.01 0.13829 0.0148 0.0543 0.0444 0.084 0.0296 0.0247 0.0741 0.0395 0.0444 0.01 0.10372 0.0148 0.0593 5e-3 0.13829 0.01z"/><path d="m123.92 133.68q0 0.18768-0.19756 0.18768h-1.4224v0.0543q0 1.052 0.72602 1.052 0.4692 0 0.71614-0.52352l0.14817 0.079q-0.23707 0.69638-0.98284 0.69638-1.1211 0-1.1211-1.2495 0-0.57291 0.28646-0.92851 0.28645-0.36054 0.84948-0.36054 0.47414 0 0.7359 0.26176 0.26176 0.26177 0.26176 0.73096zm-0.51364-0.15804q0-0.28152-0.12348-0.4692-0.12347-0.19262-0.39017-0.19262-0.29633 0-0.4445 0.25189-0.14323 0.25188-0.14323 0.56797h0.93345q0.16793 0 0.16793-0.15804z"/><path d="m102.62 139.25-0.0593 0.85442h-2.6176v-0.14322q0.1531-0.01 0.25188-0.0148 0.0988-5e-3 0.14323-0.0691 0.0494-0.0692 0.0494-0.23213v-2.4991q0-0.16298-0.0494-0.22719-0.0444-0.0691-0.14323-0.0741-0.0988-5e-3 -0.25188-0.0148v-0.14323h2.4941v0.80998h-0.14816q-0.0494-0.39511-0.19756-0.51364-0.14323-0.12348-0.54821-0.12348h-0.48402q-0.11853 0-0.1531 0.0296-0.0296 0.0296-0.0296 0.14816v1.1952h0.69144q0.27658 0 0.36054-0.079 0.084-0.079 0.12347-0.34572h0.14817v1.0421h-0.14817q-0.0395-0.27164-0.12347-0.35066-0.084-0.079-0.36054-0.079h-0.69144v1.0915q-5e-3 0.0444 0 0.10371 5e-3 0.0593 0.01 0.10866 5e-3 0.0494 0.0346 0.0938 0.0296 0.0445 0.079 0.0642 0.11359 0.0494 0.51364 0.0494 0.24695 0 0.38524-0.0198 0.13828-0.0198 0.26176-0.084 0.12841-0.0692 0.19755-0.20744 0.0692-0.13829 0.1136-0.37041z"/><path d="m105.69 140.1h-1.2051v-0.14322q0.0988-5e-3 0.16793-0.01 0.0741-0.01 0.11853-0.0296 0.0444-0.0247 0.0642-0.079 0.0198-0.0593 0.0198-0.16792v-1.1656q0-0.61736-0.51858-0.61736-0.1778 0-0.34573 0.10372-0.16792 0.0988-0.24694 0.25682-0.0445 0.084-0.0445 0.2667v1.1557q0 0.084 0.01 0.13829 0.0148 0.0543 0.0444 0.084 0.0296 0.0247 0.0741 0.0395 0.0444 0.01 0.10372 0.0148 0.0593 5e-3 0.13829 0.01v0.14322h-1.2002v-0.14322q0.0988-5e-3 0.16792-0.01 0.0691-0.01 0.11359-0.0296 0.0445-0.0247 0.0642-0.079 0.0198-0.0593 0.0198-0.16792v-2.7411q0-0.12347-0.0395-0.17286-0.0395-0.0494-0.11853-0.0543-0.0741-5e-3 -0.18768-0.0198v-0.12347l0.77047-0.12347 0.0346 0.0296v1.5311q0.10372-0.0741 0.21237-0.13829 0.10866-0.0691 0.20744-0.11853 0.0988-0.0543 0.22225-0.084 0.12347-0.0346 0.25188-0.0346 0.3556 0 0.54328 0.21237 0.18768 0.21238 0.18768 0.57292v1.2644q0 0.084 0.01 0.13829 0.0148 0.0543 0.0445 0.084 0.0296 0.0247 0.0741 0.0395 0.0444 0.01 0.10371 0.0148 0.0593 5e-3 0.13829 0.01z"/><path d="m107.67 137.87q0 0.0988-0.0642 0.18768-0.0642 0.0889-0.16298 0.0889-0.0494 0-0.18274-0.0642-0.13335-0.0691-0.22225-0.0691-0.14816 0-0.21731 0.16792-0.0642 0.16792-0.0642 0.34078v1.1557q0 0.15311 0.0593 0.21731t0.16299 0.0642q0.10865-5e-3 0.24694 5e-3v0.14322h-1.3039v-0.14322q0.10372-5e-3 0.17286-0.01 0.0692-5e-3 0.1136-0.0296 0.0444-0.0247 0.0642-0.079 0.0198-0.0593 0.0198-0.16792v-1.5558q0-0.12347-0.0395-0.17286-0.0395-0.0494-0.11853-0.0543-0.0741-5e-3 -0.18768-0.0198v-0.12348l0.75071-0.12347 0.0593 0.39511q0.0543-0.0543 0.13828-0.12347 0.084-0.0691 0.16299-0.12841 0.079-0.0593 0.17286-0.0988 0.0938-0.0445 0.1778-0.0445 0.11359 0 0.18768 0.0642 0.0741 0.0642 0.0741 0.1778z"/><path d="m110.06 138.62q0 0.18768-0.19756 0.18768h-1.4224v0.0543q0 1.052 0.72602 1.052 0.46919 0 0.71614-0.52352l0.14817 0.079q-0.23707 0.69638-0.98284 0.69638-1.1211 0-1.1211-1.2495 0-0.57291 0.28645-0.92851 0.28646-0.36054 0.84949-0.36054 0.47414 0 0.7359 0.26176t0.26176 0.73096zm-0.51365-0.15805q0-0.28151-0.12347-0.46919-0.12347-0.19262-0.39017-0.19262-0.29633 0-0.4445 0.25189-0.14323 0.25188-0.14323 0.56797h0.93345q0.16792 0 0.16792-0.15805z"/><path d="m113.21 140.1h-1.2051v-0.14322q0.10372-5e-3 0.17286-0.01 0.0741-5e-3 0.1136-0.0296 0.0445-0.0247 0.0642-0.079 0.0198-0.0593 0.0198-0.16792v-1.1656q0-0.61736-0.51859-0.61736-0.1778 0-0.34572 0.0988-0.16298 0.0988-0.242 0.25682-0.0494 0.0988-0.0494 0.27164v1.1557q0 0.10866 0.0198 0.16792 0.0198 0.0543 0.0642 0.079 0.0445 0.0247 0.11359 0.0296 0.0692 5e-3 0.17286 0.01v0.14322h-1.2051v-0.14322q0.10372-5e-3 0.17287-0.01 0.0741-5e-3 0.11359-0.0296 0.0444-0.0247 0.0642-0.079 0.0197-0.0593 0.0197-0.16792v-1.5558q0-0.12347-0.0395-0.17286-0.0395-0.0494-0.11853-0.0543-0.0741-5e-3 -0.18768-0.0198v-0.12348l0.73589-0.12347 0.0691 0.37536q0.10371-0.0692 0.21237-0.13829 0.10866-0.0691 0.20743-0.11853 0.10372-0.0543 0.22719-0.084 0.12347-0.0346 0.25189-0.0346 0.3556 0 0.53833 0.21237 0.18768 0.21238 0.18768 0.57292v1.2644q0 0.10866 0.0198 0.16792 0.0198 0.0543 0.0642 0.079t0.1136 0.0296q0.0691 5e-3 0.17286 0.01z"/><path d="m115.87 140.01q-0.29633 0.14817-0.58279 0.14817-0.12841 0-0.19756-0.0741-0.0691-0.079-0.12347-0.22225-0.44944 0.29633-0.73589 0.29633-0.31609 0-0.51365-0.19262-0.19755-0.19261-0.19755-0.5087 0-0.43956 0.45931-0.58773 0.14323-0.0346 0.52353-0.15804 0.38029-0.12841 0.46919-0.21731v-0.20744q0-0.22225-0.10372-0.3556-0.10371-0.13829-0.31608-0.13829-0.34573 0-0.50871 0.48401-0.0247 0.0741-0.0543 0.10866-0.0296 0.0296-0.10371 0.0296-0.0988 0-0.18768-0.0642-0.0889-0.0692-0.0889-0.16792 0-0.13829 0.10865-0.25189 0.1136-0.11853 0.27658-0.18274 0.16792-0.0642 0.32597-0.0938 0.16298-0.0346 0.28645-0.0346 0.39511 0 0.60255 0.14323 0.20743 0.14323 0.20743 0.51364v1.1952q0 0.13828 0.01 0.21731 0.0148 0.079 0.079 0.14816 0.0642 0.0692 0.18768 0.0692 0.0741 0 0.14817-0.0148zm-0.89888-0.61736v-0.69638q-0.0938 0.0593-0.28152 0.12841-0.18767 0.0642-0.32102 0.1136t-0.24201 0.16792q-0.10865 0.11359-0.10865 0.28151 0 0.22719 0.11359 0.37042 0.11853 0.13829 0.34078 0.13829 0.22719 0 0.36054-0.13829 0.13829-0.13829 0.13829-0.36548z"/><path d="m120.35 140.1h-1.2051v-0.14322q0.10372-5e-3 0.17287-0.01 0.0741-5e-3 0.11359-0.0296 0.0444-0.0247 0.0642-0.079 0.0198-0.0593 0.0198-0.16792v-1.1656q0-0.61736-0.49883-0.61736-0.28645 0-0.4445 0.17286-0.1531 0.16793-0.1531 0.45438v1.1557q0 0.10866 0.0198 0.16792 0.0198 0.0543 0.0642 0.079 0.0445 0.0247 0.11359 0.0296 0.0692 5e-3 0.17286 0.01v0.14322h-1.2051v-0.14322q0.10371-5e-3 0.17286-0.01 0.0741-5e-3 0.11359-0.0296 0.0444-0.0247 0.0642-0.079 0.0197-0.0593 0.0197-0.16792v-1.1656q0-0.29633-0.0988-0.45437-0.0988-0.16299-0.37535-0.16299-0.18274 0-0.34572 0.10372-0.15805 0.0988-0.23707 0.26176-0.0395 0.084-0.0395 0.26176v1.1557q0 0.10866 0.0198 0.16792 0.0198 0.0543 0.0642 0.079t0.11359 0.0296q0.0691 5e-3 0.17287 0.01v0.14322h-1.2051v-0.14322q0.10371-5e-3 0.17286-0.01 0.0741-5e-3 0.11359-0.0296 0.0444-0.0247 0.0642-0.079 0.0198-0.0593 0.0198-0.16792v-1.5558q0-0.12347-0.0395-0.17286-0.0395-0.0494-0.11853-0.0543-0.0741-5e-3 -0.18768-0.0198v-0.12348l0.76553-0.12347 0.0444 0.37536q0.242-0.1778 0.43956-0.27658 0.19756-0.0988 0.42474-0.0988 0.45932 0 0.65194 0.3803 0.0494-0.0296 0.15804-0.10372 0.1136-0.079 0.16792-0.10866 0.0593-0.0346 0.15311-0.079 0.0988-0.0494 0.18768-0.0691 0.0938-0.0198 0.20249-0.0198 0.36054 0 0.54822 0.21237 0.18768 0.20744 0.18768 0.57292v1.2644q0 0.10866 0.0198 0.16792 0.0198 0.0543 0.0642 0.079t0.11359 0.0296q0.0691 5e-3 0.17286 0.01z"/><path d="m122.11 139.95q-0.34573 0.21731-0.63218 0.21731-0.26176 0-0.40499-0.14817-0.14323-0.14816-0.14323-0.41486v-1.7187h-0.3556v-0.19755h0.37536l0.30127-0.6223h0.14323v0.6223h0.63711v0.19755h-0.63711v1.5311q0 0.49389 0.32596 0.49389 0.18768 0 0.35067-0.0642z"/><path d="m124.1 139.43q0 0.36053-0.27164 0.54821-0.27164 0.18274-0.65193 0.18274-0.49883 0-0.77047-0.23707l-0.0494-0.64699h0.14323q0.16792 0.7112 0.72108 0.7112 0.19261 0 0.32596-0.10866 0.13335-0.11359 0.13335-0.30127 0-0.19261-0.13335-0.31115-0.12841-0.11853-0.31608-0.18274-0.18768-0.0642-0.3803-0.13335-0.18768-0.0741-0.32103-0.22225-0.12841-0.1531-0.12841-0.38523 0-0.36548 0.25683-0.54328 0.26176-0.1778 0.64205-0.1778 0.40993 0 0.63712 0.16792v0.57785h-0.14323q-0.0296-0.25188-0.17286-0.40992-0.13829-0.16299-0.3803-0.16299-0.18767 0-0.31608 0.10866-0.12842 0.10372-0.12842 0.29139 0 0.13829 0.0938 0.23213 0.0988 0.0938 0.24201 0.14323 0.14816 0.0444 0.31609 0.11359 0.16792 0.0642 0.31115 0.13829 0.14816 0.0741 0.242 0.23213 0.0988 0.15311 0.0988 0.37536z"/><path d="m126.93 140.13-0.37042-0.0148q-0.28646-0.0148-0.5334-0.25188-0.43956-0.42968-0.80998-1.0125h-0.01v0.82479q0 0.10866 0.0198 0.16792 0.0198 0.0543 0.0642 0.079t0.11359 0.0296q0.0691 5e-3 0.17286 0.01v0.14322h-1.2051v-0.14322q0.10372-5e-3 0.17286-0.01 0.0741-5e-3 0.1136-0.0296 0.0444-0.0247 0.0642-0.079 0.0198-0.0593 0.0198-0.16792v-2.7411q0-0.12841-0.0395-0.1778-0.0395-0.0543-0.11854-0.0543-0.0741 0-0.18767-0.0148v-0.12347l0.7754-0.12347 0.0346 0.0296v2.3114h0.01q0.2667-0.39017 0.74577-0.9532 0.079-0.0938 0.13335-0.11854 0.0543-0.0247 0.1778-0.0247h0.50871v0.13829q-0.33091 0.0346-0.57785 0.21237-0.28152 0.20743-0.56303 0.53834-0.0346 0.0444-0.0346 0.0642 0 0.0692 0.3803 0.51365 0.38029 0.43956 0.51858 0.57291 0.21237 0.21237 0.42475 0.2667z"/><path d="m129.45 140.01q-0.29633 0.14817-0.58279 0.14817-0.12841 0-0.19755-0.0741-0.0692-0.079-0.12347-0.22225-0.44944 0.29633-0.7359 0.29633-0.31609 0-0.51364-0.19262-0.19756-0.19261-0.19756-0.5087 0-0.43956 0.45932-0.58773 0.14323-0.0346 0.52352-0.15804 0.38029-0.12841 0.46919-0.21731v-0.20744q0-0.22225-0.10371-0.3556-0.10372-0.13829-0.31609-0.13829-0.34572 0-0.50871 0.48401-0.0247 0.0741-0.0543 0.10866-0.0296 0.0296-0.10372 0.0296-0.0988 0-0.18768-0.0642-0.0889-0.0692-0.0889-0.16792 0-0.13829 0.10866-0.25189 0.11359-0.11853 0.27657-0.18274 0.16793-0.0642 0.32597-0.0938 0.16298-0.0346 0.28646-0.0346 0.39511 0 0.60254 0.14323t0.20743 0.51364v1.1952q0 0.13828 0.01 0.21731 0.0148 0.079 0.079 0.14816 0.0642 0.0692 0.18768 0.0692 0.0741 0 0.14817-0.0148zm-0.89888-0.61736v-0.69638q-0.0938 0.0593-0.28151 0.12841-0.18768 0.0642-0.32103 0.1136t-0.24201 0.16792q-0.10865 0.11359-0.10865 0.28151 0 0.22719 0.11359 0.37042 0.11854 0.13829 0.34079 0.13829 0.22719 0 0.36054-0.13829 0.13828-0.13829 0.13828-0.36548z"/><path d="m131.35 137.87q0 0.0988-0.0642 0.18768-0.0642 0.0889-0.16298 0.0889-0.0494 0-0.18274-0.0642-0.13335-0.0691-0.22225-0.0691-0.14817 0-0.21731 0.16792-0.0642 0.16792-0.0642 0.34078v1.1557q0 0.15311 0.0593 0.21731t0.16298 0.0642q0.10866-5e-3 0.24695 5e-3v0.14322h-1.3039v-0.14322q0.10372-5e-3 0.17286-0.01 0.0692-5e-3 0.1136-0.0296 0.0445-0.0247 0.0642-0.079 0.0198-0.0593 0.0198-0.16792v-1.5558q0-0.12347-0.0395-0.17286-0.0395-0.0494-0.11854-0.0543-0.0741-5e-3 -0.18768-0.0198v-0.12348l0.75072-0.12347 0.0593 0.39511q0.0543-0.0543 0.13829-0.12347 0.084-0.0691 0.16298-0.12841 0.079-0.0593 0.17287-0.0988 0.0938-0.0445 0.1778-0.0445 0.11359 0 0.18767 0.0642 0.0741 0.0642 0.0741 0.1778z"/><path d="m133.05 139.95q-0.34572 0.21731-0.63218 0.21731-0.26176 0-0.40499-0.14817-0.14322-0.14816-0.14322-0.41486v-1.7187h-0.3556v-0.19755h0.37535l0.30127-0.6223h0.14323v0.6223h0.63712v0.19755h-0.63712v1.5311q0 0.49389 0.32597 0.49389 0.18768 0 0.35066-0.0642z"/><path d="m135.44 138.62q0 0.18768-0.19755 0.18768h-1.4224v0.0543q0 1.052 0.72602 1.052 0.46919 0 0.71613-0.52352l0.14817 0.079q-0.23707 0.69638-0.98284 0.69638-1.1211 0-1.1211-1.2495 0-0.57291 0.28646-0.92851 0.28646-0.36054 0.84949-0.36054 0.47413 0 0.73589 0.26176t0.26176 0.73096zm-0.51364-0.15805q0-0.28151-0.12347-0.46919-0.12347-0.19262-0.39017-0.19262-0.29634 0-0.4445 0.25189-0.14323 0.25188-0.14323 0.56797h0.93345q0.16792 0 0.16792-0.15805z"/></g></g></svg>
