<?xml version="1.0" encoding="UTF-8" standalone="no"?>
<!-- Created with Inkscape (http://www.inkscape.org/) -->

<svg
   xmlns:dc="http://purl.org/dc/elements/1.1/"
   xmlns:cc="http://creativecommons.org/ns#"
   xmlns:rdf="http://www.w3.org/1999/02/22-rdf-syntax-ns#"
   xmlns:svg="http://www.w3.org/2000/svg"
   xmlns="http://www.w3.org/2000/svg"
   xmlns:sodipodi="http://sodipodi.sourceforge.net/DTD/sodipodi-0.dtd"
   xmlns:inkscape="http://www.inkscape.org/namespaces/inkscape"
   width="42.01601mm"
   height="17.432529mm"
   viewBox="0 0 42.01601 17.432529"
   version="1.1"
   id="svg4951"
   inkscape:version="0.92.3 (2405546, 2018-03-11)"
   sodipodi:docname="eak-lettering.inkscape.svg">
  <defs
     id="defs4945" />
  <sodipodi:namedview
     id="base"
     pagecolor="#ffffff"
     bordercolor="#666666"
     borderopacity="1.0"
     inkscape:pageopacity="0.0"
     inkscape:pageshadow="2"
     inkscape:zoom="1.4"
     inkscape:cx="-100.51442"
     inkscape:cy="83.446802"
     inkscape:document-units="mm"
     inkscape:current-layer="layer1"
     showgrid="false"
     fit-margin-top="0"
     fit-margin-left="0"
     fit-margin-right="0"
     fit-margin-bottom="0"
     inkscape:window-width="1540"
     inkscape:window-height="871"
     inkscape:window-x="60"
     inkscape:window-y="0"
     inkscape:window-maximized="1" />
  <metadata
     id="metadata4948">
    <rdf:RDF>
      <cc:Work
         rdf:about="">
        <dc:format>image/svg+xml</dc:format>
        <dc:type
           rdf:resource="http://purl.org/dc/dcmitype/StillImage" />
        <dc:title></dc:title>
      </cc:Work>
    </rdf:RDF>
  </metadata>
  <g
     inkscape:label="Layer 1"
     inkscape:groupmode="layer"
     id="layer1"
     transform="translate(-99.944376,-122.73016)">
    <g
       style="display:inline"
       transform="matrix(0.01529326,-0.00243312,0.00242222,0.0153621,125.32442,124.53316)"
       id="guy">
      <g
         transform="translate(0.354247,10.530769)"
         id="g21">
        <path
           d="m 298.32426,517.23971 c -25.71429,0 -163.32426,193.9649 -195.46712,168.10291 -32.142854,-25.86198 90,-323.27482 70.71429,-349.13681 C 154.28571,310.34383 0,291.01721 0,252.15436 0,213.29152 135.8142,226.22251 298.32426,226.29237 459.84975,226.36182 585,213.36138 585,252.15436 585,290.94734 405,342.67131 385.71429,368.5333 366.42857,394.39528 495,685.34262 462.85714,685.34262 c -32.14285,0 -138.8186,-168.10291 -164.53288,-168.10291 z"
           id="Star"
           inkscape:connector-curvature="0"
           style="fill:#cfb243" />
        <ellipse
           id="Oval"
           cx="276.42856"
           cy="90.516953"
           rx="90"
           ry="90.516953"
           style="fill:#cfb243" />
      </g>
      <g
         transform="translate(461.58007,0.718006)"
         id="g27">
        <path
           d="m 298.98026,517.28377 c -25.74515,0 -163.52027,193.97302 -195.7017,168.10996 C 71.097127,659.53066 193.38657,362.10535 174.07771,336.24228 154.76885,310.37921 0.29797374,291.05178 0.29797374,252.1873 c 0,-38.86447 135.97719626,-25.93294 298.68228626,-25.86307 161.71935,0.0694 287.0198,-12.93153 287.0198,25.86307 0,38.79461 -180.21603,90.52075 -199.52489,116.38382 -19.30886,25.86307 109.41687,316.82261 77.23544,316.82261 -32.18143,0 -138.9852,-168.10996 -164.73035,-168.10996 z"
           id="path23"
           inkscape:connector-curvature="0"
           style="fill:#8178a5" />
        <ellipse
           id="ellipse25"
           cx="277.05829"
           cy="90.543114"
           rx="90.108009"
           ry="90.520744"
           style="fill:#8178a5" />
      </g>
    </g>
    <text
       xml:space="preserve"
       style="font-style:normal;font-variant:normal;font-weight:normal;font-stretch:normal;font-size:4.23333311px;line-height:1em;font-family:'Abyssinica SIL';-inkscape-font-specification:'Abyssinica SIL';letter-spacing:0px;word-spacing:0px;display:inline;fill:#172c82;fill-opacity:1;stroke:none;stroke-width:0.26458332;"
       x="99.771515"
       y="135.16454"
       id="text383"><tspan
         sodipodi:role="line"
         x="99.771515"
         y="135.16454"
         style="font-style:normal;font-variant:normal;font-weight:normal;font-stretch:normal;font-size:4.93888855px;line-height:1em;font-family:UnShinmun;-inkscape-font-specification:UnShinmun;stroke-width:0.26458332;fill:#172c82;fill-opacity:1;"
         id="tspan401">Bayerische</tspan><tspan
         sodipodi:role="line"
         x="99.771515"
         y="140.10342"
         style="font-style:normal;font-variant:normal;font-weight:normal;font-stretch:normal;font-size:4.93888855px;line-height:1em;font-family:UnShinmun;-inkscape-font-specification:UnShinmun;stroke-width:0.26458332;fill:#172c82;fill-opacity:1;"
         id="tspan405">Ehrenamtskarte</tspan></text>
  </g>
</svg>
