<svg width="15" height="15" viewBox="0 0 15 15" fill="none" xmlns="http://www.w3.org/2000/svg">
<path d="M8.43115 3.42505C9.11865 3.42505 9.68115 2.86255 9.68115 2.17505C9.68115 1.48755 9.11865 0.925049 8.43115 0.925049C7.74365 0.925049 7.18115 1.48755 7.18115 2.17505C7.18115 2.86255 7.74365 3.42505 8.43115 3.42505ZM6.18115 12.1125L6.80615 9.36255L8.11865 10.6125V14.3625H9.36865V9.67505L8.05615 8.42505L8.43115 6.55005C9.24365 7.48755 10.4937 8.11255 11.8687 8.11255V6.86255C10.6812 6.86255 9.68115 6.23755 9.18115 5.36255L8.55615 4.36255C8.30615 3.98755 7.93115 3.73755 7.49365 3.73755C7.30615 3.73755 7.18115 3.80005 6.99365 3.80005L3.74365 5.17505V8.11255H4.99365V5.98755L6.11865 5.55005L5.11865 10.6125L2.05615 9.98755L1.80615 11.2375L6.18115 12.1125Z" fill="#323232"/>
</svg>
