<svg width="15" height="15" viewBox="0 0 15 15" fill="none" xmlns="http://www.w3.org/2000/svg">
<path fill-rule="evenodd" clip-rule="evenodd" d="M10.3437 2.03125C10.3437 2.71875 9.78125 3.28125 9.09375 3.28125C8.40625 3.28125 7.84375 2.71875 7.84375 2.03125C7.84375 1.34375 8.40625 0.78125 9.09375 0.78125C9.78125 0.78125 10.3437 1.34375 10.3437 2.03125ZM7.46875 9.21875L6.84375 11.9688L2.46875 11.0938L2.71875 9.84375L5.78125 10.4688L6.78125 5.40625L5.65625 5.84375V7.96875H4.40625V5.03125L7.65625 3.65625C7.75 3.65625 7.82813 3.64062 7.90625 3.625C7.98438 3.60938 8.0625 3.59375 8.15625 3.59375C8.59375 3.59375 8.96875 3.84375 9.21875 4.21875L9.84375 5.21875C10.3438 6.09375 11.3438 6.71875 12.5313 6.71875V7.96875C11.1563 7.96875 9.90625 7.34375 9.09375 6.40625L8.71875 8.28125L10.0313 9.53125V14.2188H8.78125V10.4688L7.46875 9.21875Z" fill="black"/>
</svg>
