<svg width="15" height="15" viewBox="0 0 15 15" fill="none" xmlns="http://www.w3.org/2000/svg">
<path fill-rule="evenodd" clip-rule="evenodd" d="M11.25 3.125V1.875H12.5V13.125H11.25V11.875H10V13.125H5V11.875H3.75V13.125H2.5V1.875H3.75V3.125H5V1.875H10V3.125H11.25ZM3.75 10.625H5V9.375H3.75V10.625ZM5 8.125H3.75V6.875H5V8.125ZM3.75 5.625H5V4.375H3.75V5.625ZM8.75 11.875H6.25V3.125H8.75V11.875ZM10 10.625H11.25V9.375H10V10.625ZM11.25 8.125H10V6.875H11.25V8.125ZM10 5.625H11.25V4.375H10V5.625Z" fill="black"/>
</svg>
