<svg width="15" height="15" viewBox="0 0 15 15" fill="none" xmlns="http://www.w3.org/2000/svg">
<path d="M9.375 11.5625C7.80625 11.5625 6.45 10.675 5.775 9.375H9.375L10 8.125H5.3625C5.33125 7.91875 5.3125 7.7125 5.3125 7.5C5.3125 7.2875 5.33125 7.08125 5.3625 6.875H9.375L10 5.625H5.775C6.45 4.325 7.8125 3.4375 9.375 3.4375C10.3813 3.4375 11.3062 3.80625 12.0187 4.41875L13.125 3.3125C12.1313 2.41875 10.8125 1.875 9.375 1.875C6.925 1.875 4.85 3.44375 4.075 5.625H1.875L1.25 6.875H3.7875C3.7625 7.08125 3.75 7.2875 3.75 7.5C3.75 7.7125 3.7625 7.91875 3.7875 8.125H1.875L1.25 9.375H4.075C4.85 11.5562 6.925 13.125 9.375 13.125C10.8188 13.125 12.1313 12.5813 13.125 11.6875L12.0125 10.5813C11.3062 11.1938 10.3875 11.5625 9.375 11.5625Z" fill="#323232"/>
</svg>
