<svg width="15" height="15" viewBox="0 0 15 15" fill="none" xmlns="http://www.w3.org/2000/svg">
<path d="M7.74385 6.8125C6.3251 6.44375 5.86885 6.0625 5.86885 5.46875C5.86885 4.7875 6.5001 4.3125 7.55635 4.3125C8.66885 4.3125 9.08135 4.84375 9.11885 5.625H10.5001C10.4563 4.55 9.8001 3.5625 8.49385 3.24375V1.875H6.61885V3.225C5.40635 3.4875 4.43135 4.275 4.43135 5.48125C4.43135 6.925 5.6251 7.64375 7.36885 8.0625C8.93135 8.4375 9.24385 8.9875 9.24385 9.56875C9.24385 10 8.9376 10.6875 7.55635 10.6875C6.26885 10.6875 5.7626 10.1125 5.69385 9.375H4.31885C4.39385 10.7437 5.41885 11.5125 6.61885 11.7688V13.125H8.49385V11.7812C9.7126 11.55 10.6813 10.8438 10.6813 9.5625C10.6813 7.7875 9.1626 7.18125 7.74385 6.8125Z" fill="black"/>
</svg>
