<svg width="15" height="15" viewBox="0 0 15 15" fill="none" xmlns="http://www.w3.org/2000/svg">
<path d="M13.4999 11.375L8.12492 7.34373V6.77498C9.15617 6.46873 9.87492 5.41873 9.64367 4.24373C9.48117 3.42498 8.83117 2.74373 8.01242 2.55623C6.58742 2.23123 5.31242 3.31248 5.31242 4.68748H6.56242C6.56242 4.16873 6.98117 3.74998 7.49992 3.74998C8.01867 3.74998 8.43742 4.16873 8.43742 4.68748C8.43742 5.21248 8.00617 5.63748 7.48117 5.62498C7.14367 5.61873 6.87492 5.90623 6.87492 6.24373V7.34373L1.49992 11.375C1.01867 11.7375 1.27492 12.5 1.87492 12.5H7.49992H13.1249C13.7249 12.5 13.9812 11.7375 13.4999 11.375ZM3.74992 11.25L7.49992 8.43748L11.2499 11.25H3.74992Z" fill="#323232"/>
</svg>
