<svg width="15" height="15" viewBox="0 0 15 15" fill="none" xmlns="http://www.w3.org/2000/svg">
<path fill-rule="evenodd" clip-rule="evenodd" d="M10.7562 5.93123H13.75C14.0938 5.93123 14.375 6.21248 14.375 6.55623L14.3562 6.72498L12.7688 12.5187C12.6188 13.0437 12.1375 13.4312 11.5625 13.4312H3.4375C2.8625 13.4312 2.38125 13.0437 2.2375 12.5187L0.65 6.72498C0.63125 6.66873 0.625 6.61248 0.625 6.55623C0.625 6.21248 0.90625 5.93123 1.25 5.93123H4.24375L6.98125 1.83748C7.1 1.65623 7.3 1.56873 7.5 1.56873C7.7 1.56873 7.9 1.65623 8.01875 1.83123L10.7562 5.93123ZM9.25 5.93123L7.5 3.30623L5.75 5.93123H9.25ZM11.5625 12.1812L3.44375 12.1875L2.06875 7.18123H12.9375L11.5625 12.1812ZM6.25 9.68122C6.25 8.99373 6.8125 8.43123 7.5 8.43123C8.1875 8.43123 8.75 8.99373 8.75 9.68122C8.75 10.3687 8.1875 10.9312 7.5 10.9312C6.8125 10.9312 6.25 10.3687 6.25 9.68122Z" fill="black"/>
</svg>
