<svg width="15" height="15" viewBox="0 0 15 15" fill="none" xmlns="http://www.w3.org/2000/svg">
<path fill-rule="evenodd" clip-rule="evenodd" d="M9.375 3.4375V7.1875H13.125V13.4375H1.875V4.6875H5.625V3.4375L7.5 1.5625L9.375 3.4375ZM3.125 12.1875H4.375V10.9375H3.125V12.1875ZM4.375 9.6875H3.125V8.4375H4.375V9.6875ZM3.125 7.1875H4.375V5.9375H3.125V7.1875ZM6.875 12.1875V10.9375H8.125V12.1875H6.875ZM6.875 8.4375V9.6875H8.125V8.4375H6.875ZM6.875 7.1875V5.9375H8.125V7.1875H6.875ZM6.875 3.4375V4.6875H8.125V3.4375H6.875ZM11.875 12.1875H10.625V10.9375H11.875V12.1875ZM10.625 9.6875H11.875V8.4375H10.625V9.6875Z" fill="black"/>
</svg>
