<svg width="15" height="15" viewBox="0 0 15 15" fill="none" xmlns="http://www.w3.org/2000/svg">
<path d="M11.875 3.75H9.375V1.25H5.625V3.75H3.125V13.125H4.375C4.375 13.4688 4.65625 13.75 5 13.75C5.34375 13.75 5.625 13.4688 5.625 13.125H9.375C9.375 13.4688 9.65625 13.75 10 13.75C10.3438 13.75 10.625 13.4688 10.625 13.125H11.875V3.75ZM5.9375 11.25H5V5.625H5.9375V11.25ZM7.96875 11.25H7.03125V5.625H7.96875V11.25ZM8.4375 3.75H6.5625V2.1875H8.4375V3.75ZM10 11.25H9.0625V5.625H10V11.25Z" fill="#323232"/>
</svg>
