<svg width="15" height="15" viewBox="0 0 15 15" fill="none" xmlns="http://www.w3.org/2000/svg">
<path fill-rule="evenodd" clip-rule="evenodd" d="M2.5 1.875H12.5C13.1938 1.875 13.75 2.43125 13.75 3.125V5C13.75 5.69375 13.1938 6.25 12.5 6.25H11.25V8.125C11.25 9.50625 10.1313 10.625 8.75 10.625H5C3.61875 10.625 2.5 9.50625 2.5 8.125V1.875ZM10 8.125V3.125H3.75V8.125C3.75 8.8125 4.3125 9.375 5 9.375H8.75C9.4375 9.375 10 8.8125 10 8.125ZM11.25 5V3.125H12.5V5H11.25ZM1.25 11.875H12.5V13.125H1.25V11.875Z" fill="black"/>
</svg>
