<?xml version="1.0" encoding="UTF-8"?>
<svg width="1024px" height="1024px" viewBox="0 0 1024 1024" version="1.1" xmlns="http://www.w3.org/2000/svg"
     xmlns:xlink="http://www.w3.org/1999/xlink">
    <title>logo3 copy 3</title>
    <desc>Created with Sketch.</desc>
    <defs>
        <rect id="path-1" x="0" y="0" width="1024" height="1024"></rect>
        <radialGradient cx="53.2094076%" cy="50%" fx="53.2094076%" fy="50%" r="65.9786464%" id="radialGradient-3">
            <stop stop-color="#FFFFFF" offset="0%"></stop>
            <stop stop-color="#FFFFFF" stop-opacity="0" offset="100%"></stop>
        </radialGradient>
    </defs>
    <g id="Page-1" stroke="none" stroke-width="1" fill="none" fill-rule="evenodd">
        <g id="ios-copy">
            <mask id="mask-2" fill="white">
                <use xlink:href="#path-1"></use>
            </mask>
            <use id="Mask-Copy" fill="#C4D4EF" xlink:href="#path-1"></use>
            <rect id="Rectangle" fill="url(#radialGradient-3)" mask="url(#mask-2)" x="0.390107039" y="-0.333746378"
                  width="1024" height="1024"></rect>
            <g id="Group" mask="url(#mask-2)">
                <g transform="translate(452.222536, 512.168735) rotate(-9.000000) translate(-452.222536, -512.168735) translate(-71.777464, 162.668735)"
                   id="guy">
                    <g transform="translate(0.354247, 10.530769)">
                        <path d="M298.324256,517.239714 C272.60997,517.239714 135,711.204607 102.857143,685.342622 C70.7142857,659.480636 192.857143,362.0678 173.571429,336.205814 C154.285714,310.343829 1.00979808e-14,291.017206 7.10542736e-15,252.154361 C7.10542736e-15,213.291516 135.814198,226.222509 298.324256,226.292375 C459.849748,226.361818 585,213.361382 585,252.154361 C585,290.947339 405,342.671311 385.714286,368.533297 C366.428571,394.395282 495,685.342622 462.857143,685.342622 C430.714286,685.342622 324.038542,517.239714 298.324256,517.239714 Z"
                              id="Star" fill="#CFB243"></path>
                        <ellipse id="Oval" fill="#CFB243" cx="276.428571" cy="90.51695" rx="90" ry="90.51695"></ellipse>
                    </g>
                    <g transform="translate(461.580068, 0.718006)">
                        <path d="M298.980261,517.28377 C273.235115,517.28377 135.459993,711.256795 103.27856,685.393725 C71.0971267,659.530655 193.386573,362.10535 174.077713,336.24228 C154.768853,310.37921 0.297973742,291.051777 0.297973742,252.187303 C0.297973742,213.322829 136.275168,226.254364 298.980261,226.324233 C460.699607,226.393679 586.000057,213.392698 586.000057,252.187303 C586.000057,290.981908 405.784031,342.708048 386.475172,368.571118 C367.166312,394.434188 495.892044,685.393725 463.710611,685.393725 C431.529178,685.393725 324.725408,517.28377 298.980261,517.28377 Z"
                              id="Star" fill="#8178A5"></path>
                        <ellipse id="Oval" fill="#8178A5" cx="277.058299" cy="90.5431156" rx="90.1080128"
                                 ry="90.5207449"></ellipse>
                    </g>
                </g>
            </g>
        </g>
    </g>
</svg>