<?xml version="1.0" encoding="UTF-8"?>
<svg width="1024px" height="1024px" viewBox="0 0 1024 1024" version="1.1" xmlns="http://www.w3.org/2000/svg" xmlns:xlink="http://www.w3.org/1999/xlink">
    <!-- Generator: Sketch 52.4 (67378) - http://www.bohemiancoding.com/sketch -->
    <title>logo3 copy 2</title>
    <desc>Created with Sketch.</desc>
    <defs>
        <rect id="path-1" x="0" y="0" width="1024" height="1024"></rect>
        <rect id="path-3" x="0" y="0" width="1024" height="1024"></rect>
    </defs>
    <g id="Page-1" stroke="none" stroke-width="1" fill="none" fill-rule="evenodd">
        <g id="ios">
            <mask id="mask-2" fill="white">
                <use xlink:href="#path-1"></use>
            </mask>
            <use id="Mask" fill="#737373" xlink:href="#path-1"></use>
            <mask id="mask-4" fill="white">
                <use xlink:href="#path-3"></use>
            </mask>
            <use id="Mask-Copy" fill="#737373" xlink:href="#path-3"></use>
            <g id="Group" mask="url(#mask-4)">
                <g transform="translate(466.160631, 505.655728) rotate(-9.000000) translate(-466.160631, -505.655728) translate(-48.399369, 162.615728)" id="guy">
                    <g transform="translate(3.985783, 11.937705)">
                        <path d="M289.81819,501.472897 C264.837091,501.472897 131.150769,689.525234 99.9243956,664.451589 C68.698022,639.377944 187.358242,351.031028 168.622418,325.957383 C149.886593,300.883738 1.00126547e-14,282.146241 7.10542736e-15,244.468037 C7.10542736e-15,206.789833 131.941752,219.326656 289.81819,219.394393 C446.738135,219.461719 568.32,206.85757 568.32,244.468037 C568.32,282.078505 393.452308,332.225794 374.716484,357.299439 C355.980659,382.373084 480.886154,664.451589 449.65978,664.451589 C418.433407,664.451589 314.799289,501.472897 289.81819,501.472897 Z" id="Star" fill="#FFFDE9"></path>
                        <ellipse id="Oval" fill="#FFFDE9" cx="268.546813" cy="87.757757" rx="87.4338462" ry="87.757757"></ellipse>
                    </g>
                    <g transform="translate(451.668306, 0.307972)">
                        <path d="M290.321548,502.494585 C265.322002,502.494585 131.536961,690.546922 100.287528,665.473277 C69.0380958,640.399632 187.785939,352.052716 169.03628,326.979071 C150.28662,301.905426 0.289344179,283.167929 0.289344179,245.489725 C0.289344179,207.811521 132.328528,220.348344 290.321548,220.41608 C447.35737,220.483407 569.029016,207.879258 569.029016,245.489725 C569.029016,283.100193 394.032194,333.247482 375.282535,358.321127 C356.532875,383.394772 481.530605,665.473277 450.281173,665.473277 C419.03174,665.473277 315.321094,502.494585 290.321548,502.494585 Z" id="Star" fill="#33B8E5"></path>
                        <ellipse id="Oval" fill="#33B8E5" cx="269.034464" cy="88.779445" rx="87.4984111" ry="87.757757"></ellipse>
                    </g>
                </g>
            </g>
        </g>
    </g>
</svg>