<?xml version="1.0" encoding="UTF-8"?>
<svg width="1024px" height="1024px" viewBox="0 0 1024 1024" version="1.1" xmlns="http://www.w3.org/2000/svg" xmlns:xlink="http://www.w3.org/1999/xlink">
    <!-- Generator: Sketch 52.4 (67378) - http://www.bohemiancoding.com/sketch -->
    <title>logo3</title>
    <desc>Created with Sketch.</desc>
    <g id="Page-1" stroke="none" stroke-width="1" fill="none" fill-rule="evenodd">
        <g id="logo3">
            <g id="Group" transform="translate(465.453054, 504.512340) rotate(-9.000000) translate(-465.453054, -504.512340) translate(113.453054, 269.512340)">
                <g id="guy" transform="translate(0.973600, 9.209800)" fill="#FFFDE9">
                    <path d="M199.392793,345.376395 C182.20598,345.376395 90.2307692,474.892543 68.7472527,457.623723 C47.2637363,440.354904 128.901099,241.763476 116.010989,224.494657 C103.120879,207.225837 9.10557846e-15,194.320874 7.10542736e-15,168.370993 C7.10542736e-15,142.421111 90.7749597,151.055521 199.392793,151.102173 C307.352567,151.148542 391,142.467763 391,168.370993 C391,194.274222 270.692308,228.811862 257.802198,246.080681 C244.912088,263.349501 330.846154,457.623723 309.362637,457.623723 C287.879121,457.623723 216.579606,345.376395 199.392793,345.376395 Z" id="Star"></path>
                    <ellipse id="Oval" cx="184.758242" cy="60.4408691" rx="60.1538462" ry="60.4408691"></ellipse>
                </g>
                <g id="guy" transform="translate(309.141464, 0.545859)" fill="#33B8E5">
                    <path d="M200.997264,346.080056 C183.689419,346.080056 91.0665066,475.596204 69.4317004,458.327384 C47.7968942,441.058565 130.009158,242.467137 117.028274,225.198318 C104.04739,207.929498 0.200320605,195.024535 0.200320605,169.074654 C0.200320605,143.124772 91.6145293,151.759182 200.997264,151.805834 C309.717304,151.852203 393.953793,143.171424 393.953793,169.074654 C393.953793,194.977883 272.798879,229.515523 259.817995,246.784342 C246.837111,264.053162 333.376336,458.327384 311.74153,458.327384 C290.106724,458.327384 218.305109,346.080056 200.997264,346.080056 Z" id="Star"></path>
                    <ellipse id="Oval" cx="186.259654" cy="61.1445301" rx="60.5774573" ry="60.4408691"></ellipse>
                </g>
            </g>
        </g>
    </g>
</svg>