<svg width="130" height="40" viewBox="0 0 130 40" fill="none" xmlns="http://www.w3.org/2000/svg">
<path d="M129.172 34.7163C129.172 35.2012 129.076 35.6814 128.891 36.1294C128.705 36.5773 128.433 36.9843 128.09 37.327C127.746 37.6697 127.339 37.9414 126.891 38.1267C126.442 38.3119 125.962 38.407 125.477 38.4064H4.55752C3.57747 38.4075 2.63713 38.0193 1.94331 37.3273C1.24949 36.6353 0.859004 35.6961 0.857727 34.7163V5.28859C0.859004 4.30835 1.24934 3.36868 1.94302 2.67591C2.6367 1.98313 3.57702 1.59388 4.55752 1.59363H125.476C125.961 1.59363 126.442 1.68921 126.89 1.87491C127.339 2.06061 127.746 2.33279 128.089 2.67592C128.432 3.01904 128.704 3.42638 128.89 3.87466C129.076 4.32295 129.171 4.80341 129.171 5.28859L129.172 34.7163Z" fill="white"/>
<path d="M125.477 39.2649H4.55753C3.35021 39.2646 2.1923 38.7856 1.33787 37.9328C0.483447 37.0801 0.0022972 35.9233 0 34.7163L0 5.28951C0.00178605 4.08192 0.482618 2.92433 1.33702 2.0707C2.19141 1.21707 3.34961 0.737103 4.55753 0.736084L125.476 0.736084C126.684 0.737612 127.842 1.21775 128.696 2.07127C129.55 2.92479 130.031 4.08207 130.034 5.28951V34.7163C130.035 37.2252 127.988 39.2649 125.477 39.2649Z" fill="#A6A6A6"/>
<path d="M129.172 34.7163C129.172 35.2012 129.076 35.6814 128.891 36.1294C128.705 36.5773 128.433 36.9843 128.09 37.327C127.746 37.6697 127.339 37.9414 126.891 38.1267C126.442 38.3119 125.962 38.407 125.477 38.4064H4.55752C3.57747 38.4075 2.63713 38.0193 1.94331 37.3273C1.24949 36.6353 0.859004 35.6961 0.857727 34.7163V5.28859C0.859004 4.30835 1.24934 3.36868 1.94302 2.67591C2.6367 1.98313 3.57702 1.59388 4.55752 1.59363H125.476C125.961 1.59363 126.442 1.68921 126.89 1.87491C127.339 2.06061 127.746 2.33279 128.089 2.67592C128.432 3.01904 128.704 3.42638 128.89 3.87466C129.076 4.32295 129.171 4.80341 129.171 5.28859L129.172 34.7163Z" fill="black"/>
<path d="M29.0356 19.7977C29.0076 16.6924 31.5789 15.1816 31.6964 15.1113C30.2402 12.9887 27.9832 12.6987 27.19 12.6756C25.2943 12.4762 23.4555 13.8096 22.4898 13.8096C21.5049 13.8096 20.0178 12.6949 18.4151 12.7276C16.3527 12.7594 14.4233 13.9532 13.3651 15.8069C11.1813 19.5867 12.81 25.1412 14.9023 28.1964C15.9489 29.6936 17.1719 31.3633 18.7727 31.3046C20.3388 31.241 20.9238 30.3074 22.8137 30.3074C24.6862 30.3074 25.2355 31.3046 26.8681 31.267C28.5489 31.241 29.6071 29.764 30.6171 28.2542C31.8265 26.5401 32.3123 24.8502 32.3315 24.7635C32.293 24.75 29.0683 23.5187 29.0356 19.7977ZM25.9516 10.6658C26.7939 9.61267 27.3702 8.17997 27.2102 6.72607C25.9911 6.78003 24.4665 7.56912 23.5885 8.59909C22.8117 9.50669 22.1178 10.9943 22.2971 12.3933C23.6666 12.4954 25.0727 11.7025 25.9516 10.6658Z" fill="white"/>
<path d="M125.477 0.736084H60.7089L86.0774 39.2649H125.477C126.685 39.2639 127.842 38.7842 128.697 37.9309C129.551 37.0777 130.032 35.9206 130.035 34.7134V5.28951C130.033 4.08199 129.552 2.92456 128.697 2.07098C127.843 1.21741 126.685 0.737358 125.477 0.736084Z" fill="url(#paint0_linear_607_5086)"/>
<path d="M51.7191 31.0897H49.5305L48.3316 27.3235H44.1643L43.0223 31.0897H40.8915L45.0211 18.2677H47.5712L51.7191 31.0897ZM47.9702 25.7434L46.886 22.3953C46.7713 22.0532 46.5554 21.2477 46.2393 19.9798H46.2007C46.0735 20.5251 45.8702 21.3306 45.5916 22.3953L44.5258 25.7434H47.9702ZM62.3183 26.3532C62.3183 27.9257 61.8914 29.1686 61.0365 30.081C60.2713 30.8932 59.3201 31.2988 58.1858 31.2988C56.9609 31.2988 56.08 30.8624 55.5452 29.9875V34.8387H53.4905V24.883C53.4905 23.8954 53.4644 22.8828 53.4143 21.8441H55.2213L55.336 23.3096H55.3746C56.0598 22.2054 57.0997 21.6534 58.4952 21.6534C59.5861 21.6534 60.4968 22.084 61.2254 22.9464C61.9531 23.8106 62.3183 24.9456 62.3183 26.3532ZM60.2251 26.4284C60.2251 25.5285 60.0227 24.7866 59.616 24.2018C59.1717 23.5938 58.5751 23.2894 57.8273 23.2894C57.3204 23.2894 56.8597 23.4589 56.4482 23.7933C56.0357 24.1305 55.7659 24.5708 55.6396 25.1161C55.5832 25.3201 55.5512 25.53 55.5442 25.7414V27.284C55.5442 27.9555 55.7504 28.523 56.1629 28.9874C56.5754 29.4499 57.1112 29.6821 57.7704 29.6821C58.5443 29.6821 59.1466 29.3824 59.5774 28.788C60.0092 28.1916 60.2251 27.4054 60.2251 26.4284ZM72.9551 26.3532C72.9551 27.9257 72.5282 29.1686 71.6733 30.081C70.9072 30.8932 69.9569 31.2988 68.8216 31.2988C67.5967 31.2988 66.7159 30.8624 66.181 29.9875V34.8387H64.1263V24.883C64.1263 23.8954 64.1003 22.8828 64.0502 21.8441H65.8572L65.9719 23.3096H66.0104C66.6947 22.2054 67.7345 21.6534 69.131 21.6534C70.221 21.6534 71.1317 22.084 71.8622 22.9464C72.5889 23.8106 72.9551 24.9456 72.9551 26.3532ZM70.8609 26.4284C70.8609 25.5285 70.6576 24.7866 70.2509 24.2018C69.8066 23.5938 69.212 23.2894 68.4641 23.2894C67.9572 23.2894 67.4965 23.4589 67.083 23.7933C66.6706 24.1305 66.4017 24.5708 66.2754 25.1161C66.2128 25.3705 66.1791 25.5776 66.1791 25.7414V27.284C66.1791 27.9555 66.3863 28.523 66.7968 28.9874C67.2093 29.4489 67.7451 29.6821 68.4063 29.6821C69.1811 29.6821 69.7834 29.3824 70.2133 28.788C70.645 28.1916 70.8609 27.4054 70.8609 26.4284ZM84.8477 27.4931C84.8477 28.5847 84.466 29.472 83.7076 30.1571C82.873 30.9048 81.7078 31.2795 80.214 31.2795C78.8339 31.2795 77.7276 31.0136 76.893 30.4808L77.3681 28.7687C78.2692 29.3025 79.2589 29.5684 80.3364 29.5684C81.1112 29.5684 81.7136 29.393 82.1434 29.0452C82.5742 28.6964 82.792 28.2301 82.792 27.6482C82.792 27.1269 82.6118 26.6905 82.2581 26.3349C81.9025 25.9804 81.3146 25.6499 80.4887 25.3464C78.2432 24.5091 77.1194 23.2846 77.1194 21.6736C77.1194 20.6215 77.5165 19.7601 78.3087 19.0866C79.1009 18.4141 80.1514 18.0779 81.4582 18.0779C82.6253 18.0779 83.5977 18.2812 84.3696 18.6868L83.8541 20.3613C83.1274 19.9682 82.3073 19.7717 81.3898 19.7717C80.665 19.7717 80.0964 19.9499 79.6897 20.3045C79.3476 20.6215 79.1741 21.0078 79.1741 21.4665C79.1741 21.9723 79.3717 22.3924 79.7649 22.7219C80.1061 23.0254 80.7286 23.3558 81.6288 23.7104C82.7332 24.1555 83.5447 24.6739 84.0641 25.2693C84.5875 25.8648 84.8477 26.6076 84.8477 27.4931ZM91.6584 23.3857H89.3936V27.8746C89.3936 29.0163 89.7926 29.5857 90.5925 29.5857C90.9597 29.5857 91.2642 29.5549 91.5052 29.4904L91.562 31.0502C91.1573 31.2015 90.6243 31.2776 89.9642 31.2776C89.1527 31.2776 88.5186 31.03 88.0608 30.5348C87.6049 30.0395 87.3756 29.21 87.3756 28.0422V23.3819H86.0263V21.8403H87.3756V20.1474L89.3936 19.5385V21.8403H91.6584V23.3857ZM101.857 26.3908C101.857 27.812 101.45 28.9787 100.639 29.8912C99.7895 30.8306 98.66 31.2988 97.252 31.2988C95.8931 31.2988 94.8127 30.8489 94.007 29.9499C93.2014 29.0491 92.7985 27.9141 92.7985 26.545C92.7985 25.1123 93.2149 23.9388 94.0446 23.0263C94.8763 22.113 95.9962 21.6563 97.4042 21.6563C98.7612 21.6563 99.8512 22.1072 100.676 23.0071C101.464 23.88 101.857 25.0073 101.857 26.3908ZM99.7268 26.438C99.7268 25.5911 99.5437 24.8647 99.1765 24.2567C98.7458 23.5225 98.129 23.1554 97.33 23.1554C96.507 23.1554 95.8757 23.5225 95.4459 24.2567C95.0778 24.8647 94.8946 25.6037 94.8946 26.4766C94.8946 27.3244 95.0778 28.0528 95.4459 28.6589C95.8902 29.393 96.5099 29.7601 97.3127 29.7601C98.0981 29.7601 98.714 29.3853 99.1592 28.6406C99.537 28.0182 99.7268 27.2869 99.7268 26.438ZM108.538 23.6507C108.325 23.6121 108.108 23.5931 107.891 23.5938C107.168 23.5938 106.609 23.8655 106.216 24.4128C105.875 24.8945 105.703 25.5035 105.703 26.2386V31.0897H103.648V24.7558C103.65 23.7852 103.63 22.8148 103.589 21.8451H105.378L105.453 23.6141H105.51C105.728 23.0061 106.069 22.5157 106.538 22.1486C106.966 21.8278 107.487 21.6541 108.023 21.6534C108.213 21.6534 108.384 21.6669 108.536 21.6909L108.538 23.6507ZM117.728 26.0295C117.733 26.3418 117.708 26.6538 117.652 26.9612H111.488C111.511 27.8746 111.81 28.5741 112.383 29.0558C112.902 29.4855 113.574 29.7014 114.399 29.7014C115.311 29.7014 116.144 29.5568 116.893 29.2649L117.215 30.6899C116.34 31.0714 115.307 31.2612 114.115 31.2612C112.68 31.2612 111.555 30.8392 110.736 29.9972C109.918 29.1541 109.509 28.021 109.509 26.6018C109.509 25.2086 109.889 24.0476 110.652 23.1217C111.45 22.1332 112.528 21.6389 113.885 21.6389C115.218 21.6389 116.227 22.1332 116.912 23.1217C117.455 23.905 117.728 24.8762 117.728 26.0295ZM115.768 25.4967C115.783 24.8868 115.648 24.3617 115.369 23.9176C115.014 23.3453 114.466 23.0601 113.733 23.0601C113.061 23.0601 112.514 23.3385 112.097 23.8973C111.755 24.3415 111.552 24.8753 111.489 25.4948L115.768 25.4967Z" fill="white"/>
<path d="M43.5716 13.7345C43.0001 13.7345 42.5058 13.7065 42.0942 13.6593V7.46025C42.6698 7.37136 43.2514 7.32755 43.8338 7.32922C46.1901 7.32922 47.2753 8.48829 47.2753 10.3777C47.2753 12.5571 45.9935 13.7345 43.5716 13.7345ZM43.9167 8.12409C43.5986 8.12409 43.3278 8.14336 43.1033 8.18961V12.902C43.2247 12.9213 43.4579 12.93 43.7856 12.93C45.3295 12.93 46.2084 12.0513 46.2084 10.4056C46.2084 8.93824 45.4134 8.12409 43.9167 8.12409ZM50.6571 13.7817C49.329 13.7817 48.4684 12.7902 48.4684 11.4443C48.4684 10.0414 49.3473 9.04133 50.7322 9.04133C52.041 9.04133 52.9209 9.98554 52.9209 11.3701C52.9209 12.7902 52.014 13.7817 50.6571 13.7817ZM50.6956 9.77936C49.9661 9.77936 49.4986 10.4615 49.4986 11.4154C49.4986 12.3509 49.9757 13.033 50.686 13.033C51.3962 13.033 51.8733 12.3037 51.8733 11.3961C51.8733 10.4711 51.4059 9.77936 50.6956 9.77936ZM60.494 9.13479L59.0724 13.6786H58.1463L57.5574 11.7054C57.411 11.2227 57.2891 10.7329 57.1922 10.238H57.1729C57.0987 10.7332 56.958 11.2294 56.8086 11.7054L56.1822 13.6786H55.2464L53.9087 9.13479H54.9467L55.4613 11.2949C55.5827 11.8094 55.6849 12.295 55.7697 12.7536H55.789C55.8632 12.3711 55.9846 11.8932 56.1629 11.3046L56.8086 9.13575H57.6316L58.2494 11.2583C58.3988 11.7728 58.5202 12.2777 58.6147 12.7546H58.6416C58.7072 12.2873 58.8103 11.7911 58.95 11.2583L59.5023 9.13575L60.494 9.13479ZM65.7271 13.6786H64.7171V11.0695C64.7171 10.2659 64.4087 9.86318 63.8005 9.86318C63.2021 9.86318 62.7905 10.3777 62.7905 10.976V13.6786H61.7806V10.4336C61.7806 10.0318 61.7709 9.60111 61.743 9.13382H62.6315L62.6788 9.83524H62.7067C62.9785 9.34964 63.5297 9.04133 64.1475 9.04133C65.1016 9.04133 65.728 9.77069 65.728 10.9577L65.7271 13.6786ZM68.5123 13.6786H67.5013V7.0498H68.5123V13.6786ZM72.1947 13.7817C70.8677 13.7817 70.0061 12.7902 70.0061 11.4443C70.0061 10.0414 70.885 9.04133 72.2689 9.04133C73.5786 9.04133 74.4576 9.98554 74.4576 11.3701C74.4585 12.7902 73.5507 13.7817 72.1947 13.7817ZM72.2323 9.77936C71.5028 9.77936 71.0353 10.4615 71.0353 11.4154C71.0353 12.3509 71.5134 13.033 72.2217 13.033C72.9329 13.033 73.409 12.3037 73.409 11.3961C73.41 10.4711 72.9435 9.77936 72.2323 9.77936ZM78.4398 13.6786L78.3665 13.1554H78.3395C78.0311 13.5765 77.5811 13.7817 77.0105 13.7817C76.1962 13.7817 75.6179 13.2113 75.6179 12.4444C75.6179 11.3229 76.5903 10.7428 78.274 10.7428V10.659C78.274 10.0607 77.9569 9.76105 77.3305 9.76105C76.8824 9.76105 76.4891 9.87378 76.1432 10.0983L75.9379 9.43443C76.3581 9.17236 76.8824 9.04133 77.4982 9.04133C78.6855 9.04133 79.285 9.66759 79.285 10.9211V12.5947C79.285 13.0533 79.3052 13.4088 79.3505 13.6795L78.4398 13.6786ZM78.301 11.4154C77.1792 11.4154 76.6164 11.6871 76.6164 12.3316C76.6164 12.8086 76.9064 13.0417 77.3093 13.0417C77.823 13.0417 78.301 12.6496 78.301 12.1168V11.4154ZM84.1894 13.6786L84.1422 12.9492H84.1143C83.8242 13.5003 83.3365 13.7817 82.6552 13.7817C81.5594 13.7817 80.7479 12.8182 80.7479 11.4626C80.7479 10.0414 81.5893 9.04036 82.738 9.04036C83.3462 9.04036 83.7769 9.24559 84.0198 9.65796H84.0401V7.0498H85.051V12.454C85.051 12.8933 85.0616 13.3047 85.0886 13.6786H84.1894ZM84.0401 11.0049C84.0401 10.369 83.6189 9.82657 82.9761 9.82657C82.2273 9.82657 81.7695 10.4904 81.7695 11.425C81.7695 12.3413 82.2446 12.9685 82.9558 12.9685C83.5909 12.9685 84.0401 12.4164 84.0401 11.7622V11.0049ZM91.4608 13.7817C90.1338 13.7817 89.2732 12.7902 89.2732 11.4443C89.2732 10.0414 90.1521 9.04133 91.536 9.04133C92.8457 9.04133 93.7247 9.98554 93.7247 11.3701C93.7256 12.7902 92.8188 13.7817 91.4608 13.7817ZM91.4984 9.77936C90.7698 9.77936 90.3024 10.4615 90.3024 11.4154C90.3024 12.3509 90.7795 13.033 91.4888 13.033C92.2 13.033 92.6761 12.3037 92.6761 11.3961C92.6781 10.4711 92.2106 9.77936 91.4984 9.77936ZM99.1563 13.6786H98.1453V11.0695C98.1453 10.2659 97.8369 9.86318 97.2288 9.86318C96.6303 9.86318 96.2198 10.3777 96.2198 10.976V13.6786H95.2088V10.4336C95.2088 10.0318 95.1992 9.60111 95.1712 9.13382H96.0598L96.107 9.83524H96.135C96.4058 9.34964 96.958 9.04036 97.5748 9.04036C98.5289 9.04036 99.1563 9.76972 99.1563 10.9567V13.6786ZM105.952 9.89209H104.84V12.0985C104.84 12.6602 105.035 12.9406 105.428 12.9406C105.607 12.9406 105.756 12.9213 105.876 12.8933L105.904 13.6603C105.709 13.7354 105.447 13.773 105.121 13.773C104.325 13.773 103.849 13.3337 103.849 12.1833V9.89209H103.186V9.13479H103.849V8.30234L104.84 8.00269V9.13382H105.952V9.89209ZM111.298 13.6786H110.289V11.0887C110.289 10.2756 109.982 9.86414 109.373 9.86414C108.85 9.86414 108.362 10.2197 108.362 10.9394V13.6786H107.353V7.0498H108.362V9.77936H108.382C108.7 9.28413 109.161 9.04036 109.749 9.04036C110.711 9.04036 111.298 9.78803 111.298 10.976V13.6786ZM116.776 11.6495H113.745C113.765 12.5099 114.334 12.9955 115.178 12.9955C115.626 12.9955 116.038 12.9203 116.402 12.7806L116.56 13.482C116.13 13.6689 115.624 13.7624 115.035 13.7624C113.613 13.7624 112.772 12.8644 112.772 11.4722C112.772 10.079 113.634 9.03169 114.921 9.03169C116.082 9.03169 116.811 9.89209 116.811 11.1918C116.818 11.3452 116.806 11.4988 116.776 11.6495ZM115.85 10.9298C115.85 10.2283 115.497 9.73311 114.851 9.73311C114.271 9.73311 113.812 10.238 113.746 10.9298H115.85Z" fill="white"/>
<defs>
<linearGradient id="paint0_linear_607_5086" x1="95.3706" y1="39.3672" x2="95.3706" y2="-99.5863" gradientUnits="userSpaceOnUse">
<stop stop-color="#1A1A1A" stop-opacity="0.1"/>
<stop offset="0.123" stop-color="#212121" stop-opacity="0.151"/>
<stop offset="0.308" stop-color="#353535" stop-opacity="0.227"/>
<stop offset="0.532" stop-color="#575757" stop-opacity="0.318"/>
<stop offset="0.783" stop-color="#858585" stop-opacity="0.421"/>
<stop offset="1" stop-color="#B3B3B3" stop-opacity="0.51"/>
</linearGradient>
</defs>
</svg>
