<svg width="64" height="32" viewBox="0 0 64 32" fill="none" xmlns="http://www.w3.org/2000/svg">
<g clip-path="url(#clip0_421_4900)">
<path d="M18.675 15.0254V23.8438H17.0275V13.6035H18.5451L18.675 15.0254ZM23.4943 17.2334V17.377C23.4943 17.9147 23.4305 18.4137 23.3029 18.874C23.1799 19.3298 22.9953 19.7285 22.7492 20.0703C22.5077 20.4076 22.2092 20.6696 21.8537 20.8564C21.4982 21.0433 21.0881 21.1367 20.6232 21.1367C20.163 21.1367 19.7596 21.0524 19.4133 20.8838C19.0715 20.7106 18.7821 20.4668 18.5451 20.1523C18.3081 19.8379 18.1167 19.4688 17.9709 19.0449C17.8296 18.6165 17.7294 18.1471 17.6701 17.6367V17.083C17.7294 16.5407 17.8296 16.0485 17.9709 15.6064C18.1167 15.1644 18.3081 14.7839 18.5451 14.4648C18.7821 14.1458 19.0715 13.8997 19.4133 13.7266C19.7551 13.5534 20.1538 13.4668 20.6096 13.4668C21.0744 13.4668 21.4868 13.5579 21.8469 13.7402C22.2069 13.918 22.51 14.1732 22.7561 14.5059C23.0021 14.834 23.1867 15.2305 23.3098 15.6953C23.4328 16.1556 23.4943 16.6683 23.4943 17.2334ZM21.8469 17.377V17.2334C21.8469 16.8916 21.815 16.5749 21.7512 16.2832C21.6874 15.987 21.5871 15.7272 21.4504 15.5039C21.3137 15.2806 21.1382 15.1074 20.924 14.9844C20.7144 14.8568 20.4615 14.793 20.1652 14.793C19.8736 14.793 19.6229 14.8431 19.4133 14.9434C19.2036 15.0391 19.0282 15.1735 18.8869 15.3467C18.7456 15.5199 18.6363 15.7227 18.5588 15.9551C18.4813 16.1829 18.4266 16.4313 18.3947 16.7002V18.0264C18.4494 18.3545 18.5428 18.6553 18.675 18.9287C18.8072 19.2021 18.994 19.4209 19.2355 19.585C19.4816 19.7445 19.7961 19.8242 20.1789 19.8242C20.4751 19.8242 20.7281 19.7604 20.9377 19.6328C21.1473 19.5052 21.3182 19.3298 21.4504 19.1064C21.5871 18.8786 21.6874 18.6165 21.7512 18.3203C21.815 18.0241 21.8469 17.7096 21.8469 17.377ZM26.7594 10.5V21H25.1051V10.5H26.7594ZM32.834 19.5166V15.9893C32.834 15.7249 32.7861 15.4971 32.6904 15.3057C32.5947 15.1143 32.4489 14.9661 32.2529 14.8613C32.0615 14.7565 31.82 14.7041 31.5283 14.7041C31.2594 14.7041 31.027 14.7497 30.8311 14.8408C30.6351 14.932 30.4824 15.055 30.373 15.21C30.2637 15.3649 30.209 15.5404 30.209 15.7363H28.5684C28.5684 15.4447 28.639 15.1621 28.7803 14.8887C28.9215 14.6152 29.1266 14.3714 29.3955 14.1572C29.6644 13.943 29.9857 13.7744 30.3594 13.6514C30.7331 13.5283 31.1523 13.4668 31.6172 13.4668C32.1732 13.4668 32.6654 13.5602 33.0938 13.7471C33.5267 13.9339 33.8662 14.2165 34.1123 14.5947C34.363 14.9684 34.4883 15.4378 34.4883 16.0029V19.291C34.4883 19.6283 34.5111 19.9313 34.5566 20.2002C34.6068 20.4645 34.6774 20.6947 34.7686 20.8906V21H33.0801C33.0026 20.8223 32.9411 20.5967 32.8955 20.3232C32.8545 20.0452 32.834 19.7764 32.834 19.5166ZM33.0732 16.502L33.0869 17.5205H31.9043C31.599 17.5205 31.3301 17.5501 31.0977 17.6094C30.8652 17.6641 30.6715 17.7461 30.5166 17.8555C30.3617 17.9648 30.2454 18.097 30.168 18.252C30.0905 18.4069 30.0518 18.5824 30.0518 18.7783C30.0518 18.9743 30.0973 19.1543 30.1885 19.3184C30.2796 19.4779 30.4118 19.6032 30.585 19.6943C30.7627 19.7855 30.9769 19.8311 31.2275 19.8311C31.5648 19.8311 31.8587 19.7627 32.1094 19.626C32.3646 19.4847 32.5651 19.3138 32.7109 19.1133C32.8568 18.9082 32.9342 18.7145 32.9434 18.5322L33.4766 19.2637C33.4219 19.4505 33.3285 19.651 33.1963 19.8652C33.0641 20.0794 32.891 20.2845 32.6768 20.4805C32.4671 20.6719 32.2142 20.8291 31.918 20.9521C31.6263 21.0752 31.2891 21.1367 30.9062 21.1367C30.4232 21.1367 29.9925 21.041 29.6143 20.8496C29.236 20.6536 28.9398 20.3916 28.7256 20.0635C28.5114 19.7308 28.4043 19.3548 28.4043 18.9355C28.4043 18.5436 28.4772 18.1973 28.623 17.8965C28.7734 17.5911 28.9922 17.3359 29.2793 17.1309C29.571 16.9258 29.9264 16.7708 30.3457 16.666C30.765 16.5566 31.2435 16.502 31.7812 16.502H33.0732ZM39.3324 19.8242C39.6013 19.8242 39.8428 19.7718 40.057 19.667C40.2758 19.5576 40.4512 19.4072 40.5834 19.2158C40.7201 19.0244 40.7953 18.8034 40.809 18.5527H42.3607C42.3516 19.0312 42.2104 19.4665 41.9369 19.8584C41.6635 20.2503 41.3012 20.5625 40.85 20.7949C40.3988 21.0228 39.8998 21.1367 39.3529 21.1367C38.7878 21.1367 38.2956 21.041 37.8764 20.8496C37.4571 20.6536 37.1085 20.3848 36.8305 20.043C36.5525 19.7012 36.3428 19.307 36.2016 18.8604C36.0648 18.4137 35.9965 17.9352 35.9965 17.4248V17.1855C35.9965 16.6751 36.0648 16.1966 36.2016 15.75C36.3428 15.2988 36.5525 14.9023 36.8305 14.5605C37.1085 14.2188 37.4571 13.9521 37.8764 13.7607C38.2956 13.5648 38.7855 13.4668 39.3461 13.4668C39.9385 13.4668 40.4581 13.5853 40.9047 13.8223C41.3513 14.0547 41.7022 14.3805 41.9574 14.7998C42.2172 15.2145 42.3516 15.6976 42.3607 16.249H40.809C40.7953 15.9756 40.727 15.7295 40.6039 15.5107C40.4854 15.2874 40.3168 15.1097 40.098 14.9775C39.8839 14.8454 39.6264 14.7793 39.3256 14.7793C38.9929 14.7793 38.7172 14.8477 38.4984 14.9844C38.2797 15.1165 38.1088 15.2988 37.9857 15.5312C37.8627 15.7591 37.7738 16.0166 37.7191 16.3037C37.669 16.5863 37.6439 16.8802 37.6439 17.1855V17.4248C37.6439 17.7301 37.669 18.0264 37.7191 18.3135C37.7693 18.6006 37.8559 18.8581 37.9789 19.0859C38.1065 19.3092 38.2797 19.4893 38.4984 19.626C38.7172 19.7581 38.9952 19.8242 39.3324 19.8242ZM45.3797 15.0117V21H43.7322V13.6035H45.3045L45.3797 15.0117ZM47.6424 13.5557L47.6287 15.0869C47.5285 15.0687 47.4191 15.055 47.3006 15.0459C47.1867 15.0368 47.0727 15.0322 46.9588 15.0322C46.6762 15.0322 46.4279 15.0732 46.2137 15.1553C45.9995 15.2327 45.8195 15.3467 45.6736 15.4971C45.5324 15.6429 45.423 15.8206 45.3455 16.0303C45.268 16.2399 45.2225 16.4746 45.2088 16.7344L44.8328 16.7617C44.8328 16.2969 44.8784 15.8662 44.9695 15.4697C45.0607 15.0732 45.1974 14.7246 45.3797 14.4238C45.5665 14.123 45.799 13.8883 46.077 13.7197C46.3595 13.5511 46.6854 13.4668 47.0545 13.4668C47.1548 13.4668 47.2618 13.4759 47.3758 13.4941C47.4943 13.5124 47.5831 13.5329 47.6424 13.5557Z" fill="white"/>
</g>
<rect x="0.5" y="0.5" width="63" height="31" rx="7.5" stroke="#79747E"/>
<path d="M38.5701 9.16836C38.5701 8.52621 38.0591 8 37.4374 8C36.8157 8 36.3047 8.52621 36.3047 9.16836C36.3047 9.81051 36.815 10.3367 37.4374 10.3367C38.0598 10.3367 38.5701 9.82676 38.5701 9.16836Z" fill="#E20C7C"/>
<path d="M11.6945 20.9062C11.6945 23.8446 10.5262 24.8234 8.64753 25.6938L8 24.0071C9.08891 23.4264 9.67394 22.9374 9.67394 21.051V12.1642H11.6945V20.9062Z" fill="#717274"/>
<path d="M20.7093 21.7582H18.957L18.8464 20.4164C18.2305 21.5046 17.4415 22.0301 16.2887 22.0301C14.7731 22.0301 13.9683 20.9062 13.9683 19.0559V12.1642H15.9888V18.7663C15.9888 19.8902 16.3045 20.2712 16.9994 20.2712C17.6943 20.2712 18.2625 19.745 18.6884 18.9107V12.1642H20.7089V21.7582H20.7096H20.7093Z" fill="#717274"/>
<path d="M22.9822 19.5637V8.31964L25.0027 8.06538V19.4908C25.0027 19.944 25.1295 20.1615 25.476 20.1615C25.6495 20.1615 25.8075 20.125 25.9336 20.0705L26.376 21.7029C26.0287 21.8839 25.5396 22.0294 25.0178 22.0294C23.7403 22.0301 22.9822 21.1417 22.9822 19.5637Z" fill="#717274"/>
<path d="M34.5705 16.734C34.5705 13.7057 33.2281 11.8919 30.8919 11.8919C28.5557 11.8919 27.1816 14.1044 27.1816 17.024C27.1816 19.9437 28.5711 22.0294 31.1602 22.0294C32.4233 22.0294 33.4339 21.5039 34.2549 20.7422L33.4181 19.4182C32.6923 19.9989 32.0767 20.2713 31.3344 20.2713C30.2293 20.2713 29.4403 19.6367 29.2819 17.6777H34.5239C34.5389 17.4235 34.5705 17.0428 34.5705 16.734ZM32.5651 16.0633V16.1721H29.2812C29.3921 14.2676 29.9919 13.5424 30.9393 13.5424C32.0767 13.5424 32.5658 14.4854 32.5658 16.0633H32.5651Z" fill="#717274"/>
<path d="M38.3757 21.7582H36.3552V12.1642H38.3757V21.7582Z" fill="#717274"/>
<path d="M46.854 13.0169L45.954 14.4132C45.4016 13.9415 44.896 13.7237 44.2649 13.7237C43.0967 13.7237 42.3859 14.7032 42.3859 17.0063C42.3859 19.3095 43.1283 20.1438 44.2649 20.1438C44.8967 20.1438 45.3381 19.9083 45.954 19.4543L46.854 20.9235C46.0958 21.631 45.2274 22.0298 44.1543 22.0298C41.7388 22.0298 40.239 20.1073 40.239 17.0425C40.239 13.9776 41.7388 11.8919 44.1385 11.8919C45.2274 11.8926 46.0642 12.2379 46.854 13.0177V13.0169Z" fill="#717274"/>
<path d="M54.3678 19.2177V15.1918C54.3678 13.0697 53.3895 11.8912 51.1471 11.8912C50.2158 11.8912 49.1582 12.1277 48.1317 12.5806L48.5893 14.1589C49.4415 13.8324 50.2474 13.6511 50.8156 13.6511C51.8898 13.6511 52.3785 14.0679 52.3785 15.3193V15.8636H51.3205C48.8899 15.8636 47.532 16.9883 47.532 19.074C47.532 20.8152 48.5577 22.0301 50.2158 22.0301C51.2264 22.0301 52.1261 21.6137 52.7262 20.5974C53.0419 21.5404 53.642 21.9026 54.5732 21.9936L54.9999 20.4522C54.5901 20.2712 54.3685 19.9989 54.3678 19.2177ZM52.3796 19.165C52.0004 19.9267 51.4638 20.3435 50.7696 20.3435C49.9964 20.3435 49.5855 19.818 49.5855 18.8927C49.5855 17.7687 50.2323 17.2245 51.5428 17.2245H52.3796V19.165Z" fill="#717274"/>
<defs>
<clipPath id="clip0_421_4900">
<rect width="64" height="32" rx="8" fill="white"/>
</clipPath>
</defs>
</svg>
