<svg width="120" height="42" viewBox="0 0 120 42" fill="none" xmlns="http://www.w3.org/2000/svg">
<path d="M66.6913 29.9423L68.323 37.049H70.1643L71.7976 29.9423H70.3141L69.2602 35.1976H69.2295L68.2246 29.9423H66.6913ZM72.8614 29.9423V37.049H76.9326V35.8752H74.295V33.9637H76.6842V32.7887H74.295V31.1173H76.8327V29.9423H72.8614ZM79.5154 30.9979H80.193C80.8395 30.9979 81.1881 31.3255 81.1881 31.9823C81.1881 32.7492 80.8 33.0476 80.1129 33.0476H79.5154V30.9979ZM78.0816 37.049H79.5152V34.0436H80.2813C80.8598 34.0436 81.1078 34.382 81.1275 34.939L81.1681 36.3024C81.178 36.5808 81.2086 36.8503 81.3471 37.049H82.8996V36.9897C82.6311 36.8505 82.5915 36.4621 82.5812 35.716C82.5624 34.2127 82.4121 33.6745 81.4378 33.5452V33.5262C82.2435 33.3566 82.6207 32.7188 82.6207 31.7739C82.6207 30.5596 81.9045 29.9423 80.7295 29.9423H78.0816V37.049ZM84.0498 37.049H86.4681C88.1398 37.049 88.6885 36.0832 88.6885 34.9687C88.6885 34.0238 88.181 33.4263 87.3944 33.3161V33.297C88.1007 33.0968 88.4695 32.5104 88.4695 31.744C88.4695 30.3801 87.6233 29.9423 86.4483 29.9423H84.0498V37.049ZM85.4829 30.9979H86.0015C86.7074 30.9979 87.0357 31.2466 87.0357 31.923C87.0357 32.5904 86.6772 32.8589 85.8918 32.8589H85.4829V30.9979ZM85.4829 33.8542H86.1002C86.7283 33.8542 87.1951 34.093 87.1951 34.9192C87.1951 35.7447 86.7281 35.9944 86.0408 35.9944H85.4831L85.4829 33.8542ZM91.3958 29.9423H89.9632V37.049H91.3958V29.9423ZM92.8511 29.9423V37.049H94.1651V32.0728H94.1849L95.9372 37.049H97.5683V29.9423H96.2553V34.8095H96.2355L94.5035 29.9423H92.8511ZM99.035 37.049H101.294C103.195 37.049 103.732 35.9145 103.732 33.3959C103.732 31.3057 103.374 29.9423 101.384 29.9423H99.035V37.049ZM100.468 30.9979H101.075C102.171 30.9979 102.299 31.8231 102.299 33.4355C102.299 35.3674 102.101 35.9941 101.105 35.9941H100.468V30.9979ZM105.052 29.9423V37.049H109.123V35.8752H106.485V33.9637H108.873V32.7887H106.485V31.1173H109.023V29.9423H105.052ZM110.045 29.9423V31.1173H111.598V37.049H113.032V31.1173H114.584V29.9423H110.045ZM115.032 37.049H116.346V35.4967H115.032V37.049Z" fill="black"/>
<path d="M20.0782 15.3386C20.0782 22.0968 20.918 26.8921 27.6455 26.8921C34.3731 26.8921 35.2138 22.0968 35.2138 15.3386C35.2138 8.5794 34.3731 3.7843 27.6455 3.7843C20.918 3.78406 20.0782 8.5794 20.0782 15.3386ZM24.5631 15.3386C24.5631 9.39016 24.9988 7.085 27.6455 7.085C30.2927 7.085 30.7282 9.39016 30.7282 15.3386C30.7282 21.3178 30.2927 23.5912 27.6455 23.5912C24.9985 23.5912 24.5631 21.3178 24.5631 15.3386ZM38.3782 26.4564H45.9464C51.1784 26.4564 52.8913 23.436 52.8913 19.9472C52.8913 16.9893 51.3024 15.1205 48.8423 14.7782V14.7152C51.0536 14.0919 52.206 12.255 52.206 9.85766C52.206 5.59036 49.559 4.21996 45.8846 4.21996H38.3782V26.4564ZM42.8628 7.52138H44.4822C46.6935 7.52138 47.7211 8.3003 47.7211 10.4175C47.7211 12.5046 46.6001 13.3455 44.1391 13.3455H42.8628V7.52138ZM42.8628 16.4595H44.7931C46.7567 16.4595 48.2197 17.2069 48.2197 19.7914C48.2197 22.3759 46.7567 23.1553 44.6071 23.1553H42.8628V16.4595ZM67.5388 26.4564V22.7821H60.0651V4.21996H55.5812V26.4564H67.5388ZM70.042 4.21996V26.4564H82.7805V22.7821H74.5269V16.8018H82.0006V13.1275H74.5269V7.89456H82.469V4.21996H70.042ZM85.6286 4.21996V26.4564H89.7389V10.8846H89.8016L95.2835 26.4564H100.391V4.21996H96.2797V19.4498H96.2165L90.7983 4.21996H85.6286ZM102.799 26.4564H116.285V22.7821H107.844L116.16 7.61522V4.21996H103.36V7.89408H110.99L102.8 23.1859L102.799 26.4564Z" fill="black"/>
<path d="M8.15099 4.21887H3.65356V26.52H8.15099V4.21887Z" fill="black"/>
<path d="M19.7764 4.21887H13.9769L6.87299 15.3696L9.53878 19.5548L19.7764 4.21887Z" fill="#C50E1F"/>
<path d="M6.87299 15.3695L13.9759 26.5192H19.7755L9.53878 11.1842L6.87299 15.3695Z" fill="#922224"/>
<path d="M6.87207 15.3656L9.54968 11.1791L12.3547 15.3656L9.54968 19.5533L6.87207 15.3656Z" fill="#E2007A"/>
</svg>
