
<svg width="50" height="11" viewBox="0 0 50 11" fill="none" xmlns="http://www.w3.org/2000/svg">
    <g clip-path="url(#clip0_22_2)">
        <path d="M2.666 6.4277L3.56 3.2887H5.323L3.695 8.0217H1.637L0 3.2887H1.772L2.666 6.4277Z" fill="#3D3C3B"/>
        <path d="M10.04 5.95469H6.91C6.938 6.48869 7.171 6.75669 7.61 6.75669C7.773 6.75669 7.908 6.71769 8.015 6.63869C8.122 6.55969 8.195 6.45569 8.234 6.32669H9.989C9.927 6.65869 9.789 6.95869 9.576 7.22569C9.362 7.49269 9.092 7.70269 8.766 7.85469C8.44 8.00669 8.082 8.08269 7.694 8.08269C7.221 8.08269 6.804 7.98569 6.441 7.79169C6.078 7.59769 5.795 7.31669 5.593 6.94769C5.391 6.57969 5.289 6.14769 5.289 5.65269C5.289 5.15769 5.39 4.72769 5.593 4.36169C5.796 3.99569 6.079 3.71669 6.445 3.52269C6.811 3.32869 7.227 3.23169 7.694 3.23169C8.161 3.23169 8.583 3.32769 8.943 3.51869C9.303 3.70969 9.583 3.98269 9.783 4.33669C9.983 4.69069 10.082 5.10169 10.082 5.56869C10.082 5.68669 10.068 5.81569 10.04 5.95669V5.95469ZM8.201 4.71469C8.066 4.59069 7.897 4.52869 7.695 4.52869C7.476 4.52869 7.297 4.59069 7.159 4.71469C7.021 4.83869 6.941 5.02169 6.918 5.26269H8.395C8.401 5.02069 8.336 4.83769 8.201 4.71469Z" fill="#3D3C3B"/>
        <path d="M12.943 3.4997C13.224 3.3307 13.522 3.2467 13.837 3.2467V5.0187H13.356C12.985 5.0187 12.706 5.0907 12.521 5.2337C12.335 5.3767 12.243 5.6257 12.243 5.9807V8.0227H10.581V3.2887H12.243V4.1747C12.429 3.8937 12.662 3.6687 12.943 3.4997Z" fill="#3D3C3B"/>
        <path d="M18.722 5.95469H15.592C15.62 6.48869 15.853 6.75669 16.292 6.75669C16.455 6.75669 16.59 6.71769 16.697 6.63869C16.804 6.55969 16.877 6.45569 16.916 6.32669H18.671C18.609 6.65869 18.471 6.95869 18.258 7.22569C18.044 7.49269 17.774 7.70269 17.448 7.85469C17.122 8.00669 16.764 8.08269 16.376 8.08269C15.903 8.08269 15.486 7.98569 15.123 7.79169C14.76 7.59769 14.477 7.31669 14.275 6.94769C14.073 6.57969 13.971 6.14769 13.971 5.65269C13.971 5.15769 14.072 4.72769 14.275 4.36169C14.478 3.99569 14.761 3.71669 15.127 3.52269C15.493 3.32869 15.909 3.23169 16.376 3.23169C16.843 3.23169 17.265 3.32769 17.625 3.51869C17.985 3.70969 18.265 3.98269 18.465 4.33669C18.665 4.69069 18.764 5.10169 18.764 5.56869C18.764 5.68669 18.75 5.81569 18.722 5.95669V5.95469ZM16.883 4.71469C16.748 4.59069 16.579 4.52869 16.377 4.52869C16.158 4.52869 15.979 4.59069 15.841 4.71469C15.703 4.83869 15.623 5.02169 15.6 5.26269H17.077C17.083 5.02069 17.018 4.83769 16.883 4.71469Z" fill="#3D3C3B"/>
        <path d="M19.397 1.36966C19.577 1.20966 19.813 1.12866 20.106 1.12866C20.399 1.12866 20.632 1.20866 20.806 1.36966C20.98 1.52966 21.067 1.73366 21.067 1.98166C21.067 2.22966 20.978 2.41466 20.801 2.57266C20.624 2.73066 20.392 2.80866 20.105 2.80866C19.818 2.80866 19.576 2.72966 19.396 2.57266C19.216 2.41566 19.126 2.21866 19.126 1.98166C19.126 1.74466 19.216 1.53066 19.396 1.36966H19.397ZM20.924 3.28866V8.02166H19.262V3.28866H20.924Z" fill="#3D3C3B"/>
        <path d="M26.122 3.79061C26.431 4.15361 26.586 4.64661 26.586 5.27161V8.02261H24.941V5.48261C24.941 5.20661 24.869 4.99161 24.726 4.83661C24.583 4.68161 24.39 4.60461 24.148 4.60461C23.906 4.60461 23.704 4.68461 23.557 4.84461C23.41 5.00461 23.338 5.22561 23.338 5.50661V8.02061H21.676V3.28861H23.338V4.08161C23.473 3.82861 23.67 3.62561 23.929 3.47361C24.188 3.32161 24.491 3.24561 24.84 3.24561C25.386 3.24561 25.813 3.42661 26.123 3.78961L26.122 3.79061Z" fill="#3D3C3B"/>
        <path d="M44.684 0.000610352H33.409C30.473 0.000610352 28.093 2.38066 28.093 5.31661V5.35861C28.093 8.29456 30.473 10.6746 33.409 10.6746H44.684C47.6199 10.6746 50 8.29456 50 5.35861V5.31661C50 2.38066 47.6199 0.000610352 44.684 0.000610352Z" fill="url(#paint0_linear_22_2)"/>
        <path d="M38.014 4.23957C37.618 4.23957 37.246 4.34057 36.921 4.51757V3.99257C36.921 3.37457 37.324 2.86457 37.959 2.86457C38.472 2.86457 38.85 3.22057 38.957 3.68057L40.166 3.69157C40.054 2.60857 39.188 1.73657 37.995 1.73657C36.652 1.73657 35.73 2.65857 35.73 3.93857V6.45457C35.73 6.46757 35.731 6.47957 35.732 6.49257C35.732 6.50257 35.73 6.51257 35.73 6.52257C35.73 7.78357 36.752 8.80657 38.014 8.80657C39.276 8.80657 40.298 7.78457 40.298 6.52257C40.298 5.26057 39.276 4.23857 38.014 4.23857V4.23957ZM38.014 7.66457C37.384 7.66457 36.873 7.15357 36.873 6.52357C36.873 5.89357 37.384 5.38257 38.014 5.38257C38.644 5.38257 39.155 5.89357 39.155 6.52357C39.155 7.15357 38.644 7.66457 38.014 7.66457Z" fill="white"/>
        <path d="M35.158 6.09462C35.101 5.91562 35.023 5.75162 34.924 5.60862C34.825 5.46562 34.708 5.34062 34.575 5.23562C34.535 5.20462 34.495 5.17562 34.454 5.14862C34.515 5.10562 34.571 5.05962 34.623 5.01162C34.75 4.89462 34.856 4.76462 34.938 4.62462C35.019 4.48562 35.08 4.33762 35.118 4.18462C35.156 4.03362 35.175 3.87962 35.175 3.72862C35.175 3.48062 35.121 3.23462 35.015 2.99762C34.91 2.76262 34.759 2.55062 34.567 2.36662C34.375 2.18462 34.142 2.03662 33.873 1.92662C33.603 1.81662 33.3 1.76062 32.972 1.76062C32.704 1.76062 32.444 1.80962 32.197 1.90562C31.951 2.00262 31.734 2.13462 31.55 2.30062C31.367 2.46562 31.213 2.65862 31.094 2.87662C30.971 3.09962 30.901 3.35262 30.885 3.62762L30.874 3.81762H32.05L32.06 3.64862C32.069 3.49262 32.128 3.35362 32.241 3.22162C32.359 3.08362 32.477 2.98862 32.589 2.94162C32.705 2.89262 32.837 2.86762 32.981 2.86762C33.157 2.86762 33.31 2.89762 33.436 2.95562C33.564 3.01562 33.671 3.09162 33.754 3.18062C33.836 3.26962 33.898 3.36862 33.937 3.47362C33.977 3.58062 33.997 3.68062 33.997 3.77062C33.997 3.89462 33.974 4.01162 33.928 4.11862C33.881 4.22762 33.817 4.31962 33.731 4.40062C33.646 4.48062 33.538 4.54562 33.411 4.59262C33.281 4.64062 33.131 4.66562 32.964 4.66562H32.484V5.67362H33.033C33.176 5.67362 33.313 5.69762 33.44 5.74562C33.565 5.79262 33.677 5.86062 33.772 5.94662C33.865 6.03162 33.94 6.13662 33.996 6.25962C34.051 6.38162 34.079 6.52162 34.079 6.67562C34.079 6.82062 34.051 6.95562 33.996 7.07562C33.939 7.19962 33.864 7.30962 33.771 7.40062C33.679 7.49162 33.571 7.56362 33.451 7.61462C33.332 7.66462 33.209 7.69062 33.085 7.69062C32.795 7.69062 32.556 7.62462 32.375 7.49562C32.193 7.36562 32.069 7.19062 31.997 6.96062L31.958 6.83462H30.804L30.822 7.03062C30.841 7.23362 30.898 7.43962 30.992 7.64362C31.087 7.84962 31.235 8.04862 31.431 8.23562C31.629 8.42462 31.872 8.57062 32.154 8.67262C32.432 8.77262 32.716 8.82262 32.999 8.82262C33.307 8.82262 33.6 8.76862 33.871 8.66162C34.142 8.55462 34.381 8.40462 34.583 8.21562C34.785 8.02562 34.948 7.79762 35.066 7.53862C35.185 7.27662 35.245 6.98962 35.245 6.68462C35.245 6.47262 35.216 6.27362 35.159 6.09362L35.158 6.09462Z" fill="white"/>
        <path d="M44.238 1.84958V3.03158C45.484 3.05458 46.492 4.07359 46.492 5.32559C46.492 6.57759 45.462 7.62159 44.196 7.62159C42.93 7.62159 41.9 6.59159 41.9 5.32559C41.9 4.61859 42.234 3.94358 42.795 3.51058V4.75558H43.7L43.703 1.84958V1.82759L40.797 1.82458H40.775V2.73058L41.887 2.73158C41.144 3.39358 40.72 4.33558 40.72 5.32459C40.72 7.24159 42.28 8.80159 44.197 8.80159C46.114 8.80159 47.674 7.24159 47.674 5.32459C47.674 3.40758 46.137 1.87158 44.239 1.84858L44.238 1.84958Z" fill="white"/>
    </g>
    <defs>
        <linearGradient id="paint0_linear_22_2" x1="28.093" y1="5.33761" x2="50" y2="5.33761" gradientUnits="userSpaceOnUse">
            <stop stop-color="#747AB6"/>
            <stop offset="0.4" stop-color="#AF5978"/>
            <stop offset="0.72" stop-color="#EA4E3C"/>
            <stop offset="0.79" stop-color="#E6593F"/>
            <stop offset="0.92" stop-color="#DE7747"/>
            <stop offset="1" stop-color="#D98D4E"/>
        </linearGradient>
        <clipPath id="clip0_22_2">
            <rect width="50" height="10.6752" fill="white"/>
        </clipPath>
    </defs>
</svg>
