<?xml version="1.0" encoding="UTF-8"?>
<svg id="Ebene_2" data-name="Ebene 2" xmlns="http://www.w3.org/2000/svg" viewBox="0 0 70.6 52.9">
  <defs>
    <style>
      .cls-1 {
        fill: #073693;
        stroke-width: 0px;
      }
    </style>
  </defs>
  <g id="Ebene_1-2" data-name="Ebene 1">
    <g>
      <path class="cls-1" d="m42.4,17.6v5.3h14.1v-5.3h-14.1Zm0,10.6v5.3h14.1v-5.3h-14.1Zm0,0v5.3h14.1v-5.3h-14.1Zm0-10.6v5.3h14.1v-5.3h-14.1Zm0,0v5.3h14.1v-5.3h-14.1Zm0,10.6v5.3h14.1v-5.3h-14.1Zm0,0v5.3h14.1v-5.3h-14.1Zm0-10.6v5.3h14.1v-5.3h-14.1Zm0,0v5.3h14.1v-5.3h-14.1Zm0,10.6v5.3h14.1v-5.3h-14.1Zm0,0v5.3h14.1v-5.3h-14.1Zm0-10.6v5.3h14.1v-5.3h-14.1Z"/>
      <path class="cls-1" d="m68.5,2c-1.4-1.4-3-2-5-2H7c-1.9,0-3.6.7-5,2C.6,3.4,0,5.1,0,7v38.8c0,1.9.7,3.6,2,5,1.4,1.4,3.1,2.1,5,2.1h56.5c1.9,0,3.6-.7,5-2.1s2.1-3,2.1-5V7c0-2-.7-3.6-2.1-5Zm-4.9,43.8H7V7h56.5v38.8h.1Z"/>
      <path class="cls-1" d="m34.3,17.9v11c0,.6-.2,1-.6,1.4-.4.4-.9.6-1.4.6h-4v5l-4-2-4,2v-5h-4.1c-.5,0-.9-.2-1.3-.6-.4-.4-.6-.9-.6-1.5v-11c0-.6.2-1,.6-1.4s.9-.6,1.4-.6h16c.6,0,1,.2,1.4.6.4.4.6.9.6,1.5Z"/>
    </g>
  </g>
</svg>