<svg xmlns="http://www.w3.org/2000/svg" viewBox="0 0 25 25" height="25" width="25"><title>0.svg</title><rect fill="none" x="0" y="0" width="25" height="25"></rect><rect x="1" y="1" rx="4" ry="4" width="23" height="23" stroke="#bbb" style="stroke-linejoin:round;stroke-miterlimit:4;" fill="#bbb" stroke-width="2"></rect><rect x="1" y="1" width="23" height="23" rx="4" ry="4" fill="#263238"></rect><path fill="#ffffff" transform="translate(5 5)" d="M11.825 3.13125C11.7 2.7625 11.35 2.5 10.9375 2.5H4.0625C3.65 2.5 3.30625 2.7625 3.175 3.13125L1.875 6.875V11.875C1.875 12.2188 2.15625 12.5 2.5 12.5H3.125C3.46875 12.5 3.75 12.2188 3.75 11.875V11.25H11.25V11.875C11.25 12.2188 11.5312 12.5 11.875 12.5H12.5C12.8438 12.5 13.125 12.2188 13.125 11.875V6.875L11.825 3.13125ZM4.28125 3.75H10.7125L11.3875 5.69375H3.60625L4.28125 3.75ZM3.125 10H11.875V6.875H3.125V10ZM4.6875 7.5C4.16973 7.5 3.75 7.91973 3.75 8.4375C3.75 8.95527 4.16973 9.375 4.6875 9.375C5.20527 9.375 5.625 8.95527 5.625 8.4375C5.625 7.91973 5.20527 7.5 4.6875 7.5ZM9.375 8.4375C9.375 7.91973 9.79473 7.5 10.3125 7.5C10.8303 7.5 11.25 7.91973 11.25 8.4375C11.25 8.95527 10.8303 9.375 10.3125 9.375C9.79473 9.375 9.375 8.95527 9.375 8.4375Z"></path></svg>