<svg xmlns="http://www.w3.org/2000/svg" viewBox="0 0 25 25" height="25" width="25"><title>3.svg</title><rect fill="none" x="0" y="0" width="25" height="25"></rect><rect x="1" y="1" rx="4" ry="4" width="23" height="23" stroke="#bbb" style="stroke-linejoin:round;stroke-miterlimit:4;" fill="#bbb" stroke-width="2"></rect><rect x="1" y="1" width="23" height="23" rx="4" ry="4" fill="#304ffe"></rect><path fill="#ffffff" transform="translate(5 5)" d="M11.25 3.125V1.875H12.5V13.125H11.25V11.875H10V13.125H5V11.875H3.75V13.125H2.5V1.875H3.75V3.125H5V1.875H10V3.125H11.25ZM3.75 10.625H5V9.375H3.75V10.625ZM5 8.125H3.75V6.875H5V8.125ZM3.75 5.625H5V4.375H3.75V5.625ZM8.75 11.875H6.25V3.125H8.75V11.875ZM10 10.625H11.25V9.375H10V10.625ZM11.25 8.125H10V6.875H11.25V8.125ZM10 5.625H11.25V4.375H10V5.625Z"></path></svg>