<svg xmlns="http://www.w3.org/2000/svg" viewBox="0 0 25 25" height="25" width="25"><title>7.svg</title><rect fill="none" x="0" y="0" width="25" height="25"></rect><rect x="1" y="1" rx="4" ry="4" width="23" height="23" stroke="#bbb" style="stroke-linejoin:round;stroke-miterlimit:4;" fill="#bbb" stroke-width="2"></rect><rect x="1" y="1" width="23" height="23" rx="4" ry="4" fill="#aeea00"></rect><path fill="#000000" transform="translate(5 5)" d="M10.625 4.0625H12.5C13.1938 4.0625 13.75 4.61875 13.75 5.3125V12.1875C13.75 12.8813 13.1938 13.4375 12.5 13.4375H2.5C1.80625 13.4375 1.25 12.8813 1.25 12.1875V5.3125C1.25 4.61875 1.80625 4.0625 2.5 4.0625H4.375V2.8125C4.375 2.11875 4.93125 1.5625 5.625 1.5625H9.375C10.0688 1.5625 10.625 2.11875 10.625 2.8125V4.0625ZM9.375 2.8125H5.625V4.0625H9.375V2.8125ZM12.5 12.1875H2.5V10.9375H12.5V12.1875ZM2.5 9.0625H12.5V5.3125H10.625V6.5625H9.375V5.3125H5.625V6.5625H4.375V5.3125H2.5V9.0625Z"></path></svg>